{
.appVersion = "1192";
DisplayStrings = (
"/fa-ethiopic",
"/fu-ethiopic",
"/fi-ethiopic",
"/faa-ethiopic",
"/fee-ethiopic",
"/ha-ethiopic",
"/tha-ethiopic",
"/thu-ethiopic",
"/thi-ethiopic",
"/thaa-ethiopic",
"/thee-ethiopic",
"/the-ethiopic",
"/thwa-ethiopic",
"m/cha-ethiopic",
"/cha-ethiopic",
"/chu-ethiopic",
"/chi-ethiopic",
"/chaa-ethiopic",
"/chee-ethiopic",
"/che-ethiopic",
"/chwa-ethiopic",
"/hu-ethiopic",
"/he-ethiopic",
"u/ho-ethiopic",
"/ho-ethiopic",
"/hoa-ethiopic",
"/ce-ethiopic",
"/naa-ethiopic",
"/nyaa-ethiopic",
"/nyo-ethiopic",
"/aGlottal-ethiopic",
"/uGlottal-ethiopic",
"/iGlottal-ethiopic",
"/aaGlottal-ethiopic",
"/eeGlottal-ethiopic",
"/eGlottal-ethiopic",
"/oGlottal-ethiopic",
"/waGlottal-ethiopic",
"/ra-ethiopic",
"/ru-ethiopic",
"/ri-ethiopic",
"/raa-ethiopic",
"/ree-ethiopic",
"/rwa-ethiopic",
"/qa-ethiopic",
"/qu-ethiopic",
"/qaa-ethiopic",
"/qe-ethiopic",
"/qoa-ethiopic",
"/wa-ethiopic",
"/wi-ethiopic",
"/waa-ethiopic",
"/we-ethiopic",
"/wo-ethiopic",
"/period-ethiopic",
"/shchaCyrillic",
"/no-ethiopic",
"/qi-ethiopic",
"/ba-ethiopic",
"/ba-ethiopic/ka-ethiopic",
"/ka-ethiopic",
"/ku-ethiopic",
"/kaa-ethiopic",
"/kee-ethiopic",
"/ke-ethiopic",
"/ko-ethiopic",
"/kwaa-ethiopic"
);
customParameters = (
{
name = vendorID;
value = APPL;
},
{
name = panose;
value = (
2,
0,
4,
0,
0,
0,
0,
0,
0,
0
);
},
{
name = unicodeRanges;
value = (
0,
1,
2,
3,
5,
6,
31,
35,
38,
59,
85,
86,
90,
92
);
},
{
name = codePageRanges;
value = (
1252,
1254,
1258
);
},
{
name = glyphOrder;
value = (
.notdef,
NULL,
CR,
space,
exclam,
quotedbl,
numbersign,
dollar,
percent,
ampersand,
quotesingle,
parenleft,
parenright,
asterisk,
plus,
comma,
hyphen,
period,
slash,
zero,
one,
two,
three,
four,
five,
six,
seven,
eight,
nine,
colon,
semicolon,
less,
equal,
greater,
question,
at,
A,
B,
C,
D,
E,
F,
G,
H,
I,
J,
K,
L,
M,
N,
O,
P,
Q,
R,
S,
T,
U,
V,
W,
X,
Y,
Z,
bracketleft,
backslash,
bracketright,
asciicircum,
underscore,
grave,
a,
b,
c,
d,
e,
f,
g,
h,
i,
j,
k,
l,
m,
n,
o,
p,

glyphs = (
{
glyphname = .notdef;
lastChange = "2019-03-01 18:48:01 +0000";
layers = (
{
layerId = "93C069E7-FFAA-4B97-8A94-34C303BF132C";
paths = (
{
closed = 1;
nodes = (
"438 0 LINE",
"438 800 LINE",
"63 800 LINE",
"63 0 LINE"
);
},
{
closed = 1;
nodes = (
"125 738 LINE",
"375 738 LINE",
"375 63 LINE",
"125 63 LINE"
);
}
);
userData = {
assembly = "NPUSHB[ ]\011/* 32 values pushed */
1 8 8 64 9 2 7 4 5 1 0 6 5 5 3 2 5 4 6 0 7 6 6 1 2 1 3 0 1 1 0 70 
SROUND[ ]\011/* SuperRound */
MDAP[1]\011/* MoveDirectAbsPt */
SHZ[1]\011/* ShiftZoneByLastPoint */
RTG[ ]\011/* RoundToGrid */
SVTCA[0]\011/* SetFreedomAndProjectionVectorToAxis */
MIAP[1]\011/* MoveIndirectAbsPt */
ALIGNRP[ ]\011/* AlignRelativePt */
MDAP[1]\011/* MoveDirectAbsPt */
ALIGNRP[ ]\011/* AlignRelativePt */
SRP0[ ]\011/* SetRefPoint0 */
MIRP[11101]\011/* MoveIndirectRelPt */
ALIGNRP[ ]\011/* AlignRelativePt */
SRP0[ ]\011/* SetRefPoint0 */
MIRP[11101]\011/* MoveIndirectRelPt */
ALIGNRP[ ]\011/* AlignRelativePt */
SVTCA[1]\011/* SetFreedomAndProjectionVectorToAxis */
MDAP[1]\011/* MoveDirectAbsPt */
ALIGNRP[ ]\011/* AlignRelativePt */
MIRP[11101]\011/* MoveIndirectRelPt */
ALIGNRP[ ]\011/* AlignRelativePt */
MDAP[1]\011/* MoveDirectAbsPt */
ALIGNRP[ ]\011/* AlignRelativePt */
MIRP[11101]\011/* MoveIndirectRelPt */
ALIGNRP[ ]\011/* AlignRelativePt */
SVTCA[0]\011/* SetFreedomAndProjectionVectorToAxis */
IUP[1]\011/* InterpolateUntPts */
IUP[0]\011/* InterpolateUntPts */
SVTCA[1]\011/* SetFreedomAndProjectionVectorToAxis */
MD[0]\011/* MeasureDistance */
ROUND[00]\011/* Round */
PUSHW[ ]\011/* 2 values pushed */
0 8 
MD[0]\011/* MeasureDistance */
ROUND[00]\011/* Round */
SUB[ ]\011/* Subtract */
PUSHB[ ]\011/* 1 value pushed */
64 
GT[ ]\011/* GreaterThan */
IF[ ]\011/* If */
SHPIX[ ]\011/* ShiftZoneByPixel */
SRP1[ ]\011/* SetRefPoint1 */
SHZ[1]\011/* ShiftZoneByLastPoint */
PUSHW[ ]\011/* 2 values pushed */
8 -64 
SHPIX[ ]\011/* ShiftZoneByPixel */
EIF[ ]\011/* EndIf */";
};
width = 500;
}
);
note = .notdef;
},
{
glyphname = exclam;
lastChange = "2019-03-01 18:48:01 +0000";
layers = (
{
layerId = "93C069E7-FFAA-4B97-8A94-34C303BF132C";
paths = (
{
closed = 1;
nodes = (
"173.667 668.333 OFFCURVE",
"157.667 676 OFFCURVE",
"141 676 CURVE SMOOTH",
"122.333 676 OFFCURVE",
"105.333 669.333 OFFCURVE",
"90 656 CURVE",
"91.333 653.333 OFFCURVE",
"103 614.333 OFFCURVE",
"103 609 CURVE",
"74 261 LINE",
"74 261 OFFCURVE",
"74 257.667 OFFCURVE",
"74 251 CURVE SMOOTH",
"74 216.333 OFFCURVE",
"77.333 192.333 OFFCURVE",
"84 179 CURVE",
"89.333 176.333 OFFCURVE",
"96.667 175 OFFCURVE",
"106 175 CURVE SMOOTH",
"113.333 175 OFFCURVE",
"118.333 175.333 OFFCURVE",
"121 176 CURVE",
"127.667 181.333 OFFCURVE",
"132.333 185.333 OFFCURVE",
"135 188 CURVE",
"124.333 230.667 OFFCURVE",
"119 256 OFFCURVE",
"119 264 CURVE SMOOTH",
"119 270 OFFCURVE",
"119.833 278.167 OFFCURVE",
"121.5 288.5 CURVE SMOOTH",
"123.167 298.833 OFFCURVE",
"124 306 OFFCURVE",
"124 310 CURVE",
"130.667 424.667 OFFCURVE",
"147.333 530 OFFCURVE",
"174 626 CURVE",
"180 638.667 OFFCURVE",
"185 647.667 OFFCURVE",
"189 653 CURVE"
);
},
{
closed = 1;
nodes = (
"158 78 OFFCURVE",
"131.667 88 OFFCURVE",
"79 88 CURVE SMOOTH",
"59 88 OFFCURVE",
"45 85.333 OFFCURVE",
"37 80 CURVE",
"25.667 73.333 OFFCURVE",
"20 60 OFFCURVE",
"20 40 CURVE SMOOTH",
"20 28 OFFCURVE",
"22.667 17 OFFCURVE",
"28 7 CURVE",
"54 -5 OFFCURVE",
"71.667 -11 OFFCURVE",
"81 -11 CURVE SMOOTH",
"132.333 -11 OFFCURVE",
"158 12 OFFCURVE",
"158 58 CURVE SMOOTH"
);
}
);
userData = {
assembly = "NPUSHB[ ]\011/* 34 values pushed */
1 39 39 64 40 0 13 23 20 9 0 27 5 33 7 4 17 4 4 19 17 23 7 25 37 6 29 29 1 25 3 1 33 70 
SROUND[ ]\011/* SuperRound */
MDAP[1]\011/* MoveDirectAbsPt */
SHZ[1]\011/* ShiftZoneByLastPoint */
RTG[ ]\011/* RoundToGrid */
SVTCA[0]\011/* SetFreedomAndProjectionVectorToAxis */
MIAP[1]\011/* MoveIndirectAbsPt */
MIAP[1]\011/* MoveIndirectAbsPt */
SRP0[ ]\011/* SetRefPoint0 */
MIRP[11101]\011/* MoveIndirectRelPt */
SRP0[ ]\011/* SetRefPoint0 */
MIRP[11101]\011/* MoveIndirectRelPt */
SVTCA[1]\011/* SetFreedomAndProjectionVectorToAxis */
MDAP[1]\011/* MoveDirectAbsPt */
ALIGNRP[ ]\011/* AlignRelativePt */
MIRP[11101]\011/* MoveIndirectRelPt */
SRP0[ ]\011/* SetRefPoint0 */
MIRP[11101]\011/* MoveIndirectRelPt */
MDAP[1]\011/* MoveDirectAbsPt */
MIRP[11101]\011/* MoveIndirectRelPt */
MDAP[0]\011/* MoveDirectAbsPt */
MDAP[0]\011/* MoveDirectAbsPt */
MDAP[0]\011/* MoveDirectAbsPt */
MDAP[0]\011/* MoveDirectAbsPt */
SVTCA[0]\011/* SetFreedomAndProjectionVectorToAxis */
MDAP[0]\011/* MoveDirectAbsPt */
IUP[1]\011/* InterpolateUntPts */
IUP[0]\011/* InterpolateUntPts */
SVTCA[1]\011/* SetFreedomAndProjectionVectorToAxis */
MD[0]\011/* MeasureDistance */
ROUND[00]\011/* Round */
PUSHW[ ]\011/* 2 values pushed */
33 39 
MD[0]\011/* MeasureDistance */
ROUND[00]\011/* Round */
SUB[ ]\011/* Subtract */
PUSHB[ ]\011/* 1 value pushed */
64 
GT[ ]\011/* GreaterThan */
IF[ ]\011/* If */
SHPIX[ ]\011/* ShiftZoneByPixel */
SRP1[ ]\011/* SetRefPoint1 */
SHZ[1]\011/* ShiftZoneByLastPoint */
PUSHW[ ]\011/* 2 values pushed */
39 -64 
SHPIX[ ]\011/* ShiftZoneByPixel */
EIF[ ]\011/* EndIf */";
};
width = 209;
}
);
note = exclam;
unicode = 0021;
},
{
glyphname = quotedbl;
lastChange = "2019-03-01 18:48:01 +0000";
layers = (
{
layerId = "93C069E7-FFAA-4B97-8A94-34C303BF132C";
paths = (
{
closed = 1;
nodes = (
"182 670.333 OFFCURVE",
"167.667 676 OFFCURVE",
"139 676 CURVE SMOOTH",
"134.333 676 OFFCURVE",
"130.667 675.333 OFFCURVE",
"128 674 CURVE",
"123.333 672.667 OFFCURVE",
"119 661.667 OFFCURVE",
"115 641 CURVE SMOOTH",
"112.333 624.333 OFFCURVE",
"111 611 OFFCURVE",
"111 601 CURVE SMOOTH",
"111 593 OFFCURVE",
"111.667 550.667 OFFCURVE",
"113 474 CURVE",
"116.333 467.333 OFFCURVE",
"124 464 OFFCURVE",
"136 464 CURVE SMOOTH",
"155.333 464 OFFCURVE",
"165 476.667 OFFCURVE",
"165 502 CURVE SMOOTH",
"165 510.667 OFFCURVE",
"164.5 523.5 OFFCURVE",
"163.5 540.5 CURVE SMOOTH",
"162.5 557.5 OFFCURVE",
"162 570.333 OFFCURVE",
"162 579 CURVE SMOOTH",
"162 603.667 OFFCURVE",
"164 621.667 OFFCURVE",
"168 633 CURVE SMOOTH",
"168.667 635 OFFCURVE",
"171.167 639.5 OFFCURVE",
"175.5 646.5 CURVE SMOOTH",
"179.833 653.5 OFFCURVE",
"182 657.667 OFFCURVE",
"182 659 CURVE SMOOTH"
);
},
{
closed = 1;
nodes = (
"74 516.333 OFFCURVE",
"72.5 533 OFFCURVE",
"69.5 555 CURVE SMOOTH",
"66.5 577 OFFCURVE",
"65 593.667 OFFCURVE",
"65 605 CURVE SMOOTH",
"65 609.667 OFFCURVE",
"66 616.5 OFFCURVE",
"68 625.5 CURVE SMOOTH",
"70 634.5 OFFCURVE",
"71 641.333 OFFCURVE",
"71 646 CURVE SMOOTH",
"71 648 OFFCURVE",
"70.667 650.833 OFFCURVE",
"70 654.5 CURVE SMOOTH",
"69.333 658.167 OFFCURVE",
"69 660.667 OFFCURVE",
"69 662 CURVE SMOOTH",
"69 665.333 OFFCURVE",
"69 668.333 OFFCURVE",
"69 671 CURVE",
"61.667 679 OFFCURVE",
"54.667 683 OFFCURVE",
"48 683 CURVE SMOOTH",
"29.333 683 OFFCURVE",
"20 666.667 OFFCURVE",
"20 634 CURVE SMOOTH",
"20 617.333 OFFCURVE",
"21 564 OFFCURVE",
"23 474 CURVE",
"25.667 467.333 OFFCURVE",
"33.333 464 OFFCURVE",
"46 464 CURVE SMOOTH",
"64.667 464 OFFCURVE",
"74 477.667 OFFCURVE",
"74 505 CURVE SMOOTH"
);
}
);
userData = {
assembly = "NPUSHB[ ]\011/* 32 values pushed */
1 43 43 64 44 0 14 5 0 12 4 8 22 4 26 34 32 37 4 28 40 4 28 24 10 30 3 20 3 1 28 70 
SROUND[ ]\011/* SuperRound */
MDAP[1]\011/* MoveDirectAbsPt */
SHZ[1]\011/* ShiftZoneByLastPoint */
RTG[ ]\011/* RoundToGrid */
SVTCA[0]\011/* SetFreedomAndProjectionVectorToAxis */
MIAP[1]\011/* MoveIndirectAbsPt */
MIAP[1]\011/* MoveIndirectAbsPt */
MDAP[1]\011/* MoveDirectAbsPt */
ALIGNRP[ ]\011/* AlignRelativePt */
SVTCA[1]\011/* SetFreedomAndProjectionVectorToAxis */
MDAP[1]\011/* MoveDirectAbsPt */
MIRP[11101]\011/* MoveIndirectRelPt */
SRP0[ ]\011/* SetRefPoint0 */
MIRP[11101]\011/* MoveIndirectRelPt */
ALIGNRP[ ]\011/* AlignRelativePt */
ALIGNRP[ ]\011/* AlignRelativePt */
MDAP[1]\011/* MoveDirectAbsPt */
MIRP[11101]\011/* MoveIndirectRelPt */
MDAP[1]\011/* MoveDirectAbsPt */
MIRP[11101]\011/* MoveIndirectRelPt */
MDAP[0]\011/* MoveDirectAbsPt */
MDAP[0]\011/* MoveDirectAbsPt */
MDAP[0]\011/* MoveDirectAbsPt */
SVTCA[0]\011/* SetFreedomAndProjectionVectorToAxis */
IUP[1]\011/* InterpolateUntPts */
IUP[0]\011/* InterpolateUntPts */
SVTCA[1]\011/* SetFreedomAndProjectionVectorToAxis */
MD[0]\011/* MeasureDistance */
ROUND[00]\011/* Round */
PUSHW[ ]\011/* 2 values pushed */
28 43 
MD[0]\011/* MeasureDistance */
ROUND[00]\011/* Round */
SUB[ ]\011/* Subtract */
PUSHB[ ]\011/* 1 value pushed */
64 
GT[ ]\011/* GreaterThan */
IF[ ]\011/* If */
SHPIX[ ]\011/* ShiftZoneByPixel */
SRP1[ ]\011/* SetRefPoint1 */
SHZ[1]\011/* ShiftZoneByLastPoint */
PUSHW[ ]\011/* 2 values pushed */
43 -64 
SHPIX[ ]\011/* ShiftZoneByPixel */
EIF[ ]\011/* EndIf */";
};
width = 202;
}
);
note = quotedbl;
unicode = 0022;
},
{
glyphname = numbersign;
lastChange = "2019-03-01 18:48:01 +0000";
layers = (
{
layerId = "93C069E7-FFAA-4B97-8A94-34C303BF132C";
paths = (
{
closed = 1;
nodes = (
"409 504.667 OFFCURVE",
"402 514.333 OFFCURVE",
"388 521 CURVE SMOOTH",
"376.667 526.333 OFFCURVE",
"364 529 OFFCURVE",
"350 529 CURVE SMOOTH",
"348 529 OFFCURVE",
"338.667 528.667 OFFCURVE",
"322 528 CURVE",
"327.333 556 OFFCURVE",
"332 578.333 OFFCURVE",
"336 595 CURVE",
"336.667 597 OFFCURVE",
"341 607.333 OFFCURVE",
"349 626 CURVE",
"353.667 639.333 OFFCURVE",
"356 650.333 OFFCURVE",
"356 659 CURVE SMOOTH",
"356 676.333 OFFCURVE",
"336.333 690 OFFCURVE",
"319 690 CURVE SMOOTH",
"316.333 690 OFFCURVE",
"306.667 684.333 OFFCURVE",
"290 673 CURVE",
"281.333 601 OFFCURVE",
"275 551.667 OFFCURVE",
"271 525 CURVE",
"180 520 LINE",
"188 559.333 OFFCURVE",
"193.333 584.333 OFFCURVE",
"196 595 CURVE",
"197.333 597.667 OFFCURVE",
"201.333 606.333 OFFCURVE",
"208 621 CURVE",
"212.667 632.333 OFFCURVE",
"215 641.667 OFFCURVE",
"215 649 CURVE SMOOTH",
"215 666.333 OFFCURVE",
"195.667 680 OFFCURVE",
"177 680 CURVE SMOOTH",
"169 680 OFFCURVE",
"158 675.333 OFFCURVE",
"144 666 CURVE",
"142.667 655.333 OFFCURVE",
"142 643 OFFCURVE",
"142 629 CURVE SMOOTH",
"142 609.667 OFFCURVE",
"138 572.667 OFFCURVE",
"130 518 CURVE",
"59 514 LINE",
"57 498 OFFCURVE",
"56 489.667 OFFCURVE",
"56 489 CURVE SMOOTH",
"56 477 OFFCURVE",
"66.667 452 OFFCURVE",
"76 452 CURVE",
"74.667 452 OFFCURVE",
"90.667 458.333 OFFCURVE",
"124 471 CURVE",
"92 228 LINE",
"23 224 LINE",
"21 208 OFFCURVE",
"20 199.667 OFFCURVE",
"20 199 CURVE SMOOTH",
"20 187 OFFCURVE",
"30.667 162 OFFCURVE",
"40 162 CURVE",
"40 162 OFFCURVE",
"55.333 168 OFFCURVE",
"86 180 CURVE",
"74 90 OFFCURVE",
"68 35.667 OFFCURVE",
"68 17 CURVE SMOOTH",
"68 9 OFFCURVE",
"81 -10 OFFCURVE",
"89 -10 CURVE SMOOTH",
"109.667 -10 OFFCURVE",
"120 4.333 OFFCURVE",
"120 33 CURVE SMOOTH",
"120 53.667 OFFCURVE",
"122.333 79.667 OFFCURVE",
"127 111 CURVE SMOOTH",
"133 154.333 OFFCURVE",
"136.333 180.333 OFFCURVE",
"137 189 CURVE",
"153.667 190.333 OFFCURVE",
"169.333 191 OFFCURVE",
"184 191 CURVE SMOOTH",
"200 191 OFFCURVE",
"214.333 190.333 OFFCURVE",
"227 189 CURVE",
"219 132.333 OFFCURVE",
"215 85.333 OFFCURVE",
"215 48 CURVE SMOOTH",
"215 12 OFFCURVE",
"225 -6 OFFCURVE",
"245 -6 CURVE SMOOTH",
"261 -6 OFFCURVE",
"276 7 OFFCURVE",
"276 23 CURVE SMOOTH",
"276 25.667 OFFCURVE",
"275 30.167 OFFCURVE",
"273 36.5 CURVE SMOOTH",
"271 42.833 OFFCURVE",
"270 47.333 OFFCURVE",
"270 50 CURVE SMOOTH",
"270 98.667 OFFCURVE",
"272 144 OFFCURVE",
"276 186 CURVE",
"305.333 184.667 OFFCURVE",
"323 183.333 OFFCURVE",
"329 182 CURVE",
"331 181.333 OFFCURVE",
"334.833 179.167 OFFCURVE",
"340.5 175.5 CURVE SMOOTH",
"346.167 171.833 OFFCURVE",
"350.333 170 OFFCURVE",
"353 170 CURVE",
"351 170 OFFCURVE",
"355.667 171.333 OFFCURVE",
"367 174 CURVE",
"367 176 OFFCURVE",
"368 180.333 OFFCURVE",
"370 187 CURVE SMOOTH",
"372 193.667 OFFCURVE",
"373 198.667 OFFCURVE",
"373 202 CURVE SMOOTH",
"373 214.667 OFFCURVE",
"366 224.333 OFFCURVE",
"352 231 CURVE SMOOTH",
"341.333 236.333 OFFCURVE",
"329 239 OFFCURVE",
"315 239 CURVE SMOOTH",
"312.333 239 OFFCURVE",
"301.333 238.667 OFFCURVE",
"282 238 CURVE",
"295.333 343.333 OFFCURVE",
"305.667 422.333 OFFCURVE",
"313 475 CURVE",
"341.667 474.333 OFFCURVE",
"358.667 473.333 OFFCURVE",
"364 472 CURVE",
"366 471.333 OFFCURVE",
"369.833 469.167 OFFCURVE",
"375.5 465.5 CURVE SMOOTH",
"381.167 461.833 OFFCURVE",
"385.333 460 OFFCURVE",
"388 460 CURVE",
"386.667 460 OFFCURVE",
"391.333 461.333 OFFCURVE",
"402 464 CURVE",
"403.333 468 OFFCURVE",
"409 485.333 OFFCURVE",
"409 492 CURVE SMOOTH"
);
},
{
closed = 1;
nodes = (
"233 235 LINE",
"141 230 LINE",
"155 340.667 OFFCURVE",
"165.667 423.667 OFFCURVE",
"173 479 CURVE",
"189.667 480.333 OFFCURVE",
"205.333 481 OFFCURVE",
"220 481 CURVE SMOOTH",
"236 481 OFFCURVE",
"251 480 OFFCURVE",
"265 478 CURVE"
);
}
);
userData = {
assembly = "NPUSHB[ ]\011/* 99 values pushed */
1 115 115 64 116 0 103 101 64 55 28 23 14 12 10 5 113 107 101 95 87 81 69 64 60 55 40 18 12 0 10 12 10 64 63 63 64 111 113 8 113 114 64 63 63 64 107 88 87 88 114 113 114 90 8 12 10 10 12 33 5 53 74 5 38 38 5 30 48 4 53 57 6 63 66 6 87 72 113 63 6 50 114 6 42 109 6 88 92 3 78 3 50 1 36 1 1 60 70 
SROUND[ ]\011/* SuperRound */
MDAP[1]\011/* MoveDirectAbsPt */
SHZ[1]\011/* ShiftZoneByLastPoint */
RTG[ ]\011/* RoundToGrid */
SVTCA[0]\011/* SetFreedomAndProjectionVectorToAxis */
MIAP[1]\011/* MoveIndirectAbsPt */
MIAP[1]\011/* MoveIndirectAbsPt */
MIAP[1]\011/* MoveIndirectAbsPt */
MIAP[1]\011/* MoveIndirectAbsPt */
MDAP[1]\011/* MoveDirectAbsPt */
MIRP[11101]\011/* MoveIndirectRelPt */
MDAP[1]\011/* MoveDirectAbsPt */
MIRP[11101]\011/* MoveIndirectRelPt */
SRP0[ ]\011/* SetRefPoint0 */
MIRP[11101]\011/* MoveIndirectRelPt */
ALIGNRP[ ]\011/* AlignRelativePt */
MDAP[1]\011/* MoveDirectAbsPt */
ALIGNRP[ ]\011/* AlignRelativePt */
MIRP[11101]\011/* MoveIndirectRelPt */
SRP0[ ]\011/* SetRefPoint0 */
MIRP[11101]\011/* MoveIndirectRelPt */
SVTCA[1]\011/* SetFreedomAndProjectionVectorToAxis */
MDAP[1]\011/* MoveDirectAbsPt */
MIRP[11101]\011/* MoveIndirectRelPt */
MDAP[1]\011/* MoveDirectAbsPt */
MIRP[11101]\011/* MoveIndirectRelPt */
SRP0[ ]\011/* SetRefPoint0 */
MIRP[11101]\011/* MoveIndirectRelPt */
SRP0[ ]\011/* SetRefPoint0 */
MIRP[11101]\011/* MoveIndirectRelPt */
SDPVTL[1]\011/* SetDualPVectorToLine */
MDAP[0]\011/* MoveDirectAbsPt */
SFVTPV[ ]\011/* SetFVectorToPVector */
MDRP[00100]\011/* MoveDirectRelPt */
SFVTPV[ ]\011/* SetFVectorToPVector */
MIRP[11100]\011/* MoveIndirectRelPt */
SFVTL[0]\011/* SetFVectorToLine */
MDRP[00100]\011/* MoveDirectRelPt */
SFVTL[0]\011/* SetFVectorToLine */
MDRP[00100]\011/* MoveDirectRelPt */
SFVTPV[ ]\011/* SetFVectorToPVector */
MDRP[00100]\011/* MoveDirectRelPt */
SDPVTL[1]\011/* SetDualPVectorToLine */
MDAP[0]\011/* MoveDirectAbsPt */
SFVTPV[ ]\011/* SetFVectorToPVector */
MDRP[00100]\011/* MoveDirectRelPt */
SFVTL[0]\011/* SetFVectorToLine */
MIRP[11100]\011/* MoveIndirectRelPt */
SFVTPV[ ]\011/* SetFVectorToPVector */
MDRP[00100]\011/* MoveDirectRelPt */
SDPVTL[1]\011/* SetDualPVectorToLine */
MDAP[0]\011/* MoveDirectAbsPt */
SFVTPV[ ]\011/* SetFVectorToPVector */
MDRP[00100]\011/* MoveDirectRelPt */
SFVTPV[ ]\011/* SetFVectorToPVector */
MIRP[11100]\011/* MoveIndirectRelPt */
SFVTPV[ ]\011/* SetFVectorToPVector */
MDRP[00100]\011/* MoveDirectRelPt */
SVTCA[1]\011/* SetFreedomAndProjectionVectorToAxis */
MDAP[0]\011/* MoveDirectAbsPt */
MDAP[0]\011/* MoveDirectAbsPt */
MDAP[0]\011/* MoveDirectAbsPt */
MDAP[0]\011/* MoveDirectAbsPt */
MDAP[0]\011/* MoveDirectAbsPt */
MDAP[0]\011/* MoveDirectAbsPt */
MDAP[0]\011/* MoveDirectAbsPt */
MDAP[0]\011/* MoveDirectAbsPt */
MDAP[0]\011/* MoveDirectAbsPt */
MDAP[0]\011/* MoveDirectAbsPt */
MDAP[0]\011/* MoveDirectAbsPt */
MDAP[0]\011/* MoveDirectAbsPt */
MDAP[0]\011/* MoveDirectAbsPt */
MDAP[0]\011/* MoveDirectAbsPt */
SVTCA[0]\011/* SetFreedomAndProjectionVectorToAxis */
MDAP[0]\011/* MoveDirectAbsPt */
MDAP[0]\011/* MoveDirectAbsPt */
MDAP[0]\011/* MoveDirectAbsPt */
MDAP[0]\011/* MoveDirectAbsPt */
MDAP[0]\011/* MoveDirectAbsPt */
MDAP[0]\011/* MoveDirectAbsPt */
MDAP[0]\011/* MoveDirectAbsPt */
MDAP[0]\011/* MoveDirectAbsPt */
MDAP[0]\011/* MoveDirectAbsPt */
MDAP[0]\011/* MoveDirectAbsPt */
IUP[1]\011/* InterpolateUntPts */
IUP[0]\011/* InterpolateUntPts */
SVTCA[1]\011/* SetFreedomAndProjectionVectorToAxis */
MD[0]\011/* MeasureDistance */
ROUND[00]\011/* Round */
PUSHW[ ]\011/* 2 values pushed */
60 115 
MD[0]\011/* MeasureDistance */
ROUND[00]\011/* Round */
SUB[ ]\011/* Subtract */
PUSHB[ ]\011/* 1 value pushed */
64 
GT[ ]\011/* GreaterThan */
IF[ ]\011/* If */
SHPIX[ ]\011/* ShiftZoneByPixel */
SRP1[ ]\011/* SetRefPoint1 */
SHZ[1]\011/* ShiftZoneByLastPoint */
PUSHW[ ]\011/* 2 values pushed */
115 -64 
SHPIX[ ]\011/* ShiftZoneByPixel */
EIF[ ]\011/* EndIf */";
};
width = 429;
}
);
note = numbersign;
unicode = 0023;
},
{
glyphname = dollar;
lastChange = "2019-03-01 18:48:01 +0000";
layers = (
{
layerId = "93C069E7-FFAA-4B97-8A94-34C303BF132C";
paths = (
{
closed = 1;
nodes = (
"431 528.333 OFFCURVE",
"411.667 538 OFFCURVE",
"373 538 CURVE SMOOTH",
"365 538 OFFCURVE",
"352.833 536.333 OFFCURVE",
"336.5 533 CURVE SMOOTH",
"320.167 529.667 OFFCURVE",
"307.667 528 OFFCURVE",
"299 528 CURVE",
"299 541.333 OFFCURVE",
"300.333 561 OFFCURVE",
"303 587 CURVE SMOOTH",
"306.333 619 OFFCURVE",
"309.667 637 OFFCURVE",
"313 641 CURVE",
"314.333 642.333 OFFCURVE",
"317.333 644.5 OFFCURVE",
"322 647.5 CURVE SMOOTH",
"326.667 650.5 OFFCURVE",
"329 653 OFFCURVE",
"329 655 CURVE SMOOTH",
"329 666 LINE",
"311.667 677.333 OFFCURVE",
"299.667 683 OFFCURVE",
"293 683 CURVE SMOOTH",
"271.667 683 OFFCURVE",
"247 668 OFFCURVE",
"247 648 CURVE SMOOTH",
"247 511 LINE",
"190.333 479 OFFCURVE",
"161 462 OFFCURVE",
"159 460 CURVE",
"127.667 436.667 OFFCURVE",
"112 409 OFFCURVE",
"112 377 CURVE SMOOTH",
"112 350.333 OFFCURVE",
"127 328 OFFCURVE",
"157 310 CURVE",
"162.333 307.333 OFFCURVE",
"189 296 OFFCURVE",
"237 276 CURVE",
"237 179 LINE",
"233 175 OFFCURVE",
"228.333 173 OFFCURVE",
"223 173 CURVE SMOOTH",
"178.333 173 OFFCURVE",
"146.667 178.667 OFFCURVE",
"128 190 CURVE",
"127.333 190.667 OFFCURVE",
"116.667 199.333 OFFCURVE",
"96 216 CURVE SMOOTH",
"82 226.667 OFFCURVE",
"70.333 232 OFFCURVE",
"61 232 CURVE SMOOTH",
"33.667 232 OFFCURVE",
"20 223.333 OFFCURVE",
"20 206 CURVE SMOOTH",
"20 185.333 OFFCURVE",
"45 168.667 OFFCURVE",
"95 156 CURVE SMOOTH",
"132.333 146 OFFCURVE",
"166.333 141 OFFCURVE",
"197 141 CURVE SMOOTH",
"221 141 OFFCURVE",
"235 139 OFFCURVE",
"239 135 CURVE",
"241 78.333 OFFCURVE",
"244 40 OFFCURVE",
"248 20 CURVE",
"252.667 3.333 OFFCURVE",
"257 -9 OFFCURVE",
"261 -17 CURVE",
"267 -17 LINE SMOOTH",
"291 -17.667 OFFCURVE",
"304 -9.333 OFFCURVE",
"306 8 CURVE",
"294 14 LINE",
"286 46.667 OFFCURVE",
"282.333 81 OFFCURVE",
"283 117 CURVE SMOOTH",
"283 148 LINE",
"311.667 158 OFFCURVE",
"340.333 168 OFFCURVE",
"369 178 CURVE",
"403.667 192.667 OFFCURVE",
"421 213.667 OFFCURVE",
"421 241 CURVE SMOOTH",
"421 265 OFFCURVE",
"403 282.667 OFFCURVE",
"367 294 CURVE",
"339 301.333 OFFCURVE",
"311 309 OFFCURVE",
"283 317 CURVE",
"283 330.333 OFFCURVE",
"286.667 382.333 OFFCURVE",
"294 473 CURVE",
"302 479 OFFCURVE",
"311.667 482 OFFCURVE",
"323 482 CURVE SMOOTH",
"327 482 OFFCURVE",
"333.167 481.5 OFFCURVE",
"341.5 480.5 CURVE SMOOTH",
"349.833 479.5 OFFCURVE",
"356 479 OFFCURVE",
"360 479 CURVE SMOOTH",
"407.333 479 OFFCURVE",
"431 489 OFFCURVE",
"431 509 CURVE SMOOTH"
);
},
{
closed = 1;
nodes = (
"226 328 LINE SMOOTH",
"203.333 328 OFFCURVE",
"175 367.333 OFFCURVE",
"175 390 CURVE SMOOTH",
"175 418.667 OFFCURVE",
"194 442.667 OFFCURVE",
"232 462 CURVE",
"242 462 LINE",
"242 328 LINE"
);
},
{
closed = 1;
nodes = (
"332 208.667 OFFCURVE",
"311.667 187 OFFCURVE",
"297 187 CURVE SMOOTH",
"283 187 LINE",
"283 265 LINE",
"315.667 256.333 OFFCURVE",
"332 242 OFFCURVE",
"332 222 CURVE SMOOTH"
);
}
);
userData = {
assembly = "NPUSHB[ ]\011/* 58 values pushed */
1 87 87 64 88 0 84 83 82 79 74 73 72 67 36 5 73 72 67 21 0 34 5 9 80 5 13 54 53 5 60 59 76 5 49 45 44 4 83 82 18 17 4 9 2 6 70 42 7 30 57 3 24 23 1 1 34 70 
SROUND[ ]\011/* SuperRound */
MDAP[1]\011/* MoveDirectAbsPt */
SHZ[1]\011/* ShiftZoneByLastPoint */
RTG[ ]\011/* RoundToGrid */
SVTCA[0]\011/* SetFreedomAndProjectionVectorToAxis */
MIAP[1]\011/* MoveIndirectAbsPt */
ALIGNRP[ ]\011/* AlignRelativePt */
MIAP[1]\011/* MoveIndirectAbsPt */
MDAP[1]\011/* MoveDirectAbsPt */
MIRP[11101]\011/* MoveIndirectRelPt */
MDAP[1]\011/* MoveDirectAbsPt */
MIRP[11101]\011/* MoveIndirectRelPt */
SVTCA[1]\011/* SetFreedomAndProjectionVectorToAxis */
MDAP[1]\011/* MoveDirectAbsPt */
SLOOP[ ]\011/* SetLoopVariable */
ALIGNRP[ ]\011/* AlignRelativePt */
MIRP[11101]\011/* MoveIndirectRelPt */
ALIGNRP[ ]\011/* AlignRelativePt */
MDAP[1]\011/* MoveDirectAbsPt */
MIRP[11101]\011/* MoveIndirectRelPt */
MDAP[1]\011/* MoveDirectAbsPt */
ALIGNRP[ ]\011/* AlignRelativePt */
MIRP[11101]\011/* MoveIndirectRelPt */
ALIGNRP[ ]\011/* AlignRelativePt */
MDAP[1]\011/* MoveDirectAbsPt */
MIRP[11101]\011/* MoveIndirectRelPt */
SRP0[ ]\011/* SetRefPoint0 */
MIRP[11101]\011/* MoveIndirectRelPt */
MDAP[0]\011/* MoveDirectAbsPt */
MDAP[0]\011/* MoveDirectAbsPt */
MDAP[0]\011/* MoveDirectAbsPt */
MDAP[0]\011/* MoveDirectAbsPt */
MDAP[0]\011/* MoveDirectAbsPt */
SVTCA[0]\011/* SetFreedomAndProjectionVectorToAxis */
MDAP[0]\011/* MoveDirectAbsPt */
MDAP[0]\011/* MoveDirectAbsPt */
MDAP[0]\011/* MoveDirectAbsPt */
MDAP[0]\011/* MoveDirectAbsPt */
MDAP[0]\011/* MoveDirectAbsPt */
MDAP[0]\011/* MoveDirectAbsPt */
MDAP[0]\011/* MoveDirectAbsPt */
MDAP[0]\011/* MoveDirectAbsPt */
MDAP[0]\011/* MoveDirectAbsPt */
MDAP[0]\011/* MoveDirectAbsPt */
IUP[1]\011/* InterpolateUntPts */
IUP[0]\011/* InterpolateUntPts */
SVTCA[1]\011/* SetFreedomAndProjectionVectorToAxis */
MD[0]\011/* MeasureDistance */
ROUND[00]\011/* Round */
PUSHW[ ]\011/* 2 values pushed */
34 87 
MD[0]\011/* MeasureDistance */
ROUND[00]\011/* Round */
SUB[ ]\011/* Subtract */
PUSHB[ ]\011/* 1 value pushed */
64 
GT[ ]\011/* GreaterThan */
IF[ ]\011/* If */
SHPIX[ ]\011/* ShiftZoneByPixel */
SRP1[ ]\011/* SetRefPoint1 */
SHZ[1]\011/* ShiftZoneByLastPoint */
PUSHW[ ]\011/* 2 values pushed */
87 -64 
SHPIX[ ]\011/* ShiftZoneByPixel */
EIF[ ]\011/* EndIf */";
};
width = 451;
}
);
note = dollar;
unicode = 0024;
},
{
glyphname = percent;
lastChange = "2019-03-01 18:48:01 +0000";
layers = (
{
layerId = "93C069E7-FFAA-4B97-8A94-34C303BF132C";
paths = (
{
closed = 1;
nodes = (
"620 192.667 OFFCURVE",
"612.667 224.667 OFFCURVE",
"598 254 CURVE SMOOTH",
"580 290 OFFCURVE",
"555.333 308 OFFCURVE",
"524 308 CURVE SMOOTH",
"517.333 308 OFFCURVE",
"512.333 306 OFFCURVE",
"509 302 CURVE",
"500 326 LINE",
"482.667 333.333 OFFCURVE",
"470.333 337 OFFCURVE",
"463 337 CURVE SMOOTH",
"432.333 337 OFFCURVE",
"407 310.667 OFFCURVE",
"387 258 CURVE SMOOTH",
"371 216 OFFCURVE",
"363 176.333 OFFCURVE",
"363 139 CURVE SMOOTH",
"363 96.333 OFFCURVE",
"373 61.667 OFFCURVE",
"393 35 CURVE SMOOTH",
"415 6.333 OFFCURVE",
"446.667 -8 OFFCURVE",
"488 -8 CURVE SMOOTH",
"532 -8 OFFCURVE",
"566 9.333 OFFCURVE",
"590 44 CURVE SMOOTH",
"610 74 OFFCURVE",
"620 112 OFFCURVE",
"620 158 CURVE SMOOTH"
);
},
{
closed = 1;
nodes = (
"526 659 OFFCURVE",
"502 675 OFFCURVE",
"482 675 CURVE SMOOTH",
"472 675 OFFCURVE",
"464.667 669 OFFCURVE",
"460 657 CURVE SMOOTH",
"456.667 647.667 OFFCURVE",
"453.333 638 OFFCURVE",
"450 628 CURVE",
"428.667 584 OFFCURVE",
"329.333 520.667 OFFCURVE",
"280 518 CURVE",
"276 524 LINE",
"275.333 558.667 OFFCURVE",
"265 591 OFFCURVE",
"245 621 CURVE SMOOTH",
"223 655 OFFCURVE",
"195.333 672 OFFCURVE",
"162 672 CURVE SMOOTH",
"118.667 672 OFFCURVE",
"86.333 649.667 OFFCURVE",
"65 605 CURVE SMOOTH",
"48.333 571 OFFCURVE",
"40 529.667 OFFCURVE",
"40 481 CURVE SMOOTH",
"40 385 OFFCURVE",
"78.667 337 OFFCURVE",
"156 337 CURVE SMOOTH",
"192.667 337 OFFCURVE",
"220.667 351.667 OFFCURVE",
"240 381 CURVE SMOOTH",
"252 400.333 OFFCURVE",
"262.667 431.667 OFFCURVE",
"272 475 CURVE",
"319.333 491.667 OFFCURVE",
"353.667 505 OFFCURVE",
"375 515 CURVE",
"378 509 LINE",
"342.667 429 OFFCURVE",
"307.667 349 OFFCURVE",
"273 269 CURVE SMOOTH",
"221.667 152.333 OFFCURVE",
"196 76.333 OFFCURVE",
"196 41 CURVE",
"196 41.667 OFFCURVE",
"196.333 30.667 OFFCURVE",
"197 8 CURVE",
"207.667 -2.667 OFFCURVE",
"216.333 -8 OFFCURVE",
"223 -8 CURVE SMOOTH",
"233 -8 OFFCURVE",
"238 -3.333 OFFCURVE",
"238 6 CURVE SMOOTH",
"238 8.667 OFFCURVE",
"235.833 11.833 OFFCURVE",
"231.5 15.5 CURVE SMOOTH",
"227.167 19.167 OFFCURVE",
"225 22.333 OFFCURVE",
"225 25 CURVE SMOOTH",
"225 31 OFFCURVE",
"236 64.667 OFFCURVE",
"258 126 CURVE SMOOTH",
"276.667 179.333 OFFCURVE",
"290.333 216.333 OFFCURVE",
"299 237 CURVE SMOOTH",
"320.333 289.667 OFFCURVE",
"354.333 360.333 OFFCURVE",
"401 449 CURVE SMOOTH",
"459 558.333 OFFCURVE",
"499 618.333 OFFCURVE",
"521 629 CURVE",
"524.333 632.333 OFFCURVE",
"526 635.667 OFFCURVE",
"526 639 CURVE SMOOTH"
);
},
{
closed = 1;
nodes = (
"241 514.667 OFFCURVE",
"235.667 509 OFFCURVE",
"225 509 CURVE SMOOTH",
"177 509 OFFCURVE",
"131 537.333 OFFCURVE",
"131 584 CURVE SMOOTH",
"131 610.667 OFFCURVE",
"146 634 OFFCURVE",
"170 634 CURVE SMOOTH",
"189.333 634 OFFCURVE",
"206.333 620.667 OFFCURVE",
"221 594 CURVE SMOOTH",
"234.333 570 OFFCURVE",
"241 547.333 OFFCURVE",
"241 526 CURVE SMOOTH"
);
},
{
closed = 1;
nodes = (
"579 126.667 OFFCURVE",
"571.667 97.667 OFFCURVE",
"557 71 CURVE SMOOTH",
"539 39 OFFCURVE",
"515.667 23 OFFCURVE",
"487 23 CURVE SMOOTH",
"459 23 OFFCURVE",
"437.667 36.667 OFFCURVE",
"423 64 CURVE SMOOTH",
"410.333 86 OFFCURVE",
"404 112 OFFCURVE",
"404 142 CURVE SMOOTH",
"404 168 OFFCURVE",
"411 197.667 OFFCURVE",
"425 231 CURVE SMOOTH",
"441.667 268.333 OFFCURVE",
"460 292 OFFCURVE",
"480 302 CURVE",
"491 302 LINE",
"489.667 283.333 OFFCURVE",
"511.667 278.667 OFFCURVE",
"529 272 CURVE",
"562.333 252.667 OFFCURVE",
"579 214.667 OFFCURVE",
"579 158 CURVE SMOOTH"
);
},
{
closed = 1;
nodes = (
"231.667 455 OFFCURVE",
"230 448.667 OFFCURVE",
"226 444 CURVE",
"222 424.667 OFFCURVE",
"214 407.667 OFFCURVE",
"202 393 CURVE SMOOTH",
"188 376.333 OFFCURVE",
"171.667 368 OFFCURVE",
"153 368 CURVE SMOOTH",
"105 368 OFFCURVE",
"81 410.333 OFFCURVE",
"81 495 CURVE SMOOTH",
"81 504.333 OFFCURVE",
"86.667 526.667 OFFCURVE",
"98 562 CURVE",
"117.333 504 OFFCURVE",
"161.667 474.667 OFFCURVE",
"231 474 CURVE",
"231 463 LINE"
);
}
);
userData = {
assembly = "NPUSHB[ ]\011/* 64 values pushed */
1 115 115 64 116 0 105 90 89 62 51 45 103 102 72 44 40 21 31 4 38 79 5 53 8 4 94 34 4 38 107 4 53 84 4 0 15 19 103 17 6 4 98 7 4 12 7 109 76 7 57 103 7 82 69 3 57 3 36 4 1 1 53 70 
SROUND[ ]\011/* SuperRound */
MDAP[1]\011/* MoveDirectAbsPt */
SHZ[1]\011/* ShiftZoneByLastPoint */
RTG[ ]\011/* RoundToGrid */
SVTCA[0]\011/* SetFreedomAndProjectionVectorToAxis */
MIAP[1]\011/* MoveIndirectAbsPt */
ALIGNRP[ ]\011/* AlignRelativePt */
MIAP[1]\011/* MoveIndirectAbsPt */
MIAP[1]\011/* MoveIndirectAbsPt */
MDAP[1]\011/* MoveDirectAbsPt */
MIRP[11101]\011/* MoveIndirectRelPt */
SRP0[ ]\011/* SetRefPoint0 */
MIRP[11101]\011/* MoveIndirectRelPt */
MDAP[1]\011/* MoveDirectAbsPt */
MIRP[11101]\011/* MoveIndirectRelPt */
SRP0[ ]\011/* SetRefPoint0 */
MIRP[11101]\011/* MoveIndirectRelPt */
SRP0[ ]\011/* SetRefPoint0 */
MIRP[11101]\011/* MoveIndirectRelPt */
SRP0[ ]\011/* SetRefPoint0 */
MIRP[11101]\011/* MoveIndirectRelPt */
SVTCA[1]\011/* SetFreedomAndProjectionVectorToAxis */
MDAP[1]\011/* MoveDirectAbsPt */
MIRP[11101]\011/* MoveIndirectRelPt */
MDAP[1]\011/* MoveDirectAbsPt */
MIRP[11101]\011/* MoveIndirectRelPt */
MDAP[1]\011/* MoveDirectAbsPt */
MIRP[11101]\011/* MoveIndirectRelPt */
MDAP[1]\011/* MoveDirectAbsPt */
MIRP[11101]\011/* MoveIndirectRelPt */
SRP0[ ]\011/* SetRefPoint0 */
MIRP[11101]\011/* MoveIndirectRelPt */
SRP0[ ]\011/* SetRefPoint0 */
MIRP[11101]\011/* MoveIndirectRelPt */
MDAP[0]\011/* MoveDirectAbsPt */
MDAP[0]\011/* MoveDirectAbsPt */
MDAP[0]\011/* MoveDirectAbsPt */
MDAP[0]\011/* MoveDirectAbsPt */
MDAP[0]\011/* MoveDirectAbsPt */
MDAP[0]\011/* MoveDirectAbsPt */
SVTCA[0]\011/* SetFreedomAndProjectionVectorToAxis */
MDAP[0]\011/* MoveDirectAbsPt */
MDAP[0]\011/* MoveDirectAbsPt */
MDAP[0]\011/* MoveDirectAbsPt */
MDAP[0]\011/* MoveDirectAbsPt */
MDAP[0]\011/* MoveDirectAbsPt */
MDAP[0]\011/* MoveDirectAbsPt */
IUP[1]\011/* InterpolateUntPts */
IUP[0]\011/* InterpolateUntPts */
SVTCA[1]\011/* SetFreedomAndProjectionVectorToAxis */
MD[0]\011/* MeasureDistance */
ROUND[00]\011/* Round */
PUSHW[ ]\011/* 2 values pushed */
53 115 
MD[0]\011/* MeasureDistance */
ROUND[00]\011/* Round */
SUB[ ]\011/* Subtract */
PUSHB[ ]\011/* 1 value pushed */
64 
GT[ ]\011/* GreaterThan */
IF[ ]\011/* If */
SHPIX[ ]\011/* ShiftZoneByPixel */
SRP1[ ]\011/* SetRefPoint1 */
SHZ[1]\011/* ShiftZoneByLastPoint */
PUSHW[ ]\011/* 2 values pushed */
115 -64 
SHPIX[ ]\011/* ShiftZoneByPixel */
EIF[ ]\011/* EndIf */";
};
width = 640;
}
);
note = percent;
unicode = 0025;
},
{
glyphname = ampersand;
lastChange = "2019-03-01 18:48:01 +0000";
layers = (
{
layerId = "93C069E7-FFAA-4B97-8A94-34C303BF132C";
paths = (
{
closed = 1;
nodes = (
"595 14 LINE",
"587.667 16.667 OFFCURVE",
"583 18 OFFCURVE",
"581 18 CURVE SMOOTH",
"575.667 18 OFFCURVE",
"568.333 15.833 OFFCURVE",
"559 11.5 CURVE SMOOTH",
"549.667 7.167 OFFCURVE",
"542.667 5 OFFCURVE",
"538 5 CURVE SMOOTH",
"507.333 5 OFFCURVE",
"458 32.667 OFFCURVE",
"442 58 CURVE",
"533.333 111.333 OFFCURVE",
"579 160.333 OFFCURVE",
"579 205 CURVE SMOOTH",
"579 240.333 OFFCURVE",
"510 258 OFFCURVE",
"372 258 CURVE SMOOTH",
"344 258 OFFCURVE",
"330 248.333 OFFCURVE",
"330 229 CURVE SMOOTH",
"330 221 OFFCURVE",
"334.667 214.667 OFFCURVE",
"344 210 CURVE",
"360 218.667 OFFCURVE",
"376.667 223 OFFCURVE",
"394 223 CURVE SMOOTH",
"411.333 223 OFFCURVE",
"433.333 218.667 OFFCURVE",
"460 210 CURVE SMOOTH",
"492.667 200 OFFCURVE",
"509 188.667 OFFCURVE",
"509 176 CURVE SMOOTH",
"509 156 OFFCURVE",
"419.667 92 OFFCURVE",
"397 92 CURVE SMOOTH",
"369 92 OFFCURVE",
"207.667 255.333 OFFCURVE",
"205 286 CURVE",
"309 392.667 OFFCURVE",
"366.333 461.333 OFFCURVE",
"377 492 CURVE SMOOTH",
"381.667 506.667 OFFCURVE",
"384 524.333 OFFCURVE",
"384 545 CURVE SMOOTH",
"384 621 OFFCURVE",
"326 676 OFFCURVE",
"250 676 CURVE SMOOTH",
"142 676 OFFCURVE",
"74 597.333 OFFCURVE",
"74 488 CURVE SMOOTH",
"74 454 OFFCURVE",
"80 420.667 OFFCURVE",
"92 388 CURVE SMOOTH",
"98 372.667 OFFCURVE",
"112.333 342 OFFCURVE",
"135 296 CURVE",
"126.333 285.333 OFFCURVE",
"119.333 277.333 OFFCURVE",
"114 272 CURVE",
"51.333 202.667 OFFCURVE",
"20 146.667 OFFCURVE",
"20 104 CURVE SMOOTH",
"20 60.667 OFFCURVE",
"36.667 27.667 OFFCURVE",
"70 5 CURVE SMOOTH",
"98 -13.667 OFFCURVE",
"135 -23 OFFCURVE",
"181 -23 CURVE SMOOTH",
"240.333 -23 OFFCURVE",
"309.667 -6 OFFCURVE",
"389 28 CURVE",
"393 27.333 OFFCURVE",
"411 16.667 OFFCURVE",
"443 -4 CURVE SMOOTH",
"473 -23.333 OFFCURVE",
"502 -33 OFFCURVE",
"530 -33 CURVE SMOOTH",
"541.333 -33 OFFCURVE",
"554.333 -29.667 OFFCURVE",
"569 -23 CURVE SMOOTH",
"586.333 -15 OFFCURVE",
"595 -6.333 OFFCURVE",
"595 3 CURVE SMOOTH"
);
},
{
closed = 1;
nodes = (
"333 529.333 OFFCURVE",
"314 486 OFFCURVE",
"276 436 CURVE SMOOTH",
"244 394.667 OFFCURVE",
"209.333 360.667 OFFCURVE",
"172 334 CURVE",
"159.333 348 OFFCURVE",
"147.667 373 OFFCURVE",
"137 409 CURVE SMOOTH",
"127 442.333 OFFCURVE",
"122 469.667 OFFCURVE",
"122 491 CURVE SMOOTH",
"122 565.667 OFFCURVE",
"184.667 641 OFFCURVE",
"258 641 CURVE SMOOTH",
"302 641 OFFCURVE",
"333 610 OFFCURVE",
"333 566 CURVE SMOOTH"
);
},
{
closed = 1;
nodes = (
"336 57.333 OFFCURVE",
"310 46.667 OFFCURVE",
"262 36 CURVE SMOOTH",
"220 26 OFFCURVE",
"189.333 21 OFFCURVE",
"170 21 CURVE SMOOTH",
"142 21 OFFCURVE",
"121.667 24.333 OFFCURVE",
"109 31 CURVE",
"90.333 39.667 OFFCURVE",
"81 56.667 OFFCURVE",
"81 82 CURVE SMOOTH",
"81 132 OFFCURVE",
"109 187.333 OFFCURVE",
"165 248 CURVE",
"221 178 OFFCURVE",
"279.333 118 OFFCURVE",
"340 68 CURVE"
);
}
);
userData = {
assembly = "NPUSHB[ ]\011/* 54 values pushed */
1 87 87 64 88 0 77 71 58 44 35 8 75 60 52 32 18 0 46 5 50 38 5 50 79 5 14 67 4 22 61 4 28 55 7 4 48 7 42 64 7 25 83 6 10 25 3 10 1 4 1 1 14 70 
SROUND[ ]\011/* SuperRound */
MDAP[1]\011/* MoveDirectAbsPt */
SHZ[1]\011/* ShiftZoneByLastPoint */
RTG[ ]\011/* RoundToGrid */
SVTCA[0]\011/* SetFreedomAndProjectionVectorToAxis */
MIAP[1]\011/* MoveIndirectAbsPt */
MIAP[1]\011/* MoveIndirectAbsPt */
MIAP[1]\011/* MoveIndirectAbsPt */
SRP0[ ]\011/* SetRefPoint0 */
MIRP[11101]\011/* MoveIndirectRelPt */
SRP0[ ]\011/* SetRefPoint0 */
MIRP[11101]\011/* MoveIndirectRelPt */
MDAP[1]\011/* MoveDirectAbsPt */
MIRP[11101]\011/* MoveIndirectRelPt */
SRP0[ ]\011/* SetRefPoint0 */
MIRP[11101]\011/* MoveIndirectRelPt */
SVTCA[1]\011/* SetFreedomAndProjectionVectorToAxis */
MDAP[1]\011/* MoveDirectAbsPt */
MIRP[11101]\011/* MoveIndirectRelPt */
MDAP[1]\011/* MoveDirectAbsPt */
MIRP[11101]\011/* MoveIndirectRelPt */
MDAP[1]\011/* MoveDirectAbsPt */
MIRP[11101]\011/* MoveIndirectRelPt */
MDAP[1]\011/* MoveDirectAbsPt */
MIRP[11101]\011/* MoveIndirectRelPt */
SRP0[ ]\011/* SetRefPoint0 */
MIRP[11101]\011/* MoveIndirectRelPt */
MDAP[0]\011/* MoveDirectAbsPt */
MDAP[0]\011/* MoveDirectAbsPt */
MDAP[0]\011/* MoveDirectAbsPt */
MDAP[0]\011/* MoveDirectAbsPt */
MDAP[0]\011/* MoveDirectAbsPt */
MDAP[0]\011/* MoveDirectAbsPt */
SVTCA[0]\011/* SetFreedomAndProjectionVectorToAxis */
MDAP[0]\011/* MoveDirectAbsPt */
MDAP[0]\011/* MoveDirectAbsPt */
MDAP[0]\011/* MoveDirectAbsPt */
MDAP[0]\011/* MoveDirectAbsPt */
MDAP[0]\011/* MoveDirectAbsPt */
MDAP[0]\011/* MoveDirectAbsPt */
IUP[1]\011/* InterpolateUntPts */
IUP[0]\011/* InterpolateUntPts */
SVTCA[1]\011/* SetFreedomAndProjectionVectorToAxis */
MD[0]\011/* MeasureDistance */
ROUND[00]\011/* Round */
PUSHW[ ]\011/* 2 values pushed */
14 87 
MD[0]\011/* MeasureDistance */
ROUND[00]\011/* Round */
SUB[ ]\011/* Subtract */
PUSHB[ ]\011/* 1 value pushed */
64 
GT[ ]\011/* GreaterThan */
IF[ ]\011/* If */
SHPIX[ ]\011/* ShiftZoneByPixel */
SRP1[ ]\011/* SetRefPoint1 */
SHZ[1]\011/* ShiftZoneByLastPoint */
PUSHW[ ]\011/* 2 values pushed */
87 -64 
SHPIX[ ]\011/* ShiftZoneByPixel */
EIF[ ]\011/* EndIf */";
};
width = 615;
}
);
note = ampersand;
unicode = 0026;
},
{
glyphname = quotesingle;
lastChange = "2019-03-01 18:48:01 +0000";
layers = (
{
layerId = "93C069E7-FFAA-4B97-8A94-34C303BF132C";
paths = (
{
closed = 1;
nodes = (
"91 680.333 OFFCURVE",
"76.667 686 OFFCURVE",
"48 686 CURVE SMOOTH",
"43.333 686 OFFCURVE",
"39.667 685.333 OFFCURVE",
"37 684 CURVE",
"32.333 682.667 OFFCURVE",
"28 671.667 OFFCURVE",
"24 651 CURVE SMOOTH",
"21.333 634.333 OFFCURVE",
"20 621 OFFCURVE",
"20 611 CURVE SMOOTH",
"20 603 OFFCURVE",
"20.667 560.667 OFFCURVE",
"22 484 CURVE",
"25.333 477.333 OFFCURVE",
"33 474 OFFCURVE",
"45 474 CURVE SMOOTH",
"64.333 474 OFFCURVE",
"74 486.667 OFFCURVE",
"74 512 CURVE SMOOTH",
"74 520.667 OFFCURVE",
"73.5 533.5 OFFCURVE",
"72.5 550.5 CURVE SMOOTH",
"71.5 567.5 OFFCURVE",
"71 580.333 OFFCURVE",
"71 589 CURVE SMOOTH",
"71 613.667 OFFCURVE",
"73 631.667 OFFCURVE",
"77 643 CURVE SMOOTH",
"77.667 645 OFFCURVE",
"80.167 649.5 OFFCURVE",
"84.5 656.5 CURVE SMOOTH",
"88.833 663.5 OFFCURVE",
"91 667.667 OFFCURVE",
"91 669 CURVE SMOOTH"
);
}
);
userData = {
assembly = "NPUSHB[ ]\011/* 18 values pushed */
1 22 22 64 23 0 14 5 0 8 4 12 10 20 3 1 14 70 
SROUND[ ]\011/* SuperRound */
MDAP[1]\011/* MoveDirectAbsPt */
SHZ[1]\011/* ShiftZoneByLastPoint */
RTG[ ]\011/* RoundToGrid */
SVTCA[0]\011/* SetFreedomAndProjectionVectorToAxis */
MIAP[1]\011/* MoveIndirectAbsPt */
MDAP[1]\011/* MoveDirectAbsPt */
SVTCA[1]\011/* SetFreedomAndProjectionVectorToAxis */
MDAP[1]\011/* MoveDirectAbsPt */
MIRP[11101]\011/* MoveIndirectRelPt */
MDAP[0]\011/* MoveDirectAbsPt */
MDAP[0]\011/* MoveDirectAbsPt */
MDAP[0]\011/* MoveDirectAbsPt */
SVTCA[0]\011/* SetFreedomAndProjectionVectorToAxis */
IUP[1]\011/* InterpolateUntPts */
IUP[0]\011/* InterpolateUntPts */
SVTCA[1]\011/* SetFreedomAndProjectionVectorToAxis */
MD[0]\011/* MeasureDistance */
ROUND[00]\011/* Round */
PUSHW[ ]\011/* 2 values pushed */
14 22 
MD[0]\011/* MeasureDistance */
ROUND[00]\011/* Round */
SUB[ ]\011/* Subtract */
PUSHB[ ]\011/* 1 value pushed */
64 
GT[ ]\011/* GreaterThan */
IF[ ]\011/* If */
SHPIX[ ]\011/* ShiftZoneByPixel */
SRP1[ ]\011/* SetRefPoint1 */
SHZ[1]\011/* ShiftZoneByLastPoint */
PUSHW[ ]\011/* 2 values pushed */
22 -64 
SHPIX[ ]\011/* ShiftZoneByPixel */
EIF[ ]\011/* EndIf */";
};
width = 111;
}
);
note = quotesingle;
unicode = 0027;
},
{
glyphname = parenleft;
lastChange = "2019-03-01 18:48:01 +0000";
layers = (
{
layerId = "93C069E7-FFAA-4B97-8A94-34C303BF132C";
paths = (
{
closed = 1;
nodes = (
"145 720.667 OFFCURVE",
"135 737 OFFCURVE",
"115 737 CURVE SMOOTH",
"111 737 OFFCURVE",
"107.667 735.333 OFFCURVE",
"105 732 CURVE",
"80.333 706 OFFCURVE",
"59.333 644.667 OFFCURVE",
"42 548 CURVE SMOOTH",
"27.333 468 OFFCURVE",
"20 400.333 OFFCURVE",
"20 345 CURVE SMOOTH",
"20 227.667 OFFCURVE",
"34.333 121 OFFCURVE",
"63 25 CURVE SMOOTH",
"77.667 -25.667 OFFCURVE",
"91 -51 OFFCURVE",
"103 -51 CURVE SMOOTH",
"127 -51 OFFCURVE",
"139 -41.667 OFFCURVE",
"139 -23 CURVE SMOOTH",
"139 -21 OFFCURVE",
"133.667 -7.667 OFFCURVE",
"123 17 CURVE SMOOTH",
"112.333 41.667 OFFCURVE",
"106.333 56.333 OFFCURVE",
"105 61 CURVE SMOOTH",
"83.667 128.333 OFFCURVE",
"73 237 OFFCURVE",
"73 387 CURVE SMOOTH",
"73 434.333 OFFCURVE",
"76.667 489 OFFCURVE",
"84 551 CURVE SMOOTH",
"94.667 639.667 OFFCURVE",
"109.333 684 OFFCURVE",
"128 684 CURVE SMOOTH",
"129.333 684 OFFCURVE",
"130.5 683.5 OFFCURVE",
"131.5 682.5 CURVE SMOOTH",
"132.5 681.5 OFFCURVE",
"134 681 OFFCURVE",
"136 681 CURVE SMOOTH",
"140 681 OFFCURVE",
"143 683.333 OFFCURVE",
"145 688 CURVE"
);
}
);
userData = {
assembly = "NPUSHB[ ]\011/* 20 values pushed */
1 28 28 64 29 0 2 14 0 9 4 20 5 6 26 26 16 1 20 70 
SROUND[ ]\011/* SuperRound */
MDAP[1]\011/* MoveDirectAbsPt */
SHZ[1]\011/* ShiftZoneByLastPoint */
RTG[ ]\011/* RoundToGrid */
SVTCA[0]\011/* SetFreedomAndProjectionVectorToAxis */
MDAP[1]\011/* MoveDirectAbsPt */
MDAP[1]\011/* MoveDirectAbsPt */
SRP0[ ]\011/* SetRefPoint0 */
MIRP[11101]\011/* MoveIndirectRelPt */
SVTCA[1]\011/* SetFreedomAndProjectionVectorToAxis */
MDAP[1]\011/* MoveDirectAbsPt */
MIRP[11101]\011/* MoveIndirectRelPt */
MDAP[0]\011/* MoveDirectAbsPt */
MDAP[0]\011/* MoveDirectAbsPt */
SVTCA[0]\011/* SetFreedomAndProjectionVectorToAxis */
MDAP[0]\011/* MoveDirectAbsPt */
IUP[1]\011/* InterpolateUntPts */
IUP[0]\011/* InterpolateUntPts */
SVTCA[1]\011/* SetFreedomAndProjectionVectorToAxis */
MD[0]\011/* MeasureDistance */
ROUND[00]\011/* Round */
PUSHW[ ]\011/* 2 values pushed */
20 28 
MD[0]\011/* MeasureDistance */
ROUND[00]\011/* Round */
SUB[ ]\011/* Subtract */
PUSHB[ ]\011/* 1 value pushed */
64 
GT[ ]\011/* GreaterThan */
IF[ ]\011/* If */
SHPIX[ ]\011/* ShiftZoneByPixel */
SRP1[ ]\011/* SetRefPoint1 */
SHZ[1]\011/* ShiftZoneByLastPoint */
PUSHW[ ]\011/* 2 values pushed */
28 -64 
SHPIX[ ]\011/* ShiftZoneByPixel */
EIF[ ]\011/* EndIf */";
};
width = 195;
}
);
note = parenleft;
unicode = 0028;
},
{
glyphname = parenright;
lastChange = "2019-03-01 18:48:01 +0000";
layers = (
{
layerId = "93C069E7-FFAA-4B97-8A94-34C303BF132C";
paths = (
{
closed = 1;
nodes = (
"186 394 OFFCURVE",
"180 463 OFFCURVE",
"168 535 CURVE SMOOTH",
"152 628.333 OFFCURVE",
"129.667 691 OFFCURVE",
"101 723 CURVE",
"97.667 724.333 OFFCURVE",
"92.333 725 OFFCURVE",
"85 725 CURVE SMOOTH",
"71.667 725 OFFCURVE",
"50 710.333 OFFCURVE",
"50 697 CURVE SMOOTH",
"50 680 LINE",
"60 677.333 OFFCURVE",
"68.333 672 OFFCURVE",
"75 664 CURVE SMOOTH",
"93.667 640.667 OFFCURVE",
"107.667 581 OFFCURVE",
"117 485 CURVE SMOOTH",
"124.333 417 OFFCURVE",
"128 350.667 OFFCURVE",
"128 286 CURVE SMOOTH",
"128 116 OFFCURVE",
"102 22.333 OFFCURVE",
"50 5 CURVE",
"50 -13 LINE",
"75.333 -24.333 OFFCURVE",
"91 -30 OFFCURVE",
"97 -30 CURVE SMOOTH",
"108.333 -30 OFFCURVE",
"121 -12.333 OFFCURVE",
"135 23 CURVE SMOOTH",
"169 109.667 OFFCURVE",
"186 211.333 OFFCURVE",
"186 328 CURVE SMOOTH"
);
}
);
userData = {
assembly = "NPUSHB[ ]\011/* 19 values pushed */
1 25 25 64 26 0 16 15 7 6 9 5 0 19 4 1 1 6 70 
SROUND[ ]\011/* SuperRound */
MDAP[1]\011/* MoveDirectAbsPt */
SHZ[1]\011/* ShiftZoneByLastPoint */
RTG[ ]\011/* RoundToGrid */
SVTCA[0]\011/* SetFreedomAndProjectionVectorToAxis */
MIAP[1]\011/* MoveIndirectAbsPt */
MDAP[1]\011/* MoveDirectAbsPt */
SVTCA[1]\011/* SetFreedomAndProjectionVectorToAxis */
MDAP[1]\011/* MoveDirectAbsPt */
MIRP[11101]\011/* MoveIndirectRelPt */
MDAP[0]\011/* MoveDirectAbsPt */
MDAP[0]\011/* MoveDirectAbsPt */
MDAP[0]\011/* MoveDirectAbsPt */
MDAP[0]\011/* MoveDirectAbsPt */
SVTCA[0]\011/* SetFreedomAndProjectionVectorToAxis */
IUP[1]\011/* InterpolateUntPts */
IUP[0]\011/* InterpolateUntPts */
SVTCA[1]\011/* SetFreedomAndProjectionVectorToAxis */
MD[0]\011/* MeasureDistance */
ROUND[00]\011/* Round */
PUSHW[ ]\011/* 2 values pushed */
6 25 
MD[0]\011/* MeasureDistance */
ROUND[00]\011/* Round */
SUB[ ]\011/* Subtract */
PUSHB[ ]\011/* 1 value pushed */
64 
GT[ ]\011/* GreaterThan */
IF[ ]\011/* If */
SHPIX[ ]\011/* ShiftZoneByPixel */
SRP1[ ]\011/* SetRefPoint1 */
SHZ[1]\011/* ShiftZoneByLastPoint */
PUSHW[ ]\011/* 2 values pushed */
25 -64 
SHPIX[ ]\011/* ShiftZoneByPixel */
EIF[ ]\011/* EndIf */";
};
width = 206;
}
);
note = parenright;
unicode = 0029;
},
{
glyphname = asterisk;
lastChange = "2019-03-01 18:48:01 +0000";
layers = (
{
layerId = "93C069E7-FFAA-4B97-8A94-34C303BF132C";
paths = (
{
closed = 1;
nodes = (
"278 657 OFFCURVE",
"267.667 691 OFFCURVE",
"249 691 CURVE SMOOTH",
"245 691 OFFCURVE",
"228 680.667 OFFCURVE",
"198 660 CURVE SMOOTH",
"180 647.333 OFFCURVE",
"162 634.667 OFFCURVE",
"144 622 CURVE",
"134.667 642.667 OFFCURVE",
"125 663 OFFCURVE",
"115 683 CURVE",
"101.667 713 OFFCURVE",
"89 728 OFFCURVE",
"77 728 CURVE SMOOTH",
"62.333 728 OFFCURVE",
"35 706.667 OFFCURVE",
"35 688 CURVE SMOOTH",
"35 684.667 OFFCURVE",
"40.667 675.333 OFFCURVE",
"52 660 CURVE SMOOTH",
"65.333 641.333 OFFCURVE",
"72 631.333 OFFCURVE",
"72 630 CURVE",
"39.333 630 OFFCURVE",
"18.667 629.333 OFFCURVE",
"10 628 CURVE",
"-8.667 622 OFFCURVE",
"-21.333 606.667 OFFCURVE",
"-28 582 CURVE",
"-21.333 575.333 OFFCURVE",
"-6.333 570.667 OFFCURVE",
"17 568 CURVE SMOOTH",
"40.333 565.333 OFFCURVE",
"54.667 560 OFFCURVE",
"60 552 CURVE",
"23.333 516 OFFCURVE",
"5 496 OFFCURVE",
"5 492 CURVE SMOOTH",
"5 473 LINE",
"17.667 465.667 OFFCURVE",
"27.667 462 OFFCURVE",
"35 462 CURVE SMOOTH",
"47 462 OFFCURVE",
"61.333 469.333 OFFCURVE",
"78 484 CURVE SMOOTH",
"90.667 495.333 OFFCURVE",
"103 506.333 OFFCURVE",
"115 517 CURVE",
"125 502.333 OFFCURVE",
"134.667 487.333 OFFCURVE",
"144 472 CURVE SMOOTH",
"157.333 450.667 OFFCURVE",
"169.333 440 OFFCURVE",
"180 440 CURVE SMOOTH",
"182.667 440 OFFCURVE",
"193.667 444.667 OFFCURVE",
"213 454 CURVE",
"213 470 LINE",
"195.667 492 OFFCURVE",
"187 507 OFFCURVE",
"187 515 CURVE",
"187.667 518.333 OFFCURVE",
"188.667 521 OFFCURVE",
"190 523 CURVE",
"204.667 509.667 OFFCURVE",
"224.333 503 OFFCURVE",
"249 503 CURVE SMOOTH",
"256.333 503 OFFCURVE",
"261.333 505 OFFCURVE",
"264 509 CURVE",
"264 511.667 OFFCURVE",
"265 515.667 OFFCURVE",
"267 521 CURVE SMOOTH",
"269 526.333 OFFCURVE",
"270 530.667 OFFCURVE",
"270 534 CURVE SMOOTH",
"270 546 OFFCURVE",
"263 556.333 OFFCURVE",
"249 565 CURVE SMOOTH",
"227 579.667 OFFCURVE",
"215.667 587.667 OFFCURVE",
"215 589 CURVE",
"243 606.333 OFFCURVE",
"264 619.333 OFFCURVE",
"278 628 CURVE",
"278 631.333 OFFCURVE",
"278 633 OFFCURVE",
"278 633 CURVE"
);
}
);
userData = {
assembly = "PUSHW[ ]\011/* 1 value pushed */
20 
CALL[ ]\011/* CallFunction */
SVTCA[0]\011/* SetFreedomAndProjectionVectorToAxis */
PUSHW[ ]\011/* 1 value pushed */
49 
MDAP[1]\011/* MoveDirectAbsPt */
PUSHW[ ]\011/* 1 value pushed */
22 
MDAP[1]\011/* MoveDirectAbsPt */
PUSHW[ ]\011/* 3 values pushed */
57 13 23 
CALL[ ]\011/* CallFunction */
PUSHW[ ]\011/* 3 values pushed */
17 13 57 
SRP1[ ]\011/* SetRefPoint1 */
SRP2[ ]\011/* SetRefPoint2 */
IP[ ]\011/* InterpolatePts */
IUP[0]\011/* InterpolateUntPts */
IUP[1]\011/* InterpolateUntPts */";
};
width = 257;
}
);
note = asterisk;
unicode = 002A;
},
{
glyphname = plus;
lastChange = "2019-03-01 18:48:01 +0000";
layers = (
{
layerId = "93C069E7-FFAA-4B97-8A94-34C303BF132C";
paths = (
{
closed = 1;
nodes = (
"500 364.667 OFFCURVE",
"497.667 368.333 OFFCURVE",
"493 371 CURVE",
"467.667 365 OFFCURVE",
"447.333 362 OFFCURVE",
"432 362 CURVE SMOOTH",
"278 362 LINE",
"278 443 LINE SMOOTH",
"278 455 OFFCURVE",
"280.667 473 OFFCURVE",
"286 497 CURVE SMOOTH",
"291.333 521 OFFCURVE",
"294 539 OFFCURVE",
"294 551 CURVE SMOOTH",
"294 564.333 OFFCURVE",
"266.667 575 OFFCURVE",
"252 575 CURVE SMOOTH",
"244 575 OFFCURVE",
"235.667 572.667 OFFCURVE",
"227 568 CURVE",
"227 362 LINE",
"152 362 LINE SMOOTH",
"140 362 OFFCURVE",
"122.333 363.333 OFFCURVE",
"99 366 CURVE SMOOTH",
"75.667 368.667 OFFCURVE",
"58 370 OFFCURVE",
"46 370 CURVE SMOOTH",
"32.667 370 OFFCURVE",
"20 350.667 OFFCURVE",
"20 336 CURVE SMOOTH",
"20 328 OFFCURVE",
"22.333 319.667 OFFCURVE",
"27 311 CURVE",
"227 311 LINE",
"227 141 LINE SMOOTH",
"227 109.667 OFFCURVE",
"243.333 94 OFFCURVE",
"276 94 CURVE SMOOTH",
"280 94 OFFCURVE",
"283.667 96.667 OFFCURVE",
"287 102 CURVE",
"281 127.333 OFFCURVE",
"278 147.333 OFFCURVE",
"278 162 CURVE SMOOTH",
"278 311 LINE",
"454 311 LINE SMOOTH",
"484.667 311 OFFCURVE",
"500 327.333 OFFCURVE",
"500 360 CURVE SMOOTH"
);
}
);
userData = {
assembly = "NPUSHB[ ]\011/* 47 values pushed */
1 36 36 64 37 0 6 14 13 10 0 5 10 27 5 10 31 30 4 3 3 4 22 21 11 3 10 34 17 6 2 12 11 3 3 2 6 32 31 21 3 20 24 8 1 14 70 
SROUND[ ]\011/* SuperRound */
MDAP[1]\011/* MoveDirectAbsPt */
SHZ[1]\011/* ShiftZoneByLastPoint */
RTG[ ]\011/* RoundToGrid */
SVTCA[0]\011/* SetFreedomAndProjectionVectorToAxis */
MDAP[1]\011/* MoveDirectAbsPt */
MDAP[1]\011/* MoveDirectAbsPt */
MDAP[1]\011/* MoveDirectAbsPt */
SLOOP[ ]\011/* SetLoopVariable */
ALIGNRP[ ]\011/* AlignRelativePt */
MIRP[11101]\011/* MoveIndirectRelPt */
SLOOP[ ]\011/* SetLoopVariable */
ALIGNRP[ ]\011/* AlignRelativePt */
SRP0[ ]\011/* SetRefPoint0 */
MIRP[11101]\011/* MoveIndirectRelPt */
ALIGNRP[ ]\011/* AlignRelativePt */
SVTCA[1]\011/* SetFreedomAndProjectionVectorToAxis */
MDAP[1]\011/* MoveDirectAbsPt */
SLOOP[ ]\011/* SetLoopVariable */
ALIGNRP[ ]\011/* AlignRelativePt */
MIRP[11101]\011/* MoveIndirectRelPt */
SLOOP[ ]\011/* SetLoopVariable */
ALIGNRP[ ]\011/* AlignRelativePt */
SRP0[ ]\011/* SetRefPoint0 */
MIRP[11101]\011/* MoveIndirectRelPt */
SRP0[ ]\011/* SetRefPoint0 */
MIRP[11101]\011/* MoveIndirectRelPt */
SRP0[ ]\011/* SetRefPoint0 */
MIRP[11101]\011/* MoveIndirectRelPt */
MDAP[0]\011/* MoveDirectAbsPt */
SVTCA[0]\011/* SetFreedomAndProjectionVectorToAxis */
IUP[1]\011/* InterpolateUntPts */
IUP[0]\011/* InterpolateUntPts */
SVTCA[1]\011/* SetFreedomAndProjectionVectorToAxis */
MD[0]\011/* MeasureDistance */
ROUND[00]\011/* Round */
PUSHW[ ]\011/* 2 values pushed */
14 36 
MD[0]\011/* MeasureDistance */
ROUND[00]\011/* Round */
SUB[ ]\011/* Subtract */
PUSHB[ ]\011/* 1 value pushed */
64 
GT[ ]\011/* GreaterThan */
IF[ ]\011/* If */
SHPIX[ ]\011/* ShiftZoneByPixel */
SRP1[ ]\011/* SetRefPoint1 */
SHZ[1]\011/* ShiftZoneByLastPoint */
PUSHW[ ]\011/* 2 values pushed */
36 -64 
SHPIX[ ]\011/* ShiftZoneByPixel */
EIF[ ]\011/* EndIf */";
};
width = 520;
}
);
note = plus;
unicode = 002B;
},
{
glyphname = comma;
lastChange = "2019-03-01 18:48:01 +0000";
layers = (
{
layerId = "93C069E7-FFAA-4B97-8A94-34C303BF132C";
paths = (
{
closed = 1;
nodes = (
"30 30.333 OFFCURVE",
"42.333 24.667 OFFCURVE",
"65 10 CURVE SMOOTH",
"87.667 -4.667 OFFCURVE",
"100.667 -39.333 OFFCURVE",
"90 -66 CURVE SMOOTH",
"83.333 -82 OFFCURVE",
"73.833 -94.333 OFFCURVE",
"61.5 -103 CURVE SMOOTH",
"49.167 -111.667 OFFCURVE",
"37.333 -121 OFFCURVE",
"26 -131 CURVE SMOOTH",
"7.333 -147 OFFCURVE",
"10.667 -170 OFFCURVE",
"32 -170 CURVE SMOOTH",
"58.667 -170 OFFCURVE",
"86.333 -144.667 OFFCURVE",
"109 -106 CURVE SMOOTH",
"134.333 -63.333 OFFCURVE",
"133.333 -27 OFFCURVE",
"124 29 CURVE SMOOTH",
"117.333 65 OFFCURVE",
"97 79 OFFCURVE",
"73 79 CURVE SMOOTH",
"37 79 OFFCURVE",
"30 61 OFFCURVE",
"30 45 CURVE SMOOTH"
);
}
);
userData = {
assembly = "PUSHW[ ]\011/* 1 value pushed */
20 
CALL[ ]\011/* CallFunction */
SVTCA[0]\011/* SetFreedomAndProjectionVectorToAxis */
PUSHW[ ]\011/* 1 value pushed */
12 
MDAP[1]\011/* MoveDirectAbsPt */
PUSHW[ ]\011/* 1 value pushed */
3 
MDAP[1]\011/* MoveDirectAbsPt */
IUP[0]\011/* InterpolateUntPts */
IUP[1]\011/* InterpolateUntPts */";
};
width = 170;
}
);
note = comma;
unicode = 002C;
},
{
glyphname = hyphen;
lastChange = "2019-03-01 18:48:01 +0000";
layers = (
{
layerId = "93C069E7-FFAA-4B97-8A94-34C303BF132C";
paths = (
{
closed = 1;
nodes = (
"264 258 LINE",
"258 259.333 OFFCURVE",
"254 264.333 OFFCURVE",
"252 273 CURVE SMOOTH",
"249.333 284.333 OFFCURVE",
"247.667 290.667 OFFCURVE",
"247 292 CURVE",
"241 301.333 OFFCURVE",
"225.333 306 OFFCURVE",
"200 306 CURVE SMOOTH",
"186.667 306 OFFCURVE",
"166.667 304.833 OFFCURVE",
"140 302.5 CURVE SMOOTH",
"113.333 300.167 OFFCURVE",
"93.333 299 OFFCURVE",
"80 299 CURVE SMOOTH",
"73.333 299 OFFCURVE",
"64.833 301.167 OFFCURVE",
"54.5 305.5 CURVE SMOOTH",
"44.167 309.833 OFFCURVE",
"36.667 312 OFFCURVE",
"32 312 CURVE SMOOTH",
"28 312 OFFCURVE",
"24 309.333 OFFCURVE",
"20 304 CURVE",
"29.333 269.333 OFFCURVE",
"67 252 OFFCURVE",
"133 252 CURVE SMOOTH",
"140.333 252 OFFCURVE",
"151.833 252.667 OFFCURVE",
"167.5 254 CURVE SMOOTH",
"183.167 255.333 OFFCURVE",
"195 256 OFFCURVE",
"203 256 CURVE SMOOTH",
"209 256 OFFCURVE",
"217.833 253.833 OFFCURVE",
"229.5 249.5 CURVE SMOOTH",
"241.167 245.167 OFFCURVE",
"250 243 OFFCURVE",
"256 243 CURVE SMOOTH",
"261.333 243 OFFCURVE",
"264 244.333 OFFCURVE",
"264 247 CURVE SMOOTH"
);
}
);
userData = {
assembly = "NPUSHB[ ]\011/* 20 values pushed */
1 25 25 64 26 0 24 10 0 5 6 18 15 6 8 12 2 1 10 70 
SROUND[ ]\011/* SuperRound */
MDAP[1]\011/* MoveDirectAbsPt */
SHZ[1]\011/* ShiftZoneByLastPoint */
RTG[ ]\011/* RoundToGrid */
SVTCA[0]\011/* SetFreedomAndProjectionVectorToAxis */
MDAP[1]\011/* MoveDirectAbsPt */
MDAP[1]\011/* MoveDirectAbsPt */
MDAP[1]\011/* MoveDirectAbsPt */
MIRP[11101]\011/* MoveIndirectRelPt */
MDAP[1]\011/* MoveDirectAbsPt */
MIRP[11101]\011/* MoveIndirectRelPt */
SVTCA[1]\011/* SetFreedomAndProjectionVectorToAxis */
MDAP[0]\011/* MoveDirectAbsPt */
MDAP[0]\011/* MoveDirectAbsPt */
MDAP[0]\011/* MoveDirectAbsPt */
SVTCA[0]\011/* SetFreedomAndProjectionVectorToAxis */
IUP[1]\011/* InterpolateUntPts */
IUP[0]\011/* InterpolateUntPts */
SVTCA[1]\011/* SetFreedomAndProjectionVectorToAxis */
MD[0]\011/* MeasureDistance */
ROUND[00]\011/* Round */
PUSHW[ ]\011/* 2 values pushed */
10 25 
MD[0]\011/* MeasureDistance */
ROUND[00]\011/* Round */
SUB[ ]\011/* Subtract */
PUSHB[ ]\011/* 1 value pushed */
64 
GT[ ]\011/* GreaterThan */
IF[ ]\011/* If */
SHPIX[ ]\011/* ShiftZoneByPixel */
SRP1[ ]\011/* SetRefPoint1 */
SHZ[1]\011/* ShiftZoneByLastPoint */
PUSHW[ ]\011/* 2 values pushed */
25 -64 
SHPIX[ ]\011/* ShiftZoneByPixel */
EIF[ ]\011/* EndIf */";
};
width = 284;
}
);
note = hyphen;
unicode = "002D,2010";
},
{
glyphname = period;
lastChange = "2019-03-01 18:48:01 +0000";
layers = (
{
layerId = "93C069E7-FFAA-4B97-8A94-34C303BF132C";
paths = (
{
closed = 1;
nodes = (
"113 46.333 OFFCURVE",
"81.667 63 OFFCURVE",
"55 63 CURVE SMOOTH",
"31.667 63 OFFCURVE",
"20 51.667 OFFCURVE",
"20 29 CURVE SMOOTH",
"20 7.667 OFFCURVE",
"40.333 -11 OFFCURVE",
"63 -11 CURVE SMOOTH",
"73.667 -11 OFFCURVE",
"84 -8.333 OFFCURVE",
"94 -3 CURVE SMOOTH",
"106.667 3.667 OFFCURVE",
"113 11.667 OFFCURVE",
"113 21 CURVE SMOOTH"
);
}
);
userData = {
assembly = "NPUSHB[ ]\011/* 15 values pushed */
1 12 12 64 13 0 0 5 7 9 4 1 1 7 70 
SROUND[ ]\011/* SuperRound */
MDAP[1]\011/* MoveDirectAbsPt */
SHZ[1]\011/* ShiftZoneByLastPoint */
RTG[ ]\011/* RoundToGrid */
SVTCA[0]\011/* SetFreedomAndProjectionVectorToAxis */
MIAP[1]\011/* MoveIndirectAbsPt */
MDAP[1]\011/* MoveDirectAbsPt */
SVTCA[1]\011/* SetFreedomAndProjectionVectorToAxis */
MDAP[1]\011/* MoveDirectAbsPt */
MIRP[11101]\011/* MoveIndirectRelPt */
SVTCA[0]\011/* SetFreedomAndProjectionVectorToAxis */
IUP[1]\011/* InterpolateUntPts */
IUP[0]\011/* InterpolateUntPts */
SVTCA[1]\011/* SetFreedomAndProjectionVectorToAxis */
MD[0]\011/* MeasureDistance */
ROUND[00]\011/* Round */
PUSHW[ ]\011/* 2 values pushed */
7 12 
MD[0]\011/* MeasureDistance */
ROUND[00]\011/* Round */
SUB[ ]\011/* Subtract */
PUSHB[ ]\011/* 1 value pushed */
64 
GT[ ]\011/* GreaterThan */
IF[ ]\011/* If */
SHPIX[ ]\011/* ShiftZoneByPixel */
SRP1[ ]\011/* SetRefPoint1 */
SHZ[1]\011/* ShiftZoneByLastPoint */
PUSHW[ ]\011/* 2 values pushed */
12 -64 
SHPIX[ ]\011/* ShiftZoneByPixel */
EIF[ ]\011/* EndIf */";
};
width = 133;
}
);
note = period;
unicode = 002E;
},
{
glyphname = slash;
lastChange = "2019-03-01 18:48:01 +0000";
layers = (
{
layerId = "93C069E7-FFAA-4B97-8A94-34C303BF132C";
paths = (
{
closed = 1;
nodes = (
"370.333 685.333 OFFCURVE",
"361.667 690 OFFCURVE",
"353 690 CURVE SMOOTH",
"331.667 690 OFFCURVE",
"305 674.667 OFFCURVE",
"297 656 CURVE",
"291 634 OFFCURVE",
"287.667 617 OFFCURVE",
"287 605 CURVE",
"281.667 583.667 OFFCURVE",
"271.667 554.667 OFFCURVE",
"257 518 CURVE SMOOTH",
"225 436.667 OFFCURVE",
"192.667 355.333 OFFCURVE",
"160 274 CURVE SMOOTH",
"120 178 OFFCURVE",
"81.333 100 OFFCURVE",
"44 40 CURVE",
"34.667 28 OFFCURVE",
"20 12 OFFCURVE",
"20 0 CURVE SMOOTH",
"20 -10.667 OFFCURVE",
"26.333 -16 OFFCURVE",
"39 -16 CURVE SMOOTH",
"68.333 -16 OFFCURVE",
"108.333 44.333 OFFCURVE",
"159 165 CURVE SMOOTH",
"346 614 LINE",
"360 642 OFFCURVE",
"371 662.667 OFFCURVE",
"379 676 CURVE"
);
}
);
userData = {
assembly = "NPUSHB[ ]\011/* 15 values pushed */
1 23 23 64 24 0 7 0 21 3 5 1 1 7 70 
SROUND[ ]\011/* SuperRound */
MDAP[1]\011/* MoveDirectAbsPt */
SHZ[1]\011/* ShiftZoneByLastPoint */
RTG[ ]\011/* RoundToGrid */
SVTCA[0]\011/* SetFreedomAndProjectionVectorToAxis */
MIAP[1]\011/* MoveIndirectAbsPt */
MIAP[1]\011/* MoveIndirectAbsPt */
SVTCA[1]\011/* SetFreedomAndProjectionVectorToAxis */
MDAP[0]\011/* MoveDirectAbsPt */
MDAP[0]\011/* MoveDirectAbsPt */
SVTCA[0]\011/* SetFreedomAndProjectionVectorToAxis */
IUP[1]\011/* InterpolateUntPts */
IUP[0]\011/* InterpolateUntPts */
SVTCA[1]\011/* SetFreedomAndProjectionVectorToAxis */
MD[0]\011/* MeasureDistance */
ROUND[00]\011/* Round */
PUSHW[ ]\011/* 2 values pushed */
7 23 
MD[0]\011/* MeasureDistance */
ROUND[00]\011/* Round */
SUB[ ]\011/* Subtract */
PUSHB[ ]\011/* 1 value pushed */
64 
GT[ ]\011/* GreaterThan */
IF[ ]\011/* If */
SHPIX[ ]\011/* ShiftZoneByPixel */
SRP1[ ]\011/* SetRefPoint1 */
SHZ[1]\011/* ShiftZoneByLastPoint */
PUSHW[ ]\011/* 2 values pushed */
23 -64 
SHPIX[ ]\011/* ShiftZoneByPixel */
EIF[ ]\011/* EndIf */";
};
width = 399;
}
);
note = slash;
unicode = 002F;
},
{
glyphname = zero;
lastChange = "2019-03-01 18:48:01 +0000";
layers = (
{
layerId = "93C069E7-FFAA-4B97-8A94-34C303BF132C";
paths = (
{
closed = 1;
nodes = (
"535 418.667 OFFCURVE",
"523.333 475.667 OFFCURVE",
"500 527 CURVE SMOOTH",
"472.667 588.333 OFFCURVE",
"433 629.333 OFFCURVE",
"381 650 CURVE SMOOTH",
"347 664 OFFCURVE",
"324.667 671 OFFCURVE",
"314 671 CURVE SMOOTH",
"279.333 671 OFFCURVE",
"249.667 666.333 OFFCURVE",
"225 657 CURVE SMOOTH",
"165 635.667 OFFCURVE",
"114.667 585 OFFCURVE",
"74 505 CURVE SMOOTH",
"38 433 OFFCURVE",
"20 362 OFFCURVE",
"20 292 CURVE SMOOTH",
"20 210 OFFCURVE",
"40.667 140.667 OFFCURVE",
"82 84 CURVE SMOOTH",
"128 20.667 OFFCURVE",
"190.667 -11 OFFCURVE",
"270 -11 CURVE SMOOTH",
"353.333 -11 OFFCURVE",
"420 31 OFFCURVE",
"470 115 CURVE SMOOTH",
"513.333 186.333 OFFCURVE",
"535 266.667 OFFCURVE",
"535 356 CURVE SMOOTH"
);
},
{
closed = 1;
nodes = (
"486 282 OFFCURVE",
"471 213.667 OFFCURVE",
"441 155 CURVE SMOOTH",
"403.667 81 OFFCURVE",
"349.667 44 OFFCURVE",
"279 44 CURVE SMOOTH",
"183 44 OFFCURVE",
"99 112.667 OFFCURVE",
"79 206 CURVE SMOOTH",
"74.333 226.667 OFFCURVE",
"72 254.333 OFFCURVE",
"72 289 CURVE SMOOTH",
"72 352.333 OFFCURVE",
"84.333 412 OFFCURVE",
"109 468 CURVE SMOOTH",
"136.333 528.667 OFFCURVE",
"175 575 OFFCURVE",
"225 607 CURVE SMOOTH",
"249.667 623 OFFCURVE",
"273.667 631 OFFCURVE",
"297 631 CURVE SMOOTH",
"363.667 631 OFFCURVE",
"413.667 601 OFFCURVE",
"447 541 CURVE SMOOTH",
"473 493 OFFCURVE",
"486 432.667 OFFCURVE",
"486 360 CURVE SMOOTH"
);
}
);
userData = {
assembly = "NPUSHB[ ]\011/* 25 values pushed */
1 39 39 64 40 0 30 4 8 20 4 0 35 6 4 24 7 14 14 3 4 1 1 8 70 
SROUND[ ]\011/* SuperRound */
MDAP[1]\011/* MoveDirectAbsPt */
SHZ[1]\011/* ShiftZoneByLastPoint */
RTG[ ]\011/* RoundToGrid */
SVTCA[0]\011/* SetFreedomAndProjectionVectorToAxis */
MIAP[1]\011/* MoveIndirectAbsPt */
MIAP[1]\011/* MoveIndirectAbsPt */
SRP0[ ]\011/* SetRefPoint0 */
MIRP[11101]\011/* MoveIndirectRelPt */
SRP0[ ]\011/* SetRefPoint0 */
MIRP[11101]\011/* MoveIndirectRelPt */
SVTCA[1]\011/* SetFreedomAndProjectionVectorToAxis */
MDAP[1]\011/* MoveDirectAbsPt */
MIRP[11101]\011/* MoveIndirectRelPt */
MDAP[1]\011/* MoveDirectAbsPt */
MIRP[11101]\011/* MoveIndirectRelPt */
SVTCA[0]\011/* SetFreedomAndProjectionVectorToAxis */
IUP[1]\011/* InterpolateUntPts */
IUP[0]\011/* InterpolateUntPts */
SVTCA[1]\011/* SetFreedomAndProjectionVectorToAxis */
MD[0]\011/* MeasureDistance */
ROUND[00]\011/* Round */
PUSHW[ ]\011/* 2 values pushed */
8 39 
MD[0]\011/* MeasureDistance */
ROUND[00]\011/* Round */
SUB[ ]\011/* Subtract */
PUSHB[ ]\011/* 1 value pushed */
64 
GT[ ]\011/* GreaterThan */
IF[ ]\011/* If */
SHPIX[ ]\011/* ShiftZoneByPixel */
SRP1[ ]\011/* SetRefPoint1 */
SHZ[1]\011/* ShiftZoneByLastPoint */
PUSHW[ ]\011/* 2 values pushed */
39 -64 
SHPIX[ ]\011/* ShiftZoneByPixel */
EIF[ ]\011/* EndIf */";
};
width = 555;
}
);
note = zero;
unicode = 0030;
},
{
glyphname = one;
lastChange = "2019-03-01 18:48:01 +0000";
layers = (
{
layerId = "93C069E7-FFAA-4B97-8A94-34C303BF132C";
paths = (
{
closed = 1;
nodes = (
"132 626.333 OFFCURVE",
"106 676 OFFCURVE",
"86 676 CURVE SMOOTH",
"78.667 676 OFFCURVE",
"69 652 OFFCURVE",
"57 604 CURVE SMOOTH",
"45.667 559.333 OFFCURVE",
"40 529.333 OFFCURVE",
"40 514 CURVE SMOOTH",
"40 490 LINE",
"47.333 484.667 OFFCURVE",
"52.667 480.667 OFFCURVE",
"56 478 CURVE",
"56 29 LINE SMOOTH",
"56 18.333 OFFCURVE",
"58.667 7.333 OFFCURVE",
"64 -4 CURVE",
"80.667 -12.667 OFFCURVE",
"94.333 -17 OFFCURVE",
"105 -17 CURVE SMOOTH",
"116.333 -17 OFFCURVE",
"122 -11.333 OFFCURVE",
"122 0 CURVE SMOOTH",
"122 3.333 OFFCURVE",
"119.667 7.667 OFFCURVE",
"115 13 CURVE SMOOTH",
"110.333 18.333 OFFCURVE",
"107.667 21.667 OFFCURVE",
"107 23 CURVE",
"100.333 35 OFFCURVE",
"97 69.333 OFFCURVE",
"97 126 CURVE SMOOTH",
"97 333 LINE SMOOTH",
"97 378.333 OFFCURVE",
"104.667 445.667 OFFCURVE",
"120 535 CURVE SMOOTH",
"128 579.667 OFFCURVE",
"132 603 OFFCURVE",
"132 605 CURVE SMOOTH"
);
}
);
userData = {
assembly = "NPUSHB[ ]\011/* 22 values pushed */
1 27 27 64 28 0 20 19 10 0 5 4 4 17 16 24 3 12 1 1 19 70 
SROUND[ ]\011/* SuperRound */
MDAP[1]\011/* MoveDirectAbsPt */
SHZ[1]\011/* ShiftZoneByLastPoint */
RTG[ ]\011/* RoundToGrid */
SVTCA[0]\011/* SetFreedomAndProjectionVectorToAxis */
MIAP[1]\011/* MoveIndirectAbsPt */
MIAP[1]\011/* MoveIndirectAbsPt */
SVTCA[1]\011/* SetFreedomAndProjectionVectorToAxis */
MDAP[1]\011/* MoveDirectAbsPt */
ALIGNRP[ ]\011/* AlignRelativePt */
MIRP[11101]\011/* MoveIndirectRelPt */
ALIGNRP[ ]\011/* AlignRelativePt */
MDAP[0]\011/* MoveDirectAbsPt */
MDAP[0]\011/* MoveDirectAbsPt */
MDAP[0]\011/* MoveDirectAbsPt */
MDAP[0]\011/* MoveDirectAbsPt */
SVTCA[0]\011/* SetFreedomAndProjectionVectorToAxis */
IUP[1]\011/* InterpolateUntPts */
IUP[0]\011/* InterpolateUntPts */
SVTCA[1]\011/* SetFreedomAndProjectionVectorToAxis */
MD[0]\011/* MeasureDistance */
ROUND[00]\011/* Round */
PUSHW[ ]\011/* 2 values pushed */
19 27 
MD[0]\011/* MeasureDistance */
ROUND[00]\011/* Round */
SUB[ ]\011/* Subtract */
PUSHB[ ]\011/* 1 value pushed */
64 
GT[ ]\011/* GreaterThan */
IF[ ]\011/* If */
SHPIX[ ]\011/* ShiftZoneByPixel */
SRP1[ ]\011/* SetRefPoint1 */
SHZ[1]\011/* ShiftZoneByLastPoint */
PUSHW[ ]\011/* 2 values pushed */
27 -64 
SHPIX[ ]\011/* ShiftZoneByPixel */
EIF[ ]\011/* EndIf */";
};
width = 172;
}
);
note = one;
unicode = 0031;
},
{
glyphname = two;
lastChange = "2019-03-01 18:48:01 +0000";
layers = (
{
layerId = "93C069E7-FFAA-4B97-8A94-34C303BF132C";
paths = (
{
closed = 1;
nodes = (
"502 59.333 OFFCURVE",
"499.333 69.667 OFFCURVE",
"494 79 CURVE",
"486.667 89.667 OFFCURVE",
"477.667 94.667 OFFCURVE",
"467 94 CURVE",
"124 40 LINE",
"119 39 LINE",
"111 39 OFFCURVE",
"105.333 42 OFFCURVE",
"102 48 CURVE",
"106.667 60 OFFCURVE",
"115 72.667 OFFCURVE",
"127 86 CURVE",
"133 92 OFFCURVE",
"144.333 102.667 OFFCURVE",
"161 118 CURVE SMOOTH",
"240.333 188 OFFCURVE",
"299 247 OFFCURVE",
"337 295 CURVE SMOOTH",
"401 375 OFFCURVE",
"433 448.333 OFFCURVE",
"433 515 CURVE SMOOTH",
"433 599 OFFCURVE",
"359.333 674 OFFCURVE",
"274 674 CURVE SMOOTH",
"238.667 674 OFFCURVE",
"205.667 666 OFFCURVE",
"175 650 CURVE SMOOTH",
"139 632 OFFCURVE",
"105.333 602.667 OFFCURVE",
"74 562 CURVE SMOOTH",
"40 518 OFFCURVE",
"23 477.333 OFFCURVE",
"23 440 CURVE SMOOTH",
"23 432 OFFCURVE",
"51.667 409 OFFCURVE",
"61 409 CURVE SMOOTH",
"73 409 OFFCURVE",
"81.667 424 OFFCURVE",
"87 454 CURVE SMOOTH",
"90.333 474 OFFCURVE",
"93.333 494 OFFCURVE",
"96 514 CURVE",
"114.667 575.333 OFFCURVE",
"200.667 639 OFFCURVE",
"266 639 CURVE SMOOTH",
"328.667 639 OFFCURVE",
"376 593.333 OFFCURVE",
"376 532 CURVE SMOOTH",
"376 473.333 OFFCURVE",
"346.667 401 OFFCURVE",
"288 315 CURVE SMOOTH",
"240.667 245 OFFCURVE",
"188 184 OFFCURVE",
"130 132 CURVE SMOOTH",
"88.667 94.667 OFFCURVE",
"57.667 67 OFFCURVE",
"37 49 CURVE",
"25.667 36.333 OFFCURVE",
"20 24.333 OFFCURVE",
"20 13 CURVE SMOOTH",
"20 -11 OFFCURVE",
"33 -23 OFFCURVE",
"59 -23 CURVE SMOOTH",
"63.667 -23 OFFCURVE",
"75 -20 OFFCURVE",
"93 -14 CURVE SMOOTH",
"115.667 -6.667 OFFCURVE",
"127.667 -2.667 OFFCURVE",
"129 -2 CURVE",
"226.333 24 OFFCURVE",
"321.333 37 OFFCURVE",
"414 37 CURVE SMOOTH",
"436 37 OFFCURVE",
"455.333 34.333 OFFCURVE",
"472 29 CURVE SMOOTH",
"483.333 25.667 OFFCURVE",
"488.667 24 OFFCURVE",
"488 24 CURVE",
"497.333 24 OFFCURVE",
"502 32 OFFCURVE",
"502 48 CURVE SMOOTH"
);
}
);
userData = {
assembly = "NPUSHB[ ]\011/* 29 values pushed */
1 60 60 64 61 0 54 32 6 52 35 14 0 22 5 44 56 6 2 25 7 41 41 3 12 1 1 14 70 
SROUND[ ]\011/* SuperRound */
MDAP[1]\011/* MoveDirectAbsPt */
SHZ[1]\011/* ShiftZoneByLastPoint */
RTG[ ]\011/* RoundToGrid */
SVTCA[0]\011/* SetFreedomAndProjectionVectorToAxis */
MIAP[1]\011/* MoveIndirectAbsPt */
MIAP[1]\011/* MoveIndirectAbsPt */
SRP0[ ]\011/* SetRefPoint0 */
MIRP[11101]\011/* MoveIndirectRelPt */
MDAP[1]\011/* MoveDirectAbsPt */
MIRP[11101]\011/* MoveIndirectRelPt */
SVTCA[1]\011/* SetFreedomAndProjectionVectorToAxis */
MDAP[1]\011/* MoveDirectAbsPt */
MIRP[11101]\011/* MoveIndirectRelPt */
MDAP[0]\011/* MoveDirectAbsPt */
MDAP[0]\011/* MoveDirectAbsPt */
MDAP[0]\011/* MoveDirectAbsPt */
MDAP[0]\011/* MoveDirectAbsPt */
SVTCA[0]\011/* SetFreedomAndProjectionVectorToAxis */
MDAP[0]\011/* MoveDirectAbsPt */
MDAP[0]\011/* MoveDirectAbsPt */
MDAP[0]\011/* MoveDirectAbsPt */
IUP[1]\011/* InterpolateUntPts */
IUP[0]\011/* InterpolateUntPts */
SVTCA[1]\011/* SetFreedomAndProjectionVectorToAxis */
MD[0]\011/* MeasureDistance */
ROUND[00]\011/* Round */
PUSHW[ ]\011/* 2 values pushed */
14 60 
MD[0]\011/* MeasureDistance */
ROUND[00]\011/* Round */
SUB[ ]\011/* Subtract */
PUSHB[ ]\011/* 1 value pushed */
64 
GT[ ]\011/* GreaterThan */
IF[ ]\011/* If */
SHPIX[ ]\011/* ShiftZoneByPixel */
SRP1[ ]\011/* SetRefPoint1 */
SHZ[1]\011/* ShiftZoneByLastPoint */
PUSHW[ ]\011/* 2 values pushed */
60 -64 
SHPIX[ ]\011/* ShiftZoneByPixel */
EIF[ ]\011/* EndIf */";
};
width = 522;
}
);
note = two;
unicode = 0032;
},
{
glyphname = three;
lastChange = "2019-03-01 18:48:01 +0000";
layers = (
{
layerId = "93C069E7-FFAA-4B97-8A94-34C303BF132C";
paths = (
{
closed = 1;
nodes = (
"550 272 OFFCURVE",
"534 308.333 OFFCURVE",
"502 335 CURVE SMOOTH",
"480.667 352.333 OFFCURVE",
"450.667 366.333 OFFCURVE",
"412 377 CURVE SMOOTH",
"376.667 385.667 OFFCURVE",
"358.333 391.333 OFFCURVE",
"357 394 CURVE",
"386.333 417.333 OFFCURVE",
"410.667 444.333 OFFCURVE",
"430 475 CURVE SMOOTH",
"453.333 510.333 OFFCURVE",
"465 544 OFFCURVE",
"465 576 CURVE SMOOTH",
"465 650.667 OFFCURVE",
"408.667 693 OFFCURVE",
"334 693 CURVE SMOOTH",
"289.333 693 OFFCURVE",
"239.667 677.667 OFFCURVE",
"185 647 CURVE SMOOTH",
"133 617.667 OFFCURVE",
"93 584.333 OFFCURVE",
"65 547 CURVE SMOOTH",
"49.667 526.333 OFFCURVE",
"42 510.333 OFFCURVE",
"42 499 CURVE SMOOTH",
"42 488.333 OFFCURVE",
"62 475 OFFCURVE",
"74 475 CURVE SMOOTH",
"81.333 475 OFFCURVE",
"94.667 484 OFFCURVE",
"114 502 CURVE",
"126.667 514.667 OFFCURVE",
"139 527 OFFCURVE",
"151 539 CURVE",
"148.333 551 OFFCURVE",
"149 559.333 OFFCURVE",
"153 564 CURVE SMOOTH",
"186.333 604 OFFCURVE",
"282 649 OFFCURVE",
"334 649 CURVE SMOOTH",
"380.667 649 OFFCURVE",
"411 616.667 OFFCURVE",
"411 570 CURVE SMOOTH",
"411 534.667 OFFCURVE",
"395.667 498.667 OFFCURVE",
"365 462 CURVE SMOOTH",
"332.333 423.333 OFFCURVE",
"305 399.667 OFFCURVE",
"283 391 CURVE SMOOTH",
"273 387 OFFCURVE",
"245 383 OFFCURVE",
"199 379 CURVE SMOOTH",
"160.333 376.333 OFFCURVE",
"135.5 369 OFFCURVE",
"124.5 357 CURVE SMOOTH",
"113.5 345 OFFCURVE",
"108 334 OFFCURVE",
"108 324 CURVE SMOOTH",
"108 313.333 OFFCURVE",
"119.667 308 OFFCURVE",
"143 308 CURVE SMOOTH",
"167.667 308 OFFCURVE",
"200 315.833 OFFCURVE",
"240 331.5 CURVE SMOOTH",
"280 347.167 OFFCURVE",
"304 355 OFFCURVE",
"312 355 CURVE SMOOTH",
"352 355 OFFCURVE",
"390.667 343 OFFCURVE",
"428 319 CURVE SMOOTH",
"469.333 291 OFFCURVE",
"490 258 OFFCURVE",
"490 220 CURVE SMOOTH",
"490 199.333 OFFCURVE",
"482 174.667 OFFCURVE",
"466 146 CURVE SMOOTH",
"443.333 107.333 OFFCURVE",
"410 77.333 OFFCURVE",
"366 56 CURVE SMOOTH",
"325.333 36.667 OFFCURVE",
"281 27 OFFCURVE",
"233 27 CURVE SMOOTH",
"162.333 27 OFFCURVE",
"116.667 42.667 OFFCURVE",
"96 74 CURVE",
"90 86.667 OFFCURVE",
"84 99.333 OFFCURVE",
"78 112 CURVE",
"68.667 129.333 OFFCURVE",
"58.667 138 OFFCURVE",
"48 138 CURVE SMOOTH",
"36 138 OFFCURVE",
"20 123 OFFCURVE",
"20 111 CURVE SMOOTH",
"20 91.667 OFFCURVE",
"34 70.667 OFFCURVE",
"62 48 CURVE SMOOTH",
"86.667 28 OFFCURVE",
"110 15 OFFCURVE",
"132 9 CURVE SMOOTH",
"175.333 -1.667 OFFCURVE",
"219.333 -7 OFFCURVE",
"264 -7 CURVE SMOOTH",
"368.667 -7 OFFCURVE",
"451.333 33 OFFCURVE",
"512 113 CURVE SMOOTH",
"537.333 145.667 OFFCURVE",
"550 183.333 OFFCURVE",
"550 226 CURVE SMOOTH"
);
}
);
userData = {
assembly = "NPUSHB[ ]\011/* 33 values pushed */
1 77 77 64 78 0 55 32 29 13 71 58 34 10 25 5 0 43 4 67 19 7 4 46 6 64 64 3 4 1 1 10 70 
SROUND[ ]\011/* SuperRound */
MDAP[1]\011/* MoveDirectAbsPt */
SHZ[1]\011/* ShiftZoneByLastPoint */
RTG[ ]\011/* RoundToGrid */
SVTCA[0]\011/* SetFreedomAndProjectionVectorToAxis */
MIAP[1]\011/* MoveIndirectAbsPt */
MIAP[1]\011/* MoveIndirectAbsPt */
SRP0[ ]\011/* SetRefPoint0 */
MIRP[11101]\011/* MoveIndirectRelPt */
SRP0[ ]\011/* SetRefPoint0 */
MIRP[11101]\011/* MoveIndirectRelPt */
SVTCA[1]\011/* SetFreedomAndProjectionVectorToAxis */
MDAP[1]\011/* MoveDirectAbsPt */
MIRP[11101]\011/* MoveIndirectRelPt */
MDAP[1]\011/* MoveDirectAbsPt */
MIRP[11101]\011/* MoveIndirectRelPt */
MDAP[0]\011/* MoveDirectAbsPt */
MDAP[0]\011/* MoveDirectAbsPt */
MDAP[0]\011/* MoveDirectAbsPt */
MDAP[0]\011/* MoveDirectAbsPt */
SVTCA[0]\011/* SetFreedomAndProjectionVectorToAxis */
MDAP[0]\011/* MoveDirectAbsPt */
MDAP[0]\011/* MoveDirectAbsPt */
MDAP[0]\011/* MoveDirectAbsPt */
MDAP[0]\011/* MoveDirectAbsPt */
IUP[1]\011/* InterpolateUntPts */
IUP[0]\011/* InterpolateUntPts */
SVTCA[1]\011/* SetFreedomAndProjectionVectorToAxis */
MD[0]\011/* MeasureDistance */
ROUND[00]\011/* Round */
PUSHW[ ]\011/* 2 values pushed */
10 77 
MD[0]\011/* MeasureDistance */
ROUND[00]\011/* Round */
SUB[ ]\011/* Subtract */
PUSHB[ ]\011/* 1 value pushed */
64 
GT[ ]\011/* GreaterThan */
IF[ ]\011/* If */
SHPIX[ ]\011/* ShiftZoneByPixel */
SRP1[ ]\011/* SetRefPoint1 */
SHZ[1]\011/* ShiftZoneByLastPoint */
PUSHW[ ]\011/* 2 values pushed */
77 -64 
SHPIX[ ]\011/* ShiftZoneByPixel */
EIF[ ]\011/* EndIf */";
};
width = 570;
}
);
note = three;
unicode = 0033;
},
{
glyphname = four;
lastChange = "2019-03-01 18:48:01 +0000";
layers = (
{
layerId = "93C069E7-FFAA-4B97-8A94-34C303BF132C";
paths = (
{
closed = 1;
nodes = (
"616 203 LINE",
"603.333 221.667 OFFCURVE",
"571.333 231 OFFCURVE",
"520 231 CURVE SMOOTH",
"506.667 231 OFFCURVE",
"473 230.333 OFFCURVE",
"461 229 CURVE",
"455 233.667 OFFCURVE",
"452 239.667 OFFCURVE",
"452 247 CURVE SMOOTH",
"452 267 OFFCURVE",
"457.667 314.667 OFFCURVE",
"469 390 CURVE SMOOTH",
"484.333 492 OFFCURVE",
"493.667 550.333 OFFCURVE",
"497 565 CURVE",
"497.667 567 OFFCURVE",
"501.333 579 OFFCURVE",
"508 601 CURVE SMOOTH",
"513.333 617.667 OFFCURVE",
"516 628.667 OFFCURVE",
"516 634 CURVE SMOOTH",
"516 654 OFFCURVE",
"496 671 OFFCURVE",
"476 671 CURVE SMOOTH",
"458 671 OFFCURVE",
"440.333 660.667 OFFCURVE",
"423 640 CURVE SMOOTH",
"409.667 623.333 OFFCURVE",
"396.333 606.333 OFFCURVE",
"383 589 CURVE",
"289 499.667 OFFCURVE",
"217.667 433.667 OFFCURVE",
"169 391 CURVE SMOOTH",
"139.667 365 OFFCURVE",
"110.333 339.333 OFFCURVE",
"81 314 CURVE",
"40.333 275.333 OFFCURVE",
"20 245.667 OFFCURVE",
"20 225 CURVE SMOOTH",
"20 209 OFFCURVE",
"33.667 192.667 OFFCURVE",
"61 176 CURVE SMOOTH",
"86.333 161.333 OFFCURVE",
"107.667 154 OFFCURVE",
"125 154 CURVE SMOOTH",
"155 154 OFFCURVE",
"199.5 158.167 OFFCURVE",
"258.5 166.5 CURVE SMOOTH",
"317.5 174.833 OFFCURVE",
"362 179 OFFCURVE",
"392 179 CURVE SMOOTH",
"399.333 179 OFFCURVE",
"403 167 OFFCURVE",
"403 143 CURVE SMOOTH",
"403 132.333 OFFCURVE",
"402.667 116 OFFCURVE",
"402 94 CURVE SMOOTH",
"401.333 72 OFFCURVE",
"401 55.667 OFFCURVE",
"401 45 CURVE SMOOTH",
"401 42.333 OFFCURVE",
"400.167 38.167 OFFCURVE",
"398.5 32.5 CURVE SMOOTH",
"396.833 26.833 OFFCURVE",
"396 22.667 OFFCURVE",
"396 20 CURVE SMOOTH",
"396 8 OFFCURVE",
"421.333 -23 OFFCURVE",
"432 -23 CURVE SMOOTH",
"464 -23 LINE",
"468.667 -15 OFFCURVE",
"471 -9.333 OFFCURVE",
"471 -6 CURVE SMOOTH",
"471 -3.333 OFFCURVE",
"468.667 1.667 OFFCURVE",
"464 9 CURVE SMOOTH",
"459.333 16.333 OFFCURVE",
"456.667 21 OFFCURVE",
"456 23 CURVE SMOOTH",
"449.333 43 OFFCURVE",
"446 81.333 OFFCURVE",
"446 138 CURVE SMOOTH",
"446 175.333 OFFCURVE",
"451.667 187 OFFCURVE",
"485 187 CURVE SMOOTH",
"543 187 OFFCURVE",
"584.333 184.667 OFFCURVE",
"609 180 CURVE",
"616 186 LINE"
);
},
{
closed = 1;
nodes = (
"401 227 LINE",
"130 204 LINE",
"126 204 LINE SMOOTH",
"101.333 203.333 OFFCURVE",
"89 213 OFFCURVE",
"89 233 CURVE SMOOTH",
"89 257.667 OFFCURVE",
"136.333 311 OFFCURVE",
"231 393 CURVE SMOOTH",
"310.333 462.333 OFFCURVE",
"372 510.667 OFFCURVE",
"416 538 CURVE",
"427 538 LINE"
);
}
);
userData = {
assembly = "NPUSHB[ ]\011/* 47 values pushed */
1 71 71 64 72 0 69 68 62 61 61 60 45 17 11 0 23 4 6 66 5 32 6 4 20 20 4 53 28 6 70 55 58 6 3 70 6 1 25 42 3 14 13 1 1 32 70 
SROUND[ ]\011/* SuperRound */
MDAP[1]\011/* MoveDirectAbsPt */
SHZ[1]\011/* ShiftZoneByLastPoint */
RTG[ ]\011/* RoundToGrid */
SVTCA[0]\011/* SetFreedomAndProjectionVectorToAxis */
MIAP[1]\011/* MoveIndirectAbsPt */
ALIGNRP[ ]\011/* AlignRelativePt */
MIAP[1]\011/* MoveIndirectAbsPt */
MDAP[1]\011/* MoveDirectAbsPt */
ALIGNRP[ ]\011/* AlignRelativePt */
MIRP[11101]\011/* MoveIndirectRelPt */
MDAP[1]\011/* MoveDirectAbsPt */
MIRP[11101]\011/* MoveIndirectRelPt */
ALIGNRP[ ]\011/* AlignRelativePt */
SRP0[ ]\011/* SetRefPoint0 */
MIRP[11101]\011/* MoveIndirectRelPt */
SVTCA[1]\011/* SetFreedomAndProjectionVectorToAxis */
MDAP[1]\011/* MoveDirectAbsPt */
MIRP[11101]\011/* MoveIndirectRelPt */
SRP0[ ]\011/* SetRefPoint0 */
MIRP[11101]\011/* MoveIndirectRelPt */
MDAP[1]\011/* MoveDirectAbsPt */
MIRP[11101]\011/* MoveIndirectRelPt */
SRP0[ ]\011/* SetRefPoint0 */
MIRP[11101]\011/* MoveIndirectRelPt */
MDAP[0]\011/* MoveDirectAbsPt */
MDAP[0]\011/* MoveDirectAbsPt */
MDAP[0]\011/* MoveDirectAbsPt */
MDAP[0]\011/* MoveDirectAbsPt */
MDAP[0]\011/* MoveDirectAbsPt */
MDAP[0]\011/* MoveDirectAbsPt */
SVTCA[0]\011/* SetFreedomAndProjectionVectorToAxis */
MDAP[0]\011/* MoveDirectAbsPt */
MDAP[0]\011/* MoveDirectAbsPt */
MDAP[0]\011/* MoveDirectAbsPt */
MDAP[0]\011/* MoveDirectAbsPt */
IUP[1]\011/* InterpolateUntPts */
IUP[0]\011/* InterpolateUntPts */
SVTCA[1]\011/* SetFreedomAndProjectionVectorToAxis */
MD[0]\011/* MeasureDistance */
ROUND[00]\011/* Round */
PUSHW[ ]\011/* 2 values pushed */
32 71 
MD[0]\011/* MeasureDistance */
ROUND[00]\011/* Round */
SUB[ ]\011/* Subtract */
PUSHB[ ]\011/* 1 value pushed */
64 
GT[ ]\011/* GreaterThan */
IF[ ]\011/* If */
SHPIX[ ]\011/* ShiftZoneByPixel */
SRP1[ ]\011/* SetRefPoint1 */
SHZ[1]\011/* ShiftZoneByLastPoint */
PUSHW[ ]\011/* 2 values pushed */
71 -64 
SHPIX[ ]\011/* ShiftZoneByPixel */
EIF[ ]\011/* EndIf */";
};
width = 626;
}
);
note = four;
unicode = 0034;
},
{
glyphname = five;
lastChange = "2019-03-01 18:48:01 +0000";
layers = (
{
layerId = "93C069E7-FFAA-4B97-8A94-34C303BF132C";
paths = (
{
closed = 1;
nodes = (
"509 283.333 OFFCURVE",
"489.667 327 OFFCURVE",
"451 359 CURVE SMOOTH",
"415 388.333 OFFCURVE",
"368.667 403 OFFCURVE",
"312 403 CURVE SMOOTH",
"264.667 403 OFFCURVE",
"222.333 395.333 OFFCURVE",
"185 380 CURVE SMOOTH",
"157 368 OFFCURVE",
"141.667 362 OFFCURVE",
"139 362 CURVE",
"137 364 LINE",
"135 376.667 OFFCURVE",
"134 394 OFFCURVE",
"134 416 CURVE SMOOTH",
"134 518.667 OFFCURVE",
"141 576 OFFCURVE",
"155 588 CURVE",
"159.667 592.667 OFFCURVE",
"183.333 597.667 OFFCURVE",
"226 603 CURVE SMOOTH",
"265.333 608.333 OFFCURVE",
"291.333 611 OFFCURVE",
"304 611 CURVE SMOOTH",
"343.333 611 OFFCURVE",
"369 609.667 OFFCURVE",
"381 607 CURVE SMOOTH",
"383.667 606.333 OFFCURVE",
"389.5 604.333 OFFCURVE",
"398.5 601 CURVE SMOOTH",
"407.5 597.667 OFFCURVE",
"413.667 596 OFFCURVE",
"417 596 CURVE SMOOTH",
"426 596 LINE",
"435.333 612.667 OFFCURVE",
"440 625.333 OFFCURVE",
"440 634 CURVE SMOOTH",
"440 657.333 OFFCURVE",
"419.333 669 OFFCURVE",
"378 669 CURVE SMOOTH",
"352.667 669 OFFCURVE",
"304 664.667 OFFCURVE",
"232 656 CURVE SMOOTH",
"196 651.333 OFFCURVE",
"177 649 OFFCURVE",
"175 649 CURVE SMOOTH",
"169.667 649 OFFCURVE",
"164.167 652.167 OFFCURVE",
"158.5 658.5 CURVE SMOOTH",
"152.833 664.833 OFFCURVE",
"144.667 668 OFFCURVE",
"134 668 CURVE SMOOTH",
"126 668 OFFCURVE",
"120 667 OFFCURVE",
"116 665 CURVE",
"95.333 619 OFFCURVE",
"85 551.667 OFFCURVE",
"85 463 CURVE SMOOTH",
"85 451 OFFCURVE",
"85.333 433.333 OFFCURVE",
"86 410 CURVE SMOOTH",
"86 386.667 OFFCURVE",
"86 369.333 OFFCURVE",
"86 358 CURVE SMOOTH",
"86 350.667 OFFCURVE",
"84 340.667 OFFCURVE",
"80 328 CURVE SMOOTH",
"76 315.333 OFFCURVE",
"74 305.667 OFFCURVE",
"74 299 CURVE",
"88 290.333 OFFCURVE",
"99 286 OFFCURVE",
"107 286 CURVE SMOOTH",
"113 286 OFFCURVE",
"120.333 290 OFFCURVE",
"129 298 CURVE",
"141.667 310.667 OFFCURVE",
"148.333 317 OFFCURVE",
"149 317 CURVE",
"164.333 327.667 OFFCURVE",
"188 337 OFFCURVE",
"220 345 CURVE SMOOTH",
"250 352.333 OFFCURVE",
"276 356 OFFCURVE",
"298 356 CURVE SMOOTH",
"384.667 356 OFFCURVE",
"452 301.667 OFFCURVE",
"452 215 CURVE SMOOTH",
"452 153.667 OFFCURVE",
"428.667 104.333 OFFCURVE",
"382 67 CURVE SMOOTH",
"338.667 32.333 OFFCURVE",
"285.333 15 OFFCURVE",
"222 15 CURVE SMOOTH",
"192.667 15 OFFCURVE",
"160.667 28.167 OFFCURVE",
"126 54.5 CURVE SMOOTH",
"91.333 80.833 OFFCURVE",
"66.667 94 OFFCURVE",
"52 94 CURVE SMOOTH",
"30.667 94 OFFCURVE",
"20 86 OFFCURVE",
"20 70 CURVE SMOOTH",
"20 53.333 OFFCURVE",
"39 35.667 OFFCURVE",
"77 17 CURVE SMOOTH",
"137 -13.667 OFFCURVE",
"180.667 -20 OFFCURVE",
"238 -20 CURVE SMOOTH",
"309.333 -20 OFFCURVE",
"371.667 3.333 OFFCURVE",
"425 50 CURVE SMOOTH",
"481 98.667 OFFCURVE",
"509 158 OFFCURVE",
"509 228 CURVE SMOOTH"
);
}
);
userData = {
assembly = "NPUSHB[ ]\011/* 37 values pushed */
1 76 76 64 77 0 68 59 54 53 45 29 11 51 31 9 18 5 0 65 4 38 36 34 14 7 4 21 6 72 42 49 4 1 1 9 70 
SROUND[ ]\011/* SuperRound */
MDAP[1]\011/* MoveDirectAbsPt */
SHZ[1]\011/* ShiftZoneByLastPoint */
RTG[ ]\011/* RoundToGrid */
SVTCA[0]\011/* SetFreedomAndProjectionVectorToAxis */
MIAP[1]\011/* MoveIndirectAbsPt */
MDAP[1]\011/* MoveDirectAbsPt */
ALIGNRP[ ]\011/* AlignRelativePt */
MDAP[1]\011/* MoveDirectAbsPt */
MIRP[11101]\011/* MoveIndirectRelPt */
SRP0[ ]\011/* SetRefPoint0 */
MIRP[11101]\011/* MoveIndirectRelPt */
SVTCA[1]\011/* SetFreedomAndProjectionVectorToAxis */
MDAP[1]\011/* MoveDirectAbsPt */
ALIGNRP[ ]\011/* AlignRelativePt */
ALIGNRP[ ]\011/* AlignRelativePt */
MIRP[11101]\011/* MoveIndirectRelPt */
MDAP[1]\011/* MoveDirectAbsPt */
MIRP[11101]\011/* MoveIndirectRelPt */
MDAP[0]\011/* MoveDirectAbsPt */
MDAP[0]\011/* MoveDirectAbsPt */
MDAP[0]\011/* MoveDirectAbsPt */
SVTCA[0]\011/* SetFreedomAndProjectionVectorToAxis */
MDAP[0]\011/* MoveDirectAbsPt */
MDAP[0]\011/* MoveDirectAbsPt */
MDAP[0]\011/* MoveDirectAbsPt */
MDAP[0]\011/* MoveDirectAbsPt */
MDAP[0]\011/* MoveDirectAbsPt */
MDAP[0]\011/* MoveDirectAbsPt */
MDAP[0]\011/* MoveDirectAbsPt */
IUP[1]\011/* InterpolateUntPts */
IUP[0]\011/* InterpolateUntPts */
SVTCA[1]\011/* SetFreedomAndProjectionVectorToAxis */
MD[0]\011/* MeasureDistance */
ROUND[00]\011/* Round */
PUSHW[ ]\011/* 2 values pushed */
9 76 
MD[0]\011/* MeasureDistance */
ROUND[00]\011/* Round */
SUB[ ]\011/* Subtract */
PUSHB[ ]\011/* 1 value pushed */
64 
GT[ ]\011/* GreaterThan */
IF[ ]\011/* If */
SHPIX[ ]\011/* ShiftZoneByPixel */
SRP1[ ]\011/* SetRefPoint1 */
SHZ[1]\011/* ShiftZoneByLastPoint */
PUSHW[ ]\011/* 2 values pushed */
76 -64 
SHPIX[ ]\011/* ShiftZoneByPixel */
EIF[ ]\011/* EndIf */";
};
width = 539;
}
);
note = five;
unicode = 0035;
},
{
glyphname = six;
lastChange = "2019-03-01 18:48:01 +0000";
layers = (
{
layerId = "93C069E7-FFAA-4B97-8A94-34C303BF132C";
paths = (
{
closed = 1;
nodes = (
"516 353 OFFCURVE",
"434 438 OFFCURVE",
"306 438 CURVE SMOOTH",
"234 438 OFFCURVE",
"170 404 OFFCURVE",
"114 336 CURVE SMOOTH",
"106.667 326.667 OFFCURVE",
"100.667 320.667 OFFCURVE",
"96 318 CURVE",
"100 356 OFFCURVE",
"119.333 404.667 OFFCURVE",
"154 464 CURVE SMOOTH",
"172.667 496 OFFCURVE",
"200.333 530.333 OFFCURVE",
"237 567 CURVE SMOOTH",
"282.333 611.667 OFFCURVE",
"318 634 OFFCURVE",
"344 634 CURVE SMOOTH",
"347.333 634 OFFCURVE",
"351.333 631.333 OFFCURVE",
"356 626 CURVE SMOOTH",
"360.667 620.667 OFFCURVE",
"364.667 618 OFFCURVE",
"368 618 CURVE SMOOTH",
"378.667 618 OFFCURVE",
"384 626.333 OFFCURVE",
"384 643 CURVE SMOOTH",
"384 660.333 OFFCURVE",
"353.333 684 OFFCURVE",
"336 684 CURVE SMOOTH",
"315.333 684 OFFCURVE",
"282 666.333 OFFCURVE",
"236 631 CURVE SMOOTH",
"175.333 584.333 OFFCURVE",
"126.333 526.333 OFFCURVE",
"89 457 CURVE SMOOTH",
"49.667 383.667 OFFCURVE",
"30 310.333 OFFCURVE",
"30 237 CURVE SMOOTH",
"30 161.667 OFFCURVE",
"49.333 99.667 OFFCURVE",
"88 51 CURVE SMOOTH",
"130 -2.333 OFFCURVE",
"188 -29 OFFCURVE",
"262 -29 CURVE SMOOTH",
"404.667 -29 OFFCURVE",
"516 82.333 OFFCURVE",
"516 225 CURVE SMOOTH"
);
},
{
closed = 1;
nodes = (
"466 175.667 OFFCURVE",
"447 123 OFFCURVE",
"409 79 CURVE SMOOTH",
"369 32.333 OFFCURVE",
"319 9 OFFCURVE",
"259 9 CURVE SMOOTH",
"205 9 OFFCURVE",
"162.667 30.333 OFFCURVE",
"132 73 CURVE SMOOTH",
"106.667 109 OFFCURVE",
"91.667 155.667 OFFCURVE",
"87 213 CURVE",
"98.333 217 OFFCURVE",
"104 224 OFFCURVE",
"104 234 CURVE SMOOTH",
"104 235.333 OFFCURVE",
"103.667 237.333 OFFCURVE",
"103 240 CURVE SMOOTH",
"102.333 242.667 OFFCURVE",
"102 244.667 OFFCURVE",
"102 246 CURVE SMOOTH",
"102 276 OFFCURVE",
"128 309.333 OFFCURVE",
"180 346 CURVE SMOOTH",
"230 382 OFFCURVE",
"273 400 OFFCURVE",
"309 400 CURVE SMOOTH",
"406.333 400 OFFCURVE",
"466 334.333 OFFCURVE",
"466 237 CURVE SMOOTH"
);
}
);
userData = {
assembly = "NPUSHB[ ]\011/* 40 values pushed */
1 54 54 64 55 0 27 18 16 27 5 7 41 44 5 7 46 5 7 34 4 0 50 7 3 37 7 31 21 6 13 31 2 13 3 3 1 1 7 70 
SROUND[ ]\011/* SuperRound */
MDAP[1]\011/* MoveDirectAbsPt */
SHZ[1]\011/* ShiftZoneByLastPoint */
RTG[ ]\011/* RoundToGrid */
SVTCA[0]\011/* SetFreedomAndProjectionVectorToAxis */
MIAP[1]\011/* MoveIndirectAbsPt */
MIAP[1]\011/* MoveIndirectAbsPt */
MIAP[1]\011/* MoveIndirectAbsPt */
SRP0[ ]\011/* SetRefPoint0 */
MIRP[11101]\011/* MoveIndirectRelPt */
SRP0[ ]\011/* SetRefPoint0 */
MIRP[11101]\011/* MoveIndirectRelPt */
SRP0[ ]\011/* SetRefPoint0 */
MIRP[11101]\011/* MoveIndirectRelPt */
SVTCA[1]\011/* SetFreedomAndProjectionVectorToAxis */
MDAP[1]\011/* MoveDirectAbsPt */
MIRP[11101]\011/* MoveIndirectRelPt */
MDAP[1]\011/* MoveDirectAbsPt */
MIRP[11101]\011/* MoveIndirectRelPt */
SRP0[ ]\011/* SetRefPoint0 */
MIRP[11101]\011/* MoveIndirectRelPt */
ALIGNRP[ ]\011/* AlignRelativePt */
SRP0[ ]\011/* SetRefPoint0 */
MIRP[11101]\011/* MoveIndirectRelPt */
MDAP[0]\011/* MoveDirectAbsPt */
SVTCA[0]\011/* SetFreedomAndProjectionVectorToAxis */
MDAP[0]\011/* MoveDirectAbsPt */
MDAP[0]\011/* MoveDirectAbsPt */
IUP[1]\011/* InterpolateUntPts */
IUP[0]\011/* InterpolateUntPts */
SVTCA[1]\011/* SetFreedomAndProjectionVectorToAxis */
MD[0]\011/* MeasureDistance */
ROUND[00]\011/* Round */
PUSHW[ ]\011/* 2 values pushed */
7 54 
MD[0]\011/* MeasureDistance */
ROUND[00]\011/* Round */
SUB[ ]\011/* Subtract */
PUSHB[ ]\011/* 1 value pushed */
64 
GT[ ]\011/* GreaterThan */
IF[ ]\011/* If */
SHPIX[ ]\011/* ShiftZoneByPixel */
SRP1[ ]\011/* SetRefPoint1 */
SHZ[1]\011/* ShiftZoneByLastPoint */
PUSHW[ ]\011/* 2 values pushed */
54 -64 
SHPIX[ ]\011/* ShiftZoneByPixel */
EIF[ ]\011/* EndIf */";
};
width = 536;
}
);
note = six;
unicode = 0036;
},
{
glyphname = seven;
lastChange = "2019-03-01 18:48:01 +0000";
layers = (
{
layerId = "93C069E7-FFAA-4B97-8A94-34C303BF132C";
paths = (
{
closed = 1;
nodes = (
"475 641.333 OFFCURVE",
"462.667 651 OFFCURVE",
"438 663 CURVE SMOOTH",
"417.333 673.667 OFFCURVE",
"401 680.333 OFFCURVE",
"389 683 CURVE SMOOTH",
"357.667 689.667 OFFCURVE",
"329 693 OFFCURVE",
"303 693 CURVE SMOOTH",
"267.667 693 OFFCURVE",
"232.667 689.667 OFFCURVE",
"198 683 CURVE SMOOTH",
"192 681.667 OFFCURVE",
"172.333 675.667 OFFCURVE",
"139 665 CURVE SMOOTH",
"111.667 655.667 OFFCURVE",
"93.333 651.333 OFFCURVE",
"84 652 CURVE",
"78 653 LINE",
"78 653 LINE",
"71.333 663.667 OFFCURVE",
"64 676.667 OFFCURVE",
"52 678 CURVE",
"33.333 644.667 OFFCURVE",
"30.333 601.667 OFFCURVE",
"25 563 CURVE",
"24.333 559.667 OFFCURVE",
"21.333 550.333 OFFCURVE",
"16 535 CURVE SMOOTH",
"12 522.333 OFFCURVE",
"10 514 OFFCURVE",
"10 510 CURVE SMOOTH",
"10 493.333 OFFCURVE",
"20 485 OFFCURVE",
"40 485 CURVE SMOOTH",
"44.667 485 OFFCURVE",
"48 485.333 OFFCURVE",
"50 486 CURVE",
"60.667 496 OFFCURVE",
"67.333 512.333 OFFCURVE",
"70 535 CURVE",
"72 560.333 OFFCURVE",
"75.667 577 OFFCURVE",
"81 585 CURVE SMOOTH",
"86.333 593 OFFCURVE",
"121.667 604 OFFCURVE",
"187 618 CURVE SMOOTH",
"247 630.667 OFFCURVE",
"287.333 637 OFFCURVE",
"308 637 CURVE SMOOTH",
"310 637 OFFCURVE",
"312.833 636.5 OFFCURVE",
"316.5 635.5 CURVE SMOOTH",
"320.167 634.5 OFFCURVE",
"323.333 634 OFFCURVE",
"326 634 CURVE SMOOTH",
"327.333 634 OFFCURVE",
"329.833 634.333 OFFCURVE",
"333.5 635 CURVE SMOOTH",
"337.167 635.667 OFFCURVE",
"340 636 OFFCURVE",
"342 636 CURVE SMOOTH",
"356 636 OFFCURVE",
"368.667 631.333 OFFCURVE",
"380 622 CURVE",
"380 618.667 OFFCURVE",
"378.667 615 OFFCURVE",
"376 611 CURVE",
"290 453.667 OFFCURVE",
"243.333 368 OFFCURVE",
"236 354 CURVE SMOOTH",
"188 256.667 OFFCURVE",
"154.333 165.333 OFFCURVE",
"135 80 CURVE SMOOTH",
"129.667 54.667 OFFCURVE",
"127 38.333 OFFCURVE",
"127 31 CURVE SMOOTH",
"127 14.333 OFFCURVE",
"131.333 -1 OFFCURVE",
"140 -15 CURVE SMOOTH",
"149.333 -31 OFFCURVE",
"161.667 -39 OFFCURVE",
"177 -39 CURVE SMOOTH",
"181.667 -39 OFFCURVE",
"185 -36.333 OFFCURVE",
"187 -31 CURVE",
"176.333 5 OFFCURVE",
"171 27 OFFCURVE",
"171 35 CURVE SMOOTH",
"171 65.667 OFFCURVE",
"179.667 104.333 OFFCURVE",
"197 151 CURVE SMOOTH",
"211.667 187.667 OFFCURVE",
"226.667 224.667 OFFCURVE",
"242 262 CURVE SMOOTH",
"277.333 351.333 OFFCURVE",
"340.333 457.667 OFFCURVE",
"431 581 CURVE",
"431.667 581.667 OFFCURVE",
"439.667 590.667 OFFCURVE",
"455 608 CURVE SMOOTH",
"468.333 623.333 OFFCURVE",
"475 632 OFFCURVE",
"475 634 CURVE SMOOTH"
);
}
);
userData = {
assembly = "NPUSHB[ ]\011/* 35 values pushed */
1 69 69 64 70 0 57 56 55 43 56 55 45 26 12 0 10 4 18 31 6 63 28 34 6 63 63 3 52 3 14 1 1 45 70 
SROUND[ ]\011/* SuperRound */
MDAP[1]\011/* MoveDirectAbsPt */
SHZ[1]\011/* ShiftZoneByLastPoint */
RTG[ ]\011/* RoundToGrid */
SVTCA[0]\011/* SetFreedomAndProjectionVectorToAxis */
MIAP[1]\011/* MoveIndirectAbsPt */
MIAP[1]\011/* MoveIndirectAbsPt */
MIAP[1]\011/* MoveIndirectAbsPt */
SRP0[ ]\011/* SetRefPoint0 */
MIRP[11101]\011/* MoveIndirectRelPt */
ALIGNRP[ ]\011/* AlignRelativePt */
SRP0[ ]\011/* SetRefPoint0 */
MIRP[11101]\011/* MoveIndirectRelPt */
SVTCA[1]\011/* SetFreedomAndProjectionVectorToAxis */
MDAP[1]\011/* MoveDirectAbsPt */
MIRP[11101]\011/* MoveIndirectRelPt */
MDAP[0]\011/* MoveDirectAbsPt */
MDAP[0]\011/* MoveDirectAbsPt */
MDAP[0]\011/* MoveDirectAbsPt */
MDAP[0]\011/* MoveDirectAbsPt */
MDAP[0]\011/* MoveDirectAbsPt */
MDAP[0]\011/* MoveDirectAbsPt */
SVTCA[0]\011/* SetFreedomAndProjectionVectorToAxis */
MDAP[0]\011/* MoveDirectAbsPt */
MDAP[0]\011/* MoveDirectAbsPt */
MDAP[0]\011/* MoveDirectAbsPt */
MDAP[0]\011/* MoveDirectAbsPt */
IUP[1]\011/* InterpolateUntPts */
IUP[0]\011/* InterpolateUntPts */
SVTCA[1]\011/* SetFreedomAndProjectionVectorToAxis */
MD[0]\011/* MeasureDistance */
ROUND[00]\011/* Round */
PUSHW[ ]\011/* 2 values pushed */
45 69 
MD[0]\011/* MeasureDistance */
ROUND[00]\011/* Round */
SUB[ ]\011/* Subtract */
PUSHB[ ]\011/* 1 value pushed */
64 
GT[ ]\011/* GreaterThan */
IF[ ]\011/* If */
SHPIX[ ]\011/* ShiftZoneByPixel */
SRP1[ ]\011/* SetRefPoint1 */
SHZ[1]\011/* ShiftZoneByLastPoint */
PUSHW[ ]\011/* 2 values pushed */
69 -64 
SHPIX[ ]\011/* ShiftZoneByPixel */
EIF[ ]\011/* EndIf */";
};
width = 465;
}
);
note = seven;
unicode = 0037;
},
{
glyphname = eight;
lastChange = "2019-03-01 18:48:01 +0000";
layers = (
{
layerId = "93C069E7-FFAA-4B97-8A94-34C303BF132C";
paths = (
{
closed = 1;
nodes = (
"512 265 OFFCURVE",
"444.333 330 OFFCURVE",
"309 366 CURVE",
"307 370 LINE",
"307 372 LINE",
"346.333 395.333 OFFCURVE",
"386 418.333 OFFCURVE",
"426 441 CURVE",
"475.333 475.667 OFFCURVE",
"500 510.333 OFFCURVE",
"500 545 CURVE SMOOTH",
"500 566.333 OFFCURVE",
"492.667 577 OFFCURVE",
"478 577 CURVE SMOOTH",
"476.667 577 OFFCURVE",
"471 569.667 OFFCURVE",
"461 555 CURVE",
"426.333 627 OFFCURVE",
"346.667 678 OFFCURVE",
"268 678 CURVE SMOOTH",
"210.667 678 OFFCURVE",
"161 661.333 OFFCURVE",
"119 628 CURVE SMOOTH",
"74.333 592.667 OFFCURVE",
"52 547 OFFCURVE",
"52 491 CURVE SMOOTH",
"52 437.667 OFFCURVE",
"86.667 390 OFFCURVE",
"156 348 CURVE",
"112 322 OFFCURVE",
"80 297 OFFCURVE",
"60 273 CURVE SMOOTH",
"33.333 241 OFFCURVE",
"20 203.333 OFFCURVE",
"20 160 CURVE SMOOTH",
"20 98.667 OFFCURVE",
"47.667 52.333 OFFCURVE",
"103 21 CURVE SMOOTH",
"147.667 -4.333 OFFCURVE",
"203 -17 OFFCURVE",
"269 -17 CURVE SMOOTH",
"299.667 -17 OFFCURVE",
"327.667 -14.667 OFFCURVE",
"353 -10 CURVE SMOOTH",
"445 7.333 OFFCURVE",
"512 80.333 OFFCURVE",
"512 171 CURVE SMOOTH"
);
},
{
closed = 1;
nodes = (
"407.667 473.667 OFFCURVE",
"371.667 449.333 OFFCURVE",
"325 426 CURVE SMOOTH",
"273 400 OFFCURVE",
"242.333 387 OFFCURVE",
"233 387 CURVE SMOOTH",
"205 387 OFFCURVE",
"176.333 398 OFFCURVE",
"147 420 CURVE SMOOTH",
"115 443.333 OFFCURVE",
"99 468.333 OFFCURVE",
"99 495 CURVE SMOOTH",
"99 538.333 OFFCURVE",
"116.667 573.333 OFFCURVE",
"152 600 CURVE SMOOTH",
"184.667 624.667 OFFCURVE",
"223.333 637 OFFCURVE",
"268 637 CURVE SMOOTH",
"334 637 OFFCURVE",
"383 601.667 OFFCURVE",
"415 531 CURVE SMOOTH",
"420.333 519.667 OFFCURVE",
"426.333 509 OFFCURVE",
"433 499 CURVE"
);
},
{
closed = 1;
nodes = (
"459 112 OFFCURVE",
"438.333 76.667 OFFCURVE",
"397 52 CURVE SMOOTH",
"362.333 31.333 OFFCURVE",
"320.333 21 OFFCURVE",
"271 21 CURVE SMOOTH",
"217.667 21 OFFCURVE",
"172.667 31 OFFCURVE",
"136 51 CURVE SMOOTH",
"90 75 OFFCURVE",
"67 111.333 OFFCURVE",
"67 160 CURVE SMOOTH",
"67 196.667 OFFCURVE",
"80 228 OFFCURVE",
"106 254 CURVE SMOOTH",
"118.667 266.667 OFFCURVE",
"147 287 OFFCURVE",
"191 315 CURVE SMOOTH",
"207 325.667 OFFCURVE",
"216.667 331 OFFCURVE",
"220 331 CURVE SMOOTH",
"226 331 OFFCURVE",
"241 327 OFFCURVE",
"265 319 CURVE SMOOTH",
"327.667 298.333 OFFCURVE",
"370 281.333 OFFCURVE",
"392 268 CURVE SMOOTH",
"436.667 240 OFFCURVE",
"459 203.333 OFFCURVE",
"459 158 CURVE SMOOTH"
);
}
);
userData = {
assembly = "NPUSHB[ ]\011/* 38 values pushed */
1 70 70 64 71 0 24 22 34 31 30 26 13 62 4 9 42 4 15 50 4 0 56 6 46 66 7 5 38 7 19 19 3 5 1 1 9 70 
SROUND[ ]\011/* SuperRound */
MDAP[1]\011/* MoveDirectAbsPt */
SHZ[1]\011/* ShiftZoneByLastPoint */
RTG[ ]\011/* RoundToGrid */
SVTCA[0]\011/* SetFreedomAndProjectionVectorToAxis */
MIAP[1]\011/* MoveIndirectAbsPt */
MIAP[1]\011/* MoveIndirectAbsPt */
SRP0[ ]\011/* SetRefPoint0 */
MIRP[11101]\011/* MoveIndirectRelPt */
SRP0[ ]\011/* SetRefPoint0 */
MIRP[11101]\011/* MoveIndirectRelPt */
MDAP[1]\011/* MoveDirectAbsPt */
MIRP[11101]\011/* MoveIndirectRelPt */
SVTCA[1]\011/* SetFreedomAndProjectionVectorToAxis */
MDAP[1]\011/* MoveDirectAbsPt */
MIRP[11101]\011/* MoveIndirectRelPt */
MDAP[1]\011/* MoveDirectAbsPt */
MIRP[11101]\011/* MoveIndirectRelPt */
MDAP[1]\011/* MoveDirectAbsPt */
MIRP[11101]\011/* MoveIndirectRelPt */
MDAP[0]\011/* MoveDirectAbsPt */
MDAP[0]\011/* MoveDirectAbsPt */
MDAP[0]\011/* MoveDirectAbsPt */
MDAP[0]\011/* MoveDirectAbsPt */
MDAP[0]\011/* MoveDirectAbsPt */
SVTCA[0]\011/* SetFreedomAndProjectionVectorToAxis */
MDAP[0]\011/* MoveDirectAbsPt */
MDAP[0]\011/* MoveDirectAbsPt */
IUP[1]\011/* InterpolateUntPts */
IUP[0]\011/* InterpolateUntPts */
SVTCA[1]\011/* SetFreedomAndProjectionVectorToAxis */
MD[0]\011/* MeasureDistance */
ROUND[00]\011/* Round */
PUSHW[ ]\011/* 2 values pushed */
9 70 
MD[0]\011/* MeasureDistance */
ROUND[00]\011/* Round */
SUB[ ]\011/* Subtract */
PUSHB[ ]\011/* 1 value pushed */
64 
GT[ ]\011/* GreaterThan */
IF[ ]\011/* If */
SHPIX[ ]\011/* ShiftZoneByPixel */
SRP1[ ]\011/* SetRefPoint1 */
SHZ[1]\011/* ShiftZoneByLastPoint */
PUSHW[ ]\011/* 2 values pushed */
70 -64 
SHPIX[ ]\011/* ShiftZoneByPixel */
EIF[ ]\011/* EndIf */";
};
width = 532;
}
);
note = eight;
unicode = 0038;
},
{
glyphname = nine;
lastChange = "2019-03-01 18:48:01 +0000";
layers = (
{
layerId = "93C069E7-FFAA-4B97-8A94-34C303BF132C";
paths = (
{
closed = 1;
nodes = (
"449 495.333 OFFCURVE",
"432.333 554.333 OFFCURVE",
"399 603 CURVE SMOOTH",
"361 658.333 OFFCURVE",
"308.667 686 OFFCURVE",
"242 686 CURVE SMOOTH",
"170.667 686 OFFCURVE",
"115 659.333 OFFCURVE",
"75 606 CURVE SMOOTH",
"38.333 557.333 OFFCURVE",
"20 496.333 OFFCURVE",
"20 423 CURVE SMOOTH",
"20 382.333 OFFCURVE",
"25.333 350.667 OFFCURVE",
"36 328 CURVE SMOOTH",
"66.667 261.333 OFFCURVE",
"131.333 223 OFFCURVE",
"206 223 CURVE SMOOTH",
"257.333 223 OFFCURVE",
"315.333 249.333 OFFCURVE",
"380 302 CURVE",
"367 262 LINE SMOOTH",
"356.333 228 OFFCURVE",
"332.667 184.333 OFFCURVE",
"296 131 CURVE SMOOTH",
"253.333 68.333 OFFCURVE",
"219.667 37 OFFCURVE",
"195 37 CURVE SMOOTH",
"191 37 OFFCURVE",
"185.667 39.667 OFFCURVE",
"179 45 CURVE SMOOTH",
"172.333 50.333 OFFCURVE",
"167 53 OFFCURVE",
"163 53 CURVE SMOOTH",
"151 53 OFFCURVE",
"145 46.333 OFFCURVE",
"145 33 CURVE SMOOTH",
"145 23 OFFCURVE",
"153.667 13.333 OFFCURVE",
"171 4 CURVE SMOOTH",
"186.333 -4 OFFCURVE",
"199.333 -8 OFFCURVE",
"210 -8 CURVE SMOOTH",
"236 -8 OFFCURVE",
"269 16 OFFCURVE",
"309 64 CURVE SMOOTH",
"339.667 100 OFFCURVE",
"364.667 136 OFFCURVE",
"384 172 CURVE SMOOTH",
"427.333 252.667 OFFCURVE",
"449 337.333 OFFCURVE",
"449 426 CURVE SMOOTH"
);
},
{
closed = 1;
nodes = (
"398 406.333 OFFCURVE",
"395.333 392.333 OFFCURVE",
"390 379 CURVE SMOOTH",
"374 337.667 OFFCURVE",
"253.667 260 OFFCURVE",
"207 260 CURVE SMOOTH",
"165 260 OFFCURVE",
"131 275.333 OFFCURVE",
"105 306 CURVE SMOOTH",
"81 334.667 OFFCURVE",
"69 370.333 OFFCURVE",
"69 413 CURVE SMOOTH",
"69 468.333 OFFCURVE",
"84 520 OFFCURVE",
"114 568 CURVE SMOOTH",
"148.667 622 OFFCURVE",
"192 649 OFFCURVE",
"244 649 CURVE SMOOTH",
"295.333 649 OFFCURVE",
"335 622.667 OFFCURVE",
"363 570 CURVE SMOOTH",
"386.333 526.667 OFFCURVE",
"398 477 OFFCURVE",
"398 421 CURVE SMOOTH"
);
}
);
userData = {
assembly = "NPUSHB[ ]\011/* 32 values pushed */
1 52 52 64 53 0 20 12 20 10 43 4 27 35 4 0 47 7 22 39 7 31 15 6 6 31 3 6 1 1 27 70 
SROUND[ ]\011/* SuperRound */
MDAP[1]\011/* MoveDirectAbsPt */
SHZ[1]\011/* ShiftZoneByLastPoint */
RTG[ ]\011/* RoundToGrid */
SVTCA[0]\011/* SetFreedomAndProjectionVectorToAxis */
MIAP[1]\011/* MoveIndirectAbsPt */
MIAP[1]\011/* MoveIndirectAbsPt */
SRP0[ ]\011/* SetRefPoint0 */
MIRP[11101]\011/* MoveIndirectRelPt */
SRP0[ ]\011/* SetRefPoint0 */
MIRP[11101]\011/* MoveIndirectRelPt */
MDAP[1]\011/* MoveDirectAbsPt */
MIRP[11101]\011/* MoveIndirectRelPt */
SVTCA[1]\011/* SetFreedomAndProjectionVectorToAxis */
MDAP[1]\011/* MoveDirectAbsPt */
MIRP[11101]\011/* MoveIndirectRelPt */
MDAP[1]\011/* MoveDirectAbsPt */
MIRP[11101]\011/* MoveIndirectRelPt */
MDAP[0]\011/* MoveDirectAbsPt */
MDAP[0]\011/* MoveDirectAbsPt */
SVTCA[0]\011/* SetFreedomAndProjectionVectorToAxis */
MDAP[0]\011/* MoveDirectAbsPt */
MDAP[0]\011/* MoveDirectAbsPt */
IUP[1]\011/* InterpolateUntPts */
IUP[0]\011/* InterpolateUntPts */
SVTCA[1]\011/* SetFreedomAndProjectionVectorToAxis */
MD[0]\011/* MeasureDistance */
ROUND[00]\011/* Round */
PUSHW[ ]\011/* 2 values pushed */
27 52 
MD[0]\011/* MeasureDistance */
ROUND[00]\011/* Round */
SUB[ ]\011/* Subtract */
PUSHB[ ]\011/* 1 value pushed */
64 
GT[ ]\011/* GreaterThan */
IF[ ]\011/* If */
SHPIX[ ]\011/* ShiftZoneByPixel */
SRP1[ ]\011/* SetRefPoint1 */
SHZ[1]\011/* ShiftZoneByLastPoint */
PUSHW[ ]\011/* 2 values pushed */
52 -64 
SHPIX[ ]\011/* ShiftZoneByPixel */
EIF[ ]\011/* EndIf */";
};
width = 469;
}
);
note = nine;
unicode = 0039;
},
{
glyphname = colon;
lastChange = "2019-03-01 18:48:01 +0000";
layers = (
{
layerId = "93C069E7-FFAA-4B97-8A94-34C303BF132C";
paths = (
{
closed = 1;
nodes = (
"113 57 OFFCURVE",
"83 79 OFFCURVE",
"55 79 CURVE SMOOTH",
"40.333 79 OFFCURVE",
"20 55 OFFCURVE",
"20 39 CURVE SMOOTH",
"20 17.667 OFFCURVE",
"56.667 -11 OFFCURVE",
"78 -11 CURVE SMOOTH",
"95.333 -11 OFFCURVE",
"113 11.667 OFFCURVE",
"113 29 CURVE SMOOTH"
);
},
{
closed = 1;
nodes = (
"117 393.333 OFFCURVE",
"98 405 OFFCURVE",
"60 405 CURVE SMOOTH",
"34.667 405 OFFCURVE",
"22 393.333 OFFCURVE",
"22 370 CURVE SMOOTH",
"22 342 OFFCURVE",
"35 328 OFFCURVE",
"61 328 CURVE SMOOTH",
"87.667 328 OFFCURVE",
"117 344.667 OFFCURVE",
"117 370 CURVE SMOOTH"
);
}
);
userData = {
assembly = "PUSHW[ ]\011/* 1 value pushed */
20 
CALL[ ]\011/* CallFunction */
PUSHW[ ]\011/* 4 values pushed */
12 934 17 24 
CALL[ ]\011/* CallFunction */
PUSHW[ ]\011/* 1 value pushed */
12 
SRP0[ ]\011/* SetRefPoint0 */
PUSHW[ ]\011/* 1 value pushed */
0 
MDRP[10000]\011/* MoveDirectRelPt */
PUSHW[ ]\011/* 1 value pushed */
0 
MDAP[1]\011/* MoveDirectAbsPt */
NPUSHW[ ]\011/* 5 values pushed */
90 17 106 17 2 
DELTAP2[ ]\011/* DeltaExceptionP2 */
NPUSHW[ ]\011/* 21 values pushed */
105 17 121 17 137 17 153 17 169 17 185 17 201 17 217 17 233 17 249 17 10 
DELTAP1[ ]\011/* DeltaExceptionP1 */
NPUSHW[ ]\011/* 11 values pushed */
9 17 25 17 41 17 57 17 73 17 5 
DELTAP2[ ]\011/* DeltaExceptionP2 */
PUSHW[ ]\011/* 1 value pushed */
17 
SRP0[ ]\011/* SetRefPoint0 */
PUSHW[ ]\011/* 1 value pushed */
6 
MDRP[10000]\011/* MoveDirectRelPt */
PUSHW[ ]\011/* 1 value pushed */
6 
MDAP[1]\011/* MoveDirectAbsPt */
PUSHW[ ]\011/* 1 value pushed */
12 
SRP0[ ]\011/* SetRefPoint0 */
PUSHW[ ]\011/* 1 value pushed */
22 
MDRP[11100]\011/* MoveDirectRelPt */
SVTCA[0]\011/* SetFreedomAndProjectionVectorToAxis */
PUSHW[ ]\011/* 1 value pushed */
927 
RCVT[ ]\011/* ReadCVT */
IF[ ]\011/* If */
PUSHW[ ]\011/* 1 value pushed */
3 
MDAP[1]\011/* MoveDirectAbsPt */
ELSE[ ]\011/* Else */
PUSHW[ ]\011/* 2 values pushed */
3 935 
MIAP[0]\011/* MoveIndirectAbsPt */
EIF[ ]\011/* EndIf */
PUSHW[ ]\011/* 4 values pushed */
19 931 15 24 
CALL[ ]\011/* CallFunction */
PUSHW[ ]\011/* 1 value pushed */
3 
SRP0[ ]\011/* SetRefPoint0 */
PUSHW[ ]\011/* 2 values pushed */
9 931 
MIRP[10100]\011/* MoveIndirectRelPt */
NPUSHW[ ]\011/* 21 values pushed */
103 9 119 9 135 9 151 9 167 9 183 9 199 9 215 9 231 9 247 9 10 
DELTAP1[ ]\011/* DeltaExceptionP1 */
NPUSHW[ ]\011/* 11 values pushed */
7 9 23 9 39 9 55 9 71 9 5 
DELTAP2[ ]\011/* DeltaExceptionP2 */
NPUSHW[ ]\011/* 5 values pushed */
86 9 102 9 2 
DELTAP2[ ]\011/* DeltaExceptionP2 */
IUP[0]\011/* InterpolateUntPts */
IUP[1]\011/* InterpolateUntPts */";
};
width = 142;
}
);
note = colon;
unicode = 003A;
},
{
glyphname = semicolon;
lastChange = "2019-03-01 18:48:01 +0000";
layers = (
{
layerId = "93C069E7-FFAA-4B97-8A94-34C303BF132C";
paths = (
{
closed = 1;
nodes = (
"147 393.333 OFFCURVE",
"128 405 OFFCURVE",
"90 405 CURVE SMOOTH",
"64.667 405 OFFCURVE",
"52 393.333 OFFCURVE",
"52 370 CURVE SMOOTH",
"52 342 OFFCURVE",
"65 328 OFFCURVE",
"91 328 CURVE SMOOTH",
"117.667 328 OFFCURVE",
"147 344.667 OFFCURVE",
"147 370 CURVE SMOOTH"
);
},
{
closed = 1;
nodes = (
"60 30.333 OFFCURVE",
"72.333 24.667 OFFCURVE",
"95 10 CURVE SMOOTH",
"117.667 -4.667 OFFCURVE",
"130.667 -39.333 OFFCURVE",
"120 -66 CURVE SMOOTH",
"113.333 -82 OFFCURVE",
"103.833 -94.333 OFFCURVE",
"91.5 -103 CURVE SMOOTH",
"79.167 -111.667 OFFCURVE",
"67.333 -121 OFFCURVE",
"56 -131 CURVE SMOOTH",
"37.333 -147 OFFCURVE",
"40.667 -170 OFFCURVE",
"62 -170 CURVE SMOOTH",
"88.667 -170 OFFCURVE",
"116.333 -144.667 OFFCURVE",
"139 -106 CURVE SMOOTH",
"164.333 -63.333 OFFCURVE",
"163.333 -27 OFFCURVE",
"154 29 CURVE SMOOTH",
"147.333 65 OFFCURVE",
"127 79 OFFCURVE",
"103 79 CURVE SMOOTH",
"67 79 OFFCURVE",
"60 61 OFFCURVE",
"60 45 CURVE SMOOTH"
);
}
);
userData = {
assembly = "PUSHW[ ]\011/* 1 value pushed */
20 
CALL[ ]\011/* CallFunction */
PUSHW[ ]\011/* 4 values pushed */
0 934 9 24 
CALL[ ]\011/* CallFunction */
NPUSHW[ ]\011/* 5 values pushed */
90 9 106 9 2 
DELTAP2[ ]\011/* DeltaExceptionP2 */
NPUSHW[ ]\011/* 21 values pushed */
105 9 121 9 137 9 153 9 169 9 185 9 201 9 217 9 233 9 249 9 10 
DELTAP1[ ]\011/* DeltaExceptionP1 */
NPUSHW[ ]\011/* 11 values pushed */
9 9 25 9 41 9 57 9 73 9 5 
DELTAP2[ ]\011/* DeltaExceptionP2 */
SVTCA[0]\011/* SetFreedomAndProjectionVectorToAxis */
PUSHW[ ]\011/* 1 value pushed */
21 
MDAP[1]\011/* MoveDirectAbsPt */
PUSHW[ ]\011/* 4 values pushed */
7 931 3 24 
CALL[ ]\011/* CallFunction */
IUP[0]\011/* InterpolateUntPts */
IUP[1]\011/* InterpolateUntPts */";
};
width = 193;
}
);
note = semicolon;
unicode = 003B;
},
{
glyphname = less;
lastChange = "2019-03-01 18:48:01 +0000";
layers = (
{
layerId = "93C069E7-FFAA-4B97-8A94-34C303BF132C";
paths = (
{
closed = 1;
nodes = (
"339 188.333 OFFCURVE",
"336 196.333 OFFCURVE",
"330 211 CURVE",
"310 223 OFFCURVE",
"270.667 244.667 OFFCURVE",
"212 276 CURVE SMOOTH",
"162.667 303.333 OFFCURVE",
"124 326 OFFCURVE",
"96 344 CURVE",
"138.667 367.333 OFFCURVE",
"181 391 OFFCURVE",
"223 415 CURVE SMOOTH",
"293 454.333 OFFCURVE",
"328 477 OFFCURVE",
"328 483 CURVE SMOOTH",
"328 501.667 OFFCURVE",
"315.333 515 OFFCURVE",
"290 523 CURVE",
"32 355 LINE SMOOTH",
"24 349.667 OFFCURVE",
"20 344 OFFCURVE",
"20 338 CURVE SMOOTH",
"20 333.333 OFFCURVE",
"22.333 329.333 OFFCURVE",
"27 326 CURVE",
"53.667 303.333 OFFCURVE",
"290.667 159 OFFCURVE",
"304 159 CURVE SMOOTH",
"312 159 OFFCURVE",
"323 167 OFFCURVE",
"337 183 CURVE",
"338.333 185.667 OFFCURVE",
"339 187 OFFCURVE",
"339 187 CURVE"
);
}
);
userData = {
assembly = "NPUSHB[ ]\011/* 15 values pushed */
1 24 24 64 25 0 18 14 9 0 12 4 1 9 70 
SROUND[ ]\011/* SuperRound */
MDAP[1]\011/* MoveDirectAbsPt */
SHZ[1]\011/* ShiftZoneByLastPoint */
RTG[ ]\011/* RoundToGrid */
SVTCA[0]\011/* SetFreedomAndProjectionVectorToAxis */
MDAP[1]\011/* MoveDirectAbsPt */
MDAP[1]\011/* MoveDirectAbsPt */
SVTCA[1]\011/* SetFreedomAndProjectionVectorToAxis */
MDAP[0]\011/* MoveDirectAbsPt */
MDAP[0]\011/* MoveDirectAbsPt */
MDAP[0]\011/* MoveDirectAbsPt */
MDAP[0]\011/* MoveDirectAbsPt */
SVTCA[0]\011/* SetFreedomAndProjectionVectorToAxis */
IUP[1]\011/* InterpolateUntPts */
IUP[0]\011/* InterpolateUntPts */
SVTCA[1]\011/* SetFreedomAndProjectionVectorToAxis */
MD[0]\011/* MeasureDistance */
ROUND[00]\011/* Round */
PUSHW[ ]\011/* 2 values pushed */
9 24 
MD[0]\011/* MeasureDistance */
ROUND[00]\011/* Round */
SUB[ ]\011/* Subtract */
PUSHB[ ]\011/* 1 value pushed */
64 
GT[ ]\011/* GreaterThan */
IF[ ]\011/* If */
SHPIX[ ]\011/* ShiftZoneByPixel */
SRP1[ ]\011/* SetRefPoint1 */
SHZ[1]\011/* ShiftZoneByLastPoint */
PUSHW[ ]\011/* 2 values pushed */
24 -64 
SHPIX[ ]\011/* ShiftZoneByPixel */
EIF[ ]\011/* EndIf */";
};
width = 359;
}
);
note = less;
unicode = 003C;
},
{
glyphname = equal;
lastChange = "2019-03-01 18:48:01 +0000";
layers = (
{
layerId = "93C069E7-FFAA-4B97-8A94-34C303BF132C";
paths = (
{
closed = 1;
nodes = (
"373 400.667 OFFCURVE",
"339 415 OFFCURVE",
"311 415 CURVE SMOOTH",
"272.333 415 OFFCURVE",
"223.667 413 OFFCURVE",
"165 409 CURVE SMOOTH",
"117 406.333 OFFCURVE",
"68.667 403.333 OFFCURVE",
"20 400 CURVE",
"20 374 LINE SMOOTH",
"20 364.667 OFFCURVE",
"35.667 338 OFFCURVE",
"45 338 CURVE SMOOTH",
"47 338 OFFCURVE",
"56.667 341.667 OFFCURVE",
"74 349 CURVE SMOOTH",
"91.333 356.333 OFFCURVE",
"103 360.667 OFFCURVE",
"109 362 CURVE",
"128.333 365.333 OFFCURVE",
"153.667 367 OFFCURVE",
"185 367 CURVE SMOOTH",
"264.333 367 OFFCURVE",
"313 363.667 OFFCURVE",
"331 357 CURVE",
"332.333 357 OFFCURVE",
"336.333 355.167 OFFCURVE",
"343 351.5 CURVE SMOOTH",
"349.667 347.833 OFFCURVE",
"354 346 OFFCURVE",
"356 346 CURVE SMOOTH",
"356.667 346 OFFCURVE",
"361.333 347.333 OFFCURVE",
"370 350 CURVE",
"370 352 OFFCURVE",
"370.5 355.833 OFFCURVE",
"371.5 361.5 CURVE SMOOTH",
"372.5 367.167 OFFCURVE",
"373 371.333 OFFCURVE",
"373 374 CURVE SMOOTH"
);
},
{
closed = 1;
nodes = (
"373 259 LINE SMOOTH",
"373 269.667 OFFCURVE",
"364.333 291 OFFCURVE",
"355 291 CURVE SMOOTH",
"347 291 OFFCURVE",
"335.333 288.5 OFFCURVE",
"320 283.5 CURVE SMOOTH",
"304.667 278.5 OFFCURVE",
"292.667 276 OFFCURVE",
"284 276 CURVE SMOOTH",
"277.333 276 OFFCURVE",
"266.833 276.667 OFFCURVE",
"252.5 278 CURVE SMOOTH",
"238.167 279.333 OFFCURVE",
"227.333 280 OFFCURVE",
"220 280 CURVE SMOOTH",
"205.333 280 OFFCURVE",
"183.667 278.667 OFFCURVE",
"155 276 CURVE SMOOTH",
"126.333 273.333 OFFCURVE",
"105 272 OFFCURVE",
"91 272 CURVE SMOOTH",
"85 272 OFFCURVE",
"76 272.833 OFFCURVE",
"64 274.5 CURVE SMOOTH",
"52 276.167 OFFCURVE",
"43 277 OFFCURVE",
"37 277 CURVE SMOOTH",
"37 277 OFFCURVE",
"32.667 275.667 OFFCURVE",
"24 273 CURVE",
"22.667 269 OFFCURVE",
"20 254.333 OFFCURVE",
"20 249 CURVE SMOOTH",
"20 228.333 OFFCURVE",
"39.667 218 OFFCURVE",
"79 218 CURVE SMOOTH",
"84.333 218 OFFCURVE",
"182.333 223 OFFCURVE",
"373 233 CURVE"
);
}
);
userData = {
assembly = "NPUSHB[ ]\011/* 33 values pushed */
1 51 51 64 52 0 41 10 5 50 30 26 19 18 0 15 6 19 47 6 26 38 6 28 35 44 6 26 23 28 1 18 70 
SROUND[ ]\011/* SuperRound */
MDAP[1]\011/* MoveDirectAbsPt */
SHZ[1]\011/* ShiftZoneByLastPoint */
RTG[ ]\011/* RoundToGrid */
SVTCA[0]\011/* SetFreedomAndProjectionVectorToAxis */
MDAP[1]\011/* MoveDirectAbsPt */
MDAP[1]\011/* MoveDirectAbsPt */
MDAP[1]\011/* MoveDirectAbsPt */
MIRP[11101]\011/* MoveIndirectRelPt */
ALIGNRP[ ]\011/* AlignRelativePt */
SRP0[ ]\011/* SetRefPoint0 */
MIRP[11101]\011/* MoveIndirectRelPt */
SRP0[ ]\011/* SetRefPoint0 */
MIRP[11101]\011/* MoveIndirectRelPt */
MDAP[1]\011/* MoveDirectAbsPt */
MIRP[11101]\011/* MoveIndirectRelPt */
SVTCA[1]\011/* SetFreedomAndProjectionVectorToAxis */
MDAP[0]\011/* MoveDirectAbsPt */
MDAP[0]\011/* MoveDirectAbsPt */
MDAP[0]\011/* MoveDirectAbsPt */
MDAP[0]\011/* MoveDirectAbsPt */
MDAP[0]\011/* MoveDirectAbsPt */
MDAP[0]\011/* MoveDirectAbsPt */
SVTCA[0]\011/* SetFreedomAndProjectionVectorToAxis */
MDAP[0]\011/* MoveDirectAbsPt */
MDAP[0]\011/* MoveDirectAbsPt */
MDAP[0]\011/* MoveDirectAbsPt */
IUP[1]\011/* InterpolateUntPts */
IUP[0]\011/* InterpolateUntPts */
SVTCA[1]\011/* SetFreedomAndProjectionVectorToAxis */
MD[0]\011/* MeasureDistance */
ROUND[00]\011/* Round */
PUSHW[ ]\011/* 2 values pushed */
18 51 
MD[0]\011/* MeasureDistance */
ROUND[00]\011/* Round */
SUB[ ]\011/* Subtract */
PUSHB[ ]\011/* 1 value pushed */
64 
GT[ ]\011/* GreaterThan */
IF[ ]\011/* If */
SHPIX[ ]\011/* ShiftZoneByPixel */
SRP1[ ]\011/* SetRefPoint1 */
SHZ[1]\011/* ShiftZoneByLastPoint */
PUSHW[ ]\011/* 2 values pushed */
51 -64 
SHPIX[ ]\011/* ShiftZoneByPixel */
EIF[ ]\011/* EndIf */";
};
width = 393;
}
);
note = equal;
unicode = 003D;
},
{
glyphname = greater;
lastChange = "2019-03-01 18:48:01 +0000";
layers = (
{
layerId = "93C069E7-FFAA-4B97-8A94-34C303BF132C";
paths = (
{
closed = 1;
nodes = (
"339 349 OFFCURVE",
"336.667 352.667 OFFCURVE",
"332 356 CURVE",
"304 378.667 OFFCURVE",
"68.333 523 OFFCURVE",
"55 523 CURVE SMOOTH",
"47 523 OFFCURVE",
"35.667 515 OFFCURVE",
"21 499 CURVE",
"21 497.667 OFFCURVE",
"20.667 496.333 OFFCURVE",
"20 495 CURVE",
"20 493.667 OFFCURVE",
"23 485.667 OFFCURVE",
"29 471 CURVE",
"49 459 OFFCURVE",
"88.333 437.333 OFFCURVE",
"147 406 CURVE SMOOTH",
"196.333 379.333 OFFCURVE",
"235 356.667 OFFCURVE",
"263 338 CURVE",
"220.333 314.667 OFFCURVE",
"177.667 291.333 OFFCURVE",
"135 268 CURVE SMOOTH",
"65 228.667 OFFCURVE",
"30 205.667 OFFCURVE",
"30 199 CURVE SMOOTH",
"30 180.333 OFFCURVE",
"42.667 167 OFFCURVE",
"68 159 CURVE",
"327 327 LINE SMOOTH",
"335 332.333 OFFCURVE",
"339 338.333 OFFCURVE",
"339 345 CURVE SMOOTH"
);
}
);
userData = {
assembly = "NPUSHB[ ]\011/* 15 values pushed */
1 24 24 64 25 0 15 9 5 0 19 3 1 15 70 
SROUND[ ]\011/* SuperRound */
MDAP[1]\011/* MoveDirectAbsPt */
SHZ[1]\011/* ShiftZoneByLastPoint */
RTG[ ]\011/* RoundToGrid */
SVTCA[0]\011/* SetFreedomAndProjectionVectorToAxis */
MDAP[1]\011/* MoveDirectAbsPt */
MDAP[1]\011/* MoveDirectAbsPt */
SVTCA[1]\011/* SetFreedomAndProjectionVectorToAxis */
MDAP[0]\011/* MoveDirectAbsPt */
MDAP[0]\011/* MoveDirectAbsPt */
MDAP[0]\011/* MoveDirectAbsPt */
MDAP[0]\011/* MoveDirectAbsPt */
SVTCA[0]\011/* SetFreedomAndProjectionVectorToAxis */
IUP[1]\011/* InterpolateUntPts */
IUP[0]\011/* InterpolateUntPts */
SVTCA[1]\011/* SetFreedomAndProjectionVectorToAxis */
MD[0]\011/* MeasureDistance */
ROUND[00]\011/* Round */
PUSHW[ ]\011/* 2 values pushed */
15 24 
MD[0]\011/* MeasureDistance */
ROUND[00]\011/* Round */
SUB[ ]\011/* Subtract */
PUSHB[ ]\011/* 1 value pushed */
64 
GT[ ]\011/* GreaterThan */
IF[ ]\011/* If */
SHPIX[ ]\011/* ShiftZoneByPixel */
SRP1[ ]\011/* SetRefPoint1 */
SHZ[1]\011/* ShiftZoneByLastPoint */
PUSHW[ ]\011/* 2 values pushed */
24 -64 
SHPIX[ ]\011/* ShiftZoneByPixel */
EIF[ ]\011/* EndIf */";
};
width = 359;
}
);
note = greater;
unicode = 003E;
},
{
glyphname = question;
lastChange = "2019-03-01 18:48:01 +0000";
layers = (
{
layerId = "93C069E7-FFAA-4B97-8A94-34C303BF132C";
paths = (
{
closed = 1;
nodes = (
"486 545.333 OFFCURVE",
"461.667 582.333 OFFCURVE",
"413 617 CURVE SMOOTH",
"368.333 649 OFFCURVE",
"325.333 665 OFFCURVE",
"284 665 CURVE SMOOTH",
"263.333 665 OFFCURVE",
"229 656.333 OFFCURVE",
"181 639 CURVE SMOOTH",
"154.333 629.667 OFFCURVE",
"122 608.667 OFFCURVE",
"84 576 CURVE SMOOTH",
"41.333 538.667 OFFCURVE",
"20 509 OFFCURVE",
"20 487 CURVE SMOOTH",
"20 463 OFFCURVE",
"62 428 OFFCURVE",
"86 428 CURVE SMOOTH",
"100.667 428 OFFCURVE",
"129 447.333 OFFCURVE",
"129 462 CURVE SMOOTH",
"129 472.667 OFFCURVE",
"120.667 478 OFFCURVE",
"104 478 CURVE SMOOTH",
"102 478 OFFCURVE",
"99 477.333 OFFCURVE",
"95 476 CURVE SMOOTH",
"91 474.667 OFFCURVE",
"88 474 OFFCURVE",
"86 474 CURVE SMOOTH",
"81.333 474 OFFCURVE",
"78 475.667 OFFCURVE",
"76 479 CURVE",
"109.333 537.667 OFFCURVE",
"235.667 612 OFFCURVE",
"301 612 CURVE SMOOTH",
"333.667 612 OFFCURVE",
"361.333 602.667 OFFCURVE",
"384 584 CURVE SMOOTH",
"408 563.333 OFFCURVE",
"420 537.333 OFFCURVE",
"420 506 CURVE SMOOTH",
"420 462 OFFCURVE",
"374.333 408 OFFCURVE",
"283 344 CURVE SMOOTH",
"251 322.667 OFFCURVE",
"218.667 301.667 OFFCURVE",
"186 281 CURVE",
"146 251.667 OFFCURVE",
"126 221.667 OFFCURVE",
"126 191 CURVE SMOOTH",
"126 167 OFFCURVE",
"174 112 OFFCURVE",
"198 112 CURVE SMOOTH",
"202.667 112 OFFCURVE",
"206 113.333 OFFCURVE",
"208 116 CURVE",
"208 146.667 OFFCURVE",
"188.667 153.667 OFFCURVE",
"170 167 CURVE",
"172 194.333 OFFCURVE",
"212.667 235.333 OFFCURVE",
"292 290 CURVE SMOOTH",
"382.667 352.667 OFFCURVE",
"437 397.667 OFFCURVE",
"455 425 CURVE SMOOTH",
"475.667 456.333 OFFCURVE",
"486 483.333 OFFCURVE",
"486 506 CURVE SMOOTH"
);
},
{
closed = 1;
nodes = (
"242 68 OFFCURVE",
"223 90 OFFCURVE",
"195 90 CURVE SMOOTH",
"185 90 OFFCURVE",
"173.667 87 OFFCURVE",
"161 81 CURVE SMOOTH",
"146.333 73.667 OFFCURVE",
"139 65.667 OFFCURVE",
"139 57 CURVE SMOOTH",
"139 21 OFFCURVE",
"165 -4 OFFCURVE",
"201 -4 CURVE SMOOTH",
"228.333 -4 OFFCURVE",
"242 10.667 OFFCURVE",
"242 40 CURVE SMOOTH"
);
}
);
userData = {
assembly = "NPUSHB[ ]\011/* 35 values pushed */
1 62 62 64 63 0 37 32 29 11 27 14 9 6 34 5 40 50 5 55 20 5 0 59 6 52 24 6 46 46 52 1 1 40 70 
SROUND[ ]\011/* SuperRound */
MDAP[1]\011/* MoveDirectAbsPt */
SHZ[1]\011/* ShiftZoneByLastPoint */
RTG[ ]\011/* RoundToGrid */
SVTCA[0]\011/* SetFreedomAndProjectionVectorToAxis */
MIAP[1]\011/* MoveIndirectAbsPt */
MDAP[1]\011/* MoveDirectAbsPt */
SRP0[ ]\011/* SetRefPoint0 */
MIRP[11101]\011/* MoveIndirectRelPt */
SRP0[ ]\011/* SetRefPoint0 */
MIRP[11101]\011/* MoveIndirectRelPt */
SVTCA[1]\011/* SetFreedomAndProjectionVectorToAxis */
MDAP[1]\011/* MoveDirectAbsPt */
MIRP[11101]\011/* MoveIndirectRelPt */
MDAP[1]\011/* MoveDirectAbsPt */
MIRP[11101]\011/* MoveIndirectRelPt */
MDAP[1]\011/* MoveDirectAbsPt */
MIRP[11101]\011/* MoveIndirectRelPt */
MDAP[0]\011/* MoveDirectAbsPt */
MDAP[0]\011/* MoveDirectAbsPt */
MDAP[0]\011/* MoveDirectAbsPt */
MDAP[0]\011/* MoveDirectAbsPt */
SVTCA[0]\011/* SetFreedomAndProjectionVectorToAxis */
MDAP[0]\011/* MoveDirectAbsPt */
MDAP[0]\011/* MoveDirectAbsPt */
MDAP[0]\011/* MoveDirectAbsPt */
MDAP[0]\011/* MoveDirectAbsPt */
IUP[1]\011/* InterpolateUntPts */
IUP[0]\011/* InterpolateUntPts */
SVTCA[1]\011/* SetFreedomAndProjectionVectorToAxis */
MD[0]\011/* MeasureDistance */
ROUND[00]\011/* Round */
PUSHW[ ]\011/* 2 values pushed */
40 62 
MD[0]\011/* MeasureDistance */
ROUND[00]\011/* Round */
SUB[ ]\011/* Subtract */
PUSHB[ ]\011/* 1 value pushed */
64 
GT[ ]\011/* GreaterThan */
IF[ ]\011/* If */
SHPIX[ ]\011/* ShiftZoneByPixel */
SRP1[ ]\011/* SetRefPoint1 */
SHZ[1]\011/* ShiftZoneByLastPoint */
PUSHW[ ]\011/* 2 values pushed */
62 -64 
SHPIX[ ]\011/* ShiftZoneByPixel */
EIF[ ]\011/* EndIf */";
};
width = 506;
}
);
note = question;
unicode = 003F;
},
{
glyphname = at;
lastChange = "2019-03-01 18:48:01 +0000";
layers = (
{
layerId = "93C069E7-FFAA-4B97-8A94-34C303BF132C";
paths = (
{
closed = 1;
nodes = (
"483.156 198.411 OFFCURVE",
"478 193.511 OFFCURVE",
"478 160 CURVE SMOOTH",
"478 119.02 OFFCURVE",
"522.303 47 OFFCURVE",
"586 47 CURVE SMOOTH",
"624.667 47 OFFCURVE",
"678.167 65.5 OFFCURVE",
"721.5 111.5 CURVE SMOOTH",
"764.833 157.5 OFFCURVE",
"799 233 OFFCURVE",
"799 345 CURVE SMOOTH",
"799 445 OFFCURVE",
"753 526.833 OFFCURVE",
"681 583.5 CURVE SMOOTH",
"609 640.167 OFFCURVE",
"509.667 672 OFFCURVE",
"403 672 CURVE SMOOTH",
"331 672 OFFCURVE",
"240.5 635.333 OFFCURVE",
"166.5 562 CURVE SMOOTH",
"92.5 488.667 OFFCURVE",
"37 378.333 OFFCURVE",
"37 233 CURVE SMOOTH",
"37 78.333 OFFCURVE",
"89.333 -21.5 OFFCURVE",
"164 -83.5 CURVE SMOOTH",
"238.667 -145.5 OFFCURVE",
"336.333 -168 OFFCURVE",
"427 -168 CURVE SMOOTH",
"508.333 -168 OFFCURVE",
"615.667 -138.667 OFFCURVE",
"713 -64 CURVE SMOOTH",
"725.171 -54.872 OFFCURVE",
"734.88 -12.36 OFFCURVE",
"720 5 CURVE SMOOTH",
"708.483 18.821 OFFCURVE",
"698.67 6.56 OFFCURVE",
"687 -9 CURVE",
"637.008 -58.992 OFFCURVE",
"536.986 -127 OFFCURVE",
"411 -127 CURVE SMOOTH",
"339 -127 OFFCURVE",
"261 -114.167 OFFCURVE",
"201 -65.5 CURVE SMOOTH",
"141 -16.833 OFFCURVE",
"98 66.333 OFFCURVE",
"98 209 CURVE SMOOTH",
"98 307.667 OFFCURVE",
"122.333 388.333 OFFCURVE",
"161 451 CURVE SMOOTH",
"180.333 482.333 OFFCURVE",
"202.5 509.333 OFFCURVE",
"227.5 532 CURVE SMOOTH",
"277.5 577.333 OFFCURVE",
"331.667 607.5 OFFCURVE",
"385 621.5 CURVE SMOOTH",
"411.667 628.5 OFFCURVE",
"436.667 632 OFFCURVE",
"460 632 CURVE SMOOTH",
"528 632 OFFCURVE",
"597.5 614 OFFCURVE",
"651.5 570 CURVE SMOOTH",
"705.5 526 OFFCURVE",
"742 457.333 OFFCURVE",
"742 356 CURVE SMOOTH",
"742 208.045 OFFCURVE",
"689.41 83 OFFCURVE",
"612 83 CURVE SMOOTH",
"549.83 83 OFFCURVE",
"514.835 171.729 OFFCURVE",
"525 209 CURVE SMOOTH",
"529 223.667 OFFCURVE",
"532.667 233.333 OFFCURVE",
"536 238 CURVE SMOOTH",
"539.333 242.667 OFFCURVE",
"543 248 OFFCURVE",
"547 254 CURVE",
"549 256.667 OFFCURVE",
"550 259.333 OFFCURVE",
"550 262 CURVE SMOOTH",
"550 267.333 OFFCURVE",
"545.333 270 OFFCURVE",
"536 270 CURVE SMOOTH",
"505.333 270 OFFCURVE",
"494.667 248 OFFCURVE",
"492 236 CURVE SMOOTH"
);
},
{
closed = 1;
nodes = (
"526.09 409.516 OFFCURVE",
"478.302 460 OFFCURVE",
"429 460 CURVE SMOOTH",
"351.478 460 OFFCURVE",
"281.408 359.669 OFFCURVE",
"267 242 CURVE SMOOTH",
"253.483 136.571 OFFCURVE",
"293.178 44 OFFCURVE",
"397 44 CURVE SMOOTH",
"447.083 44 OFFCURVE",
"479.831 79.067 OFFCURVE",
"496 120.5 CURVE SMOOTH",
"510.059 156.527 OFFCURVE",
"513.236 189.178 OFFCURVE",
"518 213 CURVE",
"495 220 LINE",
"486.218 184.874 OFFCURVE",
"444.528 77 OFFCURVE",
"388 77 CURVE SMOOTH",
"324 77 OFFCURVE",
"305.667 138 OFFCURVE",
"327 254 CURVE SMOOTH",
"345.767 354.872 OFFCURVE",
"397.187 419 OFFCURVE",
"455 419 CURVE SMOOTH",
"495.757 419 OFFCURVE",
"517.682 385.411 OFFCURVE",
"511 303 CURVE",
"511 284.684 OFFCURVE",
"504.379 262 OFFCURVE",
"534 262 CURVE SMOOTH",
"557.541 262 OFFCURVE",
"564 282.648 OFFCURVE",
"564 298 CURVE SMOOTH",
"564 316.667 OFFCURVE",
"559.667 352.667 OFFCURVE",
"545 378 CURVE SMOOTH"
);
}
);
userData = {
assembly = "PUSHW[ ]\011/* 1 value pushed */
20 
CALL[ ]\011/* CallFunction */
PUSHW[ ]\011/* 1 value pushed */
139 
MDAP[1]\011/* MoveDirectAbsPt */
PUSHW[ ]\011/* 1 value pushed */
20 
MDAP[1]\011/* MoveDirectAbsPt */
NPUSHW[ ]\011/* 5 values pushed */
90 20 106 20 2 
DELTAP2[ ]\011/* DeltaExceptionP2 */
NPUSHW[ ]\011/* 21 values pushed */
105 20 121 20 137 20 153 20 169 20 185 20 201 20 217 20 233 20 249 20 10 
DELTAP1[ ]\011/* DeltaExceptionP1 */
NPUSHW[ ]\011/* 11 values pushed */
9 20 25 20 41 20 57 20 73 20 5 
DELTAP2[ ]\011/* DeltaExceptionP2 */
PUSHW[ ]\011/* 1 value pushed */
139 
SRP0[ ]\011/* SetRefPoint0 */
PUSHW[ ]\011/* 1 value pushed */
60 
MDRP[10000]\011/* MoveDirectRelPt */
PUSHW[ ]\011/* 1 value pushed */
60 
MDAP[1]\011/* MoveDirectAbsPt */
PUSHW[ ]\011/* 2 values pushed */
32 934 
MIRP[10100]\011/* MoveIndirectRelPt */
NPUSHW[ ]\011/* 21 values pushed */
102 32 118 32 134 32 150 32 166 32 182 32 198 32 214 32 230 32 246 32 10 
DELTAP1[ ]\011/* DeltaExceptionP1 */
NPUSHW[ ]\011/* 11 values pushed */
6 32 22 32 38 32 54 32 70 32 5 
DELTAP2[ ]\011/* DeltaExceptionP2 */
NPUSHW[ ]\011/* 5 values pushed */
85 32 101 32 2 
DELTAP2[ ]\011/* DeltaExceptionP2 */
PUSHW[ ]\011/* 1 value pushed */
20 
SRP0[ ]\011/* SetRefPoint0 */
PUSHW[ ]\011/* 2 values pushed */
70 934 
MIRP[10100]\011/* MoveIndirectRelPt */
PUSHW[ ]\011/* 1 value pushed */
140 
MDRP[11100]\011/* MoveDirectRelPt */
SVTCA[0]\011/* SetFreedomAndProjectionVectorToAxis */
PUSHW[ ]\011/* 4 values pushed */
37 928 55 24 
CALL[ ]\011/* CallFunction */
PUSHW[ ]\011/* 4 values pushed */
65 928 25 24 
CALL[ ]\011/* CallFunction */
PUSHW[ ]\011/* 4 values pushed */
111 929 124 24 
CALL[ ]\011/* CallFunction */
PUSHW[ ]\011/* 4 values pushed */
134 928 103 24 
CALL[ ]\011/* CallFunction */
PUSHW[ ]\011/* 1 value pushed */
124 
SRP0[ ]\011/* SetRefPoint0 */
PUSHW[ ]\011/* 1 value pushed */
75 
MDRP[10000]\011/* MoveDirectRelPt */
PUSHW[ ]\011/* 1 value pushed */
75 
MDAP[1]\011/* MoveDirectAbsPt */
PUSHW[ ]\011/* 1 value pushed */
134 
SRP0[ ]\011/* SetRefPoint0 */
PUSHW[ ]\011/* 1 value pushed */
93 
MDRP[11100]\011/* MoveDirectRelPt */
IUP[0]\011/* InterpolateUntPts */
IUP[1]\011/* InterpolateUntPts */";
};
width = 831;
}
);
note = at;
unicode = 0040;
},
{
glyphname = A;
lastChange = "2019-03-01 18:48:01 +0000";
layers = (
{
layerId = "93C069E7-FFAA-4B97-8A94-34C303BF132C";
paths = (
{
closed = 1;
nodes = (
"498 197 OFFCURVE",
"492 202.333 OFFCURVE",
"480 205 CURVE SMOOTH",
"464 209 OFFCURVE",
"454 212.667 OFFCURVE",
"450 216 CURVE",
"436.667 346 OFFCURVE",
"425 434 OFFCURVE",
"415 480 CURVE SMOOTH",
"387 610.667 OFFCURVE",
"347.333 676 OFFCURVE",
"296 676 CURVE SMOOTH",
"248 676 OFFCURVE",
"180 551 OFFCURVE",
"92 301 CURVE SMOOTH",
"60 211.667 OFFCURVE",
"38.333 130 OFFCURVE",
"27 56 CURVE",
"26.333 52.667 OFFCURVE",
"23.333 44 OFFCURVE",
"18 30 CURVE SMOOTH",
"12.667 16 OFFCURVE",
"10 7 OFFCURVE",
"10 3 CURVE SMOOTH",
"10 -13 OFFCURVE",
"37.667 -35 OFFCURVE",
"55 -35 CURVE SMOOTH",
"61 -35 OFFCURVE",
"65.667 -32.667 OFFCURVE",
"69 -28 CURVE",
"69.667 -11.333 OFFCURVE",
"72.667 14.667 OFFCURVE",
"78 50 CURVE SMOOTH",
"84.667 93.333 OFFCURVE",
"91 117.333 OFFCURVE",
"97 122 CURVE",
"107.667 131.333 OFFCURVE",
"148 140.667 OFFCURVE",
"218 150 CURVE SMOOTH",
"279.333 158 OFFCURVE",
"324.333 162 OFFCURVE",
"353 162 CURVE SMOOTH",
"357.667 162 OFFCURVE",
"365.5 162.667 OFFCURVE",
"376.5 164 CURVE SMOOTH",
"387.5 165.333 OFFCURVE",
"396 165.667 OFFCURVE",
"402 165 CURVE",
"404 161 OFFCURVE",
"405 153 OFFCURVE",
"405 141 CURVE SMOOTH",
"405 135 OFFCURVE",
"405 124 OFFCURVE",
"405 108 CURVE",
"404.333 92 OFFCURVE",
"404 81 OFFCURVE",
"404 75 CURVE SMOOTH",
"404 52.333 OFFCURVE",
"406.667 35.667 OFFCURVE",
"412 25 CURVE",
"422 20.333 OFFCURVE",
"431 18 OFFCURVE",
"439 18 CURVE SMOOTH",
"457.667 18 OFFCURVE",
"475.667 29.667 OFFCURVE",
"477 47 CURVE",
"460.333 89 OFFCURVE",
"452 127 OFFCURVE",
"452 161 CURVE",
"459.333 158.333 OFFCURVE",
"466.333 157 OFFCURVE",
"473 157 CURVE SMOOTH",
"489.667 157 OFFCURVE",
"498 167.667 OFFCURVE",
"498 189 CURVE SMOOTH"
);
},
{
closed = 1;
nodes = (
"288.333 210.667 OFFCURVE",
"217.667 204.333 OFFCURVE",
"189 199 CURVE SMOOTH",
"152.333 192.333 OFFCURVE",
"132 189 OFFCURVE",
"128 189 CURVE SMOOTH",
"116 189 OFFCURVE",
"111.333 197 OFFCURVE",
"114 213 CURVE",
"118.667 230.333 OFFCURVE",
"123 243.333 OFFCURVE",
"127 252 CURVE",
"149.667 316 OFFCURVE",
"172.667 380 OFFCURVE",
"196 444 CURVE",
"237.333 545.333 OFFCURVE",
"271.667 596.667 OFFCURVE",
"299 598 CURVE SMOOTH",
"323.667 598.667 OFFCURVE",
"347 543 OFFCURVE",
"369 431 CURVE SMOOTH",
"373.667 406.333 OFFCURVE",
"384.333 335.333 OFFCURVE",
"401 218 CURVE"
);
}
);
userData = {
assembly = "NPUSHB[ ]\011/* 30 values pushed */
1 66 66 64 67 0 62 19 9 4 2 60 50 35 17 15 13 6 4 0 54 6 42 42 3 32 1 1 35 70 
SROUND[ ]\011/* SuperRound */
MDAP[1]\011/* MoveDirectAbsPt */
SHZ[1]\011/* ShiftZoneByLastPoint */
RTG[ ]\011/* RoundToGrid */
SVTCA[0]\011/* SetFreedomAndProjectionVectorToAxis */
MIAP[1]\011/* MoveIndirectAbsPt */
MIAP[1]\011/* MoveIndirectAbsPt */
SRP0[ ]\011/* SetRefPoint0 */
MIRP[11101]\011/* MoveIndirectRelPt */
SVTCA[1]\011/* SetFreedomAndProjectionVectorToAxis */
MDAP[0]\011/* MoveDirectAbsPt */
MDAP[0]\011/* MoveDirectAbsPt */
MDAP[0]\011/* MoveDirectAbsPt */
MDAP[0]\011/* MoveDirectAbsPt */
MDAP[0]\011/* MoveDirectAbsPt */
MDAP[0]\011/* MoveDirectAbsPt */
MDAP[0]\011/* MoveDirectAbsPt */
MDAP[0]\011/* MoveDirectAbsPt */
MDAP[0]\011/* MoveDirectAbsPt */
SVTCA[0]\011/* SetFreedomAndProjectionVectorToAxis */
MDAP[0]\011/* MoveDirectAbsPt */
MDAP[0]\011/* MoveDirectAbsPt */
MDAP[0]\011/* MoveDirectAbsPt */
MDAP[0]\011/* MoveDirectAbsPt */
MDAP[0]\011/* MoveDirectAbsPt */
IUP[1]\011/* InterpolateUntPts */
IUP[0]\011/* InterpolateUntPts */
SVTCA[1]\011/* SetFreedomAndProjectionVectorToAxis */
MD[0]\011/* MeasureDistance */
ROUND[00]\011/* Round */
PUSHW[ ]\011/* 2 values pushed */
35 66 
MD[0]\011/* MeasureDistance */
ROUND[00]\011/* Round */
SUB[ ]\011/* Subtract */
PUSHB[ ]\011/* 1 value pushed */
64 
GT[ ]\011/* GreaterThan */
IF[ ]\011/* If */
SHPIX[ ]\011/* ShiftZoneByPixel */
SRP1[ ]\011/* SetRefPoint1 */
SHZ[1]\011/* ShiftZoneByLastPoint */
PUSHW[ ]\011/* 2 values pushed */
66 -64 
SHPIX[ ]\011/* ShiftZoneByPixel */
EIF[ ]\011/* EndIf */";
};
width = 508;
}
);
note = A;
unicode = 0041;
},
{
glyphname = B;
lastChange = "2019-03-01 18:48:01 +0000";
layers = (
{
layerId = "93C069E7-FFAA-4B97-8A94-34C303BF132C";
paths = (
{
closed = 1;
nodes = (
"475 244 OFFCURVE",
"431.333 282.333 OFFCURVE",
"344 293 CURVE",
"377.333 303.667 OFFCURVE",
"404.667 331.667 OFFCURVE",
"426 377 CURVE SMOOTH",
"444.667 415.667 OFFCURVE",
"454 455 OFFCURVE",
"454 495 CURVE SMOOTH",
"454 548.333 OFFCURVE",
"441.667 592.667 OFFCURVE",
"417 628 CURVE SMOOTH",
"389.667 668 OFFCURVE",
"350 688 OFFCURVE",
"298 688 CURVE SMOOTH",
"208 688 OFFCURVE",
"140.333 629.667 OFFCURVE",
"95 513 CURVE",
"94.333 517 OFFCURVE",
"94 519 OFFCURVE",
"94 519 CURVE",
"94 545.667 OFFCURVE",
"99.333 589.667 OFFCURVE",
"110 651 CURVE",
"106.667 655.667 OFFCURVE",
"103 660 OFFCURVE",
"99 664 CURVE",
"97.667 666 OFFCURVE",
"91.667 667 OFFCURVE",
"81 667 CURVE SMOOTH",
"70.333 667 OFFCURVE",
"50 645.667 OFFCURVE",
"50 635 CURVE SMOOTH",
"50 301 LINE",
"37.333 294.333 OFFCURVE",
"31 286 OFFCURVE",
"31 276 CURVE SMOOTH",
"31 268 OFFCURVE",
"38 261.667 OFFCURVE",
"52 257 CURVE",
"53 222 LINE SMOOTH",
"53 209.333 OFFCURVE",
"52.5 190.667 OFFCURVE",
"51.5 166 CURVE SMOOTH",
"50.5 141.333 OFFCURVE",
"50 123.333 OFFCURVE",
"50 112 CURVE SMOOTH",
"50 100.667 OFFCURVE",
"50 95.333 OFFCURVE",
"50 96 CURVE",
"49.333 92.667 OFFCURVE",
"44.167 90.5 OFFCURVE",
"34.5 89.5 CURVE SMOOTH",
"24.833 88.5 OFFCURVE",
"20 83 OFFCURVE",
"20 73 CURVE SMOOTH",
"20 65 OFFCURVE",
"24.667 59 OFFCURVE",
"34 55 CURVE SMOOTH",
"58 44.333 OFFCURVE",
"56 51.667 OFFCURVE",
"60 9 CURVE",
"62 -5.667 OFFCURVE",
"69.333 -12.333 OFFCURVE",
"82 -11 CURVE",
"90 -15 LINE",
"97.333 -13 OFFCURVE",
"102.333 -8 OFFCURVE",
"105 0 CURVE",
"102.333 10.667 OFFCURVE",
"101 17 OFFCURVE",
"101 19 CURVE",
"101.667 20.333 OFFCURVE",
"102 21.667 OFFCURVE",
"102 23 CURVE",
"154 9.667 OFFCURVE",
"197 3 OFFCURVE",
"231 3 CURVE SMOOTH",
"339.667 3 OFFCURVE",
"416.333 43 OFFCURVE",
"461 123 CURVE SMOOTH",
"470.333 139 OFFCURVE",
"475 157.333 OFFCURVE",
"475 178 CURVE SMOOTH"
);
},
{
closed = 1;
nodes = (
"403 424.333 OFFCURVE",
"383.667 371.333 OFFCURVE",
"345 340 CURVE SMOOTH",
"310.333 312.667 OFFCURVE",
"254.667 299 OFFCURVE",
"178 299 CURVE SMOOTH",
"126 299 OFFCURVE",
"101.333 299 OFFCURVE",
"104 299 CURVE",
"104 387 LINE SMOOTH",
"104 439 OFFCURVE",
"122.333 494 OFFCURVE",
"159 552 CURVE SMOOTH",
"199.667 616.667 OFFCURVE",
"244.667 649 OFFCURVE",
"294 649 CURVE SMOOTH",
"366.667 649 OFFCURVE",
"403 599 OFFCURVE",
"403 499 CURVE SMOOTH"
);
},
{
closed = 1;
nodes = (
"424 144 OFFCURVE",
"400.667 110 OFFCURVE",
"354 82 CURVE SMOOTH",
"313.333 56.667 OFFCURVE",
"271.667 44 OFFCURVE",
"229 44 CURVE SMOOTH",
"176.333 44 OFFCURVE",
"134 53.333 OFFCURVE",
"102 72 CURVE",
"100.667 86 OFFCURVE",
"100 101.667 OFFCURVE",
"100 119 CURVE SMOOTH",
"100 188.333 OFFCURVE",
"100.333 234 OFFCURVE",
"101 256 CURVE",
"117.667 260 OFFCURVE",
"140 262 OFFCURVE",
"168 262 CURVE SMOOTH",
"239.333 262 OFFCURVE",
"289.333 259.667 OFFCURVE",
"318 255 CURVE SMOOTH",
"388.667 244.333 OFFCURVE",
"424 220.667 OFFCURVE",
"424 184 CURVE SMOOTH"
);
}
);
userData = {
assembly = "NPUSHB[ ]\011/* 54 values pushed */
1 86 86 64 87 0 45 37 6 55 41 31 20 43 4 23 8 78 4 29 28 64 10 63 4 34 33 25 3 23 57 4 51 70 4 0 82 7 4 59 7 47 66 33 64 7 74 47 3 12 1 1 20 70 
SROUND[ ]\011/* SuperRound */
MDAP[1]\011/* MoveDirectAbsPt */
SHZ[1]\011/* ShiftZoneByLastPoint */
RTG[ ]\011/* RoundToGrid */
SVTCA[0]\011/* SetFreedomAndProjectionVectorToAxis */
MIAP[1]\011/* MoveIndirectAbsPt */
MIAP[1]\011/* MoveIndirectAbsPt */
MDAP[1]\011/* MoveDirectAbsPt */
MIRP[11101]\011/* MoveIndirectRelPt */
ALIGNRP[ ]\011/* AlignRelativePt */
ALIGNRP[ ]\011/* AlignRelativePt */
SRP0[ ]\011/* SetRefPoint0 */
MIRP[11101]\011/* MoveIndirectRelPt */
MDAP[1]\011/* MoveDirectAbsPt */
MIRP[11101]\011/* MoveIndirectRelPt */
SVTCA[1]\011/* SetFreedomAndProjectionVectorToAxis */
MDAP[1]\011/* MoveDirectAbsPt */
MIRP[11101]\011/* MoveIndirectRelPt */
MDAP[1]\011/* MoveDirectAbsPt */
MIRP[11101]\011/* MoveIndirectRelPt */
MDAP[1]\011/* MoveDirectAbsPt */
SLOOP[ ]\011/* SetLoopVariable */
ALIGNRP[ ]\011/* AlignRelativePt */
MIRP[11101]\011/* MoveIndirectRelPt */
ALIGNRP[ ]\011/* AlignRelativePt */
ALIGNRP[ ]\011/* AlignRelativePt */
MDAP[1]\011/* MoveDirectAbsPt */
ALIGNRP[ ]\011/* AlignRelativePt */
MIRP[11101]\011/* MoveIndirectRelPt */
ALIGNRP[ ]\011/* AlignRelativePt */
SRP0[ ]\011/* SetRefPoint0 */
MIRP[11101]\011/* MoveIndirectRelPt */
MDAP[0]\011/* MoveDirectAbsPt */
MDAP[0]\011/* MoveDirectAbsPt */
MDAP[0]\011/* MoveDirectAbsPt */
MDAP[0]\011/* MoveDirectAbsPt */
SVTCA[0]\011/* SetFreedomAndProjectionVectorToAxis */
MDAP[0]\011/* MoveDirectAbsPt */
MDAP[0]\011/* MoveDirectAbsPt */
MDAP[0]\011/* MoveDirectAbsPt */
IUP[1]\011/* InterpolateUntPts */
IUP[0]\011/* InterpolateUntPts */
SVTCA[1]\011/* SetFreedomAndProjectionVectorToAxis */
MD[0]\011/* MeasureDistance */
ROUND[00]\011/* Round */
PUSHW[ ]\011/* 2 values pushed */
20 86 
MD[0]\011/* MeasureDistance */
ROUND[00]\011/* Round */
SUB[ ]\011/* Subtract */
PUSHB[ ]\011/* 1 value pushed */
64 
GT[ ]\011/* GreaterThan */
IF[ ]\011/* If */
SHPIX[ ]\011/* ShiftZoneByPixel */
SRP1[ ]\011/* SetRefPoint1 */
SHZ[1]\011/* ShiftZoneByLastPoint */
PUSHW[ ]\011/* 2 values pushed */
86 -64 
SHPIX[ ]\011/* ShiftZoneByPixel */
EIF[ ]\011/* EndIf */";
};
width = 505;
}
);
note = B;
unicode = 0042;
},
{
glyphname = C;
lastChange = "2019-03-01 18:48:01 +0000";
layers = (
{
layerId = "93C069E7-FFAA-4B97-8A94-34C303BF132C";
paths = (
{
closed = 1;
nodes = (
"468 168.667 OFFCURVE",
"461.333 176 OFFCURVE",
"448 176 CURVE SMOOTH",
"440 176 OFFCURVE",
"433.333 171.667 OFFCURVE",
"428 163 CURVE",
"419.333 145 OFFCURVE",
"413.667 131 OFFCURVE",
"411 121 CURVE",
"380.333 59.667 OFFCURVE",
"319.333 20 OFFCURVE",
"250 20 CURVE SMOOTH",
"186.667 20 OFFCURVE",
"140 45.333 OFFCURVE",
"110 96 CURVE SMOOTH",
"86 136.667 OFFCURVE",
"74 191.333 OFFCURVE",
"74 260 CURVE SMOOTH",
"74 363.333 OFFCURVE",
"91 450.333 OFFCURVE",
"125 521 CURVE SMOOTH",
"140.333 551.667 OFFCURVE",
"158.667 578.667 OFFCURVE",
"180 602 CURVE SMOOTH",
"208.667 633.333 OFFCURVE",
"236 649 OFFCURVE",
"262 649 CURVE SMOOTH",
"294.667 649 OFFCURVE",
"320.333 625.667 OFFCURVE",
"339 579 CURVE SMOOTH",
"353.667 543 OFFCURVE",
"361 505.333 OFFCURVE",
"361 466 CURVE SMOOTH",
"361 401.333 OFFCURVE",
"352.333 360.667 OFFCURVE",
"335 344 CURVE",
"326.333 337.333 OFFCURVE",
"320 332.667 OFFCURVE",
"316 330 CURVE",
"322 315.333 OFFCURVE",
"332 308 OFFCURVE",
"346 308 CURVE SMOOTH",
"364 308 OFFCURVE",
"378.667 332 OFFCURVE",
"390 380 CURVE SMOOTH",
"398.667 416.667 OFFCURVE",
"403 449 OFFCURVE",
"403 477 CURVE SMOOTH",
"403 533.667 OFFCURVE",
"393 581.333 OFFCURVE",
"373 620 CURVE SMOOTH",
"347.667 669.333 OFFCURVE",
"309.333 694 OFFCURVE",
"258 694 CURVE SMOOTH",
"223.333 694 OFFCURVE",
"189 679 OFFCURVE",
"155 649 CURVE SMOOTH",
"109 609 OFFCURVE",
"74.333 552.333 OFFCURVE",
"51 479 CURVE SMOOTH",
"30.333 416.333 OFFCURVE",
"20 349.667 OFFCURVE",
"20 279 CURVE SMOOTH",
"20 196.333 OFFCURVE",
"36.667 128.667 OFFCURVE",
"70 76 CURVE SMOOTH",
"109.333 12 OFFCURVE",
"168 -20 OFFCURVE",
"246 -20 CURVE SMOOTH",
"292 -20 OFFCURVE",
"334.667 -8.667 OFFCURVE",
"374 14 CURVE SMOOTH",
"416.667 38.667 OFFCURVE",
"445 71.333 OFFCURVE",
"459 112 CURVE SMOOTH",
"465 129.333 OFFCURVE",
"468 143.333 OFFCURVE",
"468 154 CURVE SMOOTH"
);
}
);
userData = {
assembly = "NPUSHB[ ]\011/* 29 values pushed */
1 53 53 64 54 0 51 24 26 0 30 4 20 40 4 10 44 7 6 34 6 16 16 3 6 1 1 10 70 
SROUND[ ]\011/* SuperRound */
MDAP[1]\011/* MoveDirectAbsPt */
SHZ[1]\011/* ShiftZoneByLastPoint */
RTG[ ]\011/* RoundToGrid */
SVTCA[0]\011/* SetFreedomAndProjectionVectorToAxis */
MIAP[1]\011/* MoveIndirectAbsPt */
MIAP[1]\011/* MoveIndirectAbsPt */
SRP0[ ]\011/* SetRefPoint0 */
MIRP[11101]\011/* MoveIndirectRelPt */
SRP0[ ]\011/* SetRefPoint0 */
MIRP[11101]\011/* MoveIndirectRelPt */
SVTCA[1]\011/* SetFreedomAndProjectionVectorToAxis */
MDAP[1]\011/* MoveDirectAbsPt */
MIRP[11101]\011/* MoveIndirectRelPt */
MDAP[1]\011/* MoveDirectAbsPt */
MIRP[11101]\011/* MoveIndirectRelPt */
MDAP[0]\011/* MoveDirectAbsPt */
MDAP[0]\011/* MoveDirectAbsPt */
SVTCA[0]\011/* SetFreedomAndProjectionVectorToAxis */
MDAP[0]\011/* MoveDirectAbsPt */
MDAP[0]\011/* MoveDirectAbsPt */
IUP[1]\011/* InterpolateUntPts */
IUP[0]\011/* InterpolateUntPts */
SVTCA[1]\011/* SetFreedomAndProjectionVectorToAxis */
MD[0]\011/* MeasureDistance */
ROUND[00]\011/* Round */
PUSHW[ ]\011/* 2 values pushed */
10 53 
MD[0]\011/* MeasureDistance */
ROUND[00]\011/* Round */
SUB[ ]\011/* Subtract */
PUSHB[ ]\011/* 1 value pushed */
64 
GT[ ]\011/* GreaterThan */
IF[ ]\011/* If */
SHPIX[ ]\011/* ShiftZoneByPixel */
SRP1[ ]\011/* SetRefPoint1 */
SHZ[1]\011/* ShiftZoneByLastPoint */
PUSHW[ ]\011/* 2 values pushed */
53 -64 
SHPIX[ ]\011/* ShiftZoneByPixel */
EIF[ ]\011/* EndIf */";
};
width = 478;
}
);
note = C;
unicode = 0043;
},
{
glyphname = D;
lastChange = "2019-03-01 18:48:01 +0000";
layers = (
{
layerId = "93C069E7-FFAA-4B97-8A94-34C303BF132C";
paths = (
{
closed = 1;
nodes = (
"469 495.667 OFFCURVE",
"454 558.333 OFFCURVE",
"424 607 CURVE SMOOTH",
"388 666.333 OFFCURVE",
"334 696 OFFCURVE",
"262 696 CURVE SMOOTH",
"223.333 696 OFFCURVE",
"191.667 685.333 OFFCURVE",
"167 664 CURVE SMOOTH",
"151 650.667 OFFCURVE",
"135.333 630 OFFCURVE",
"120 602 CURVE SMOOTH",
"104.667 574 OFFCURVE",
"93 557.667 OFFCURVE",
"85 553 CURVE",
"85 555 OFFCURVE",
"85 568 OFFCURVE",
"85 592 CURVE SMOOTH",
"85 599.333 OFFCURVE",
"87.167 608.833 OFFCURVE",
"91.5 620.5 CURVE SMOOTH",
"95.833 632.167 OFFCURVE",
"98 642 OFFCURVE",
"98 650 CURVE SMOOTH",
"98 664.667 OFFCURVE",
"74 680 OFFCURVE",
"58 680 CURVE SMOOTH",
"42 680 OFFCURVE",
"34 672.667 OFFCURVE",
"34 658 CURVE SMOOTH",
"34 656 OFFCURVE",
"34.333 653.167 OFFCURVE",
"35 649.5 CURVE SMOOTH",
"35.667 645.833 OFFCURVE",
"36 643.333 OFFCURVE",
"36 642 CURVE SMOOTH",
"36 585.333 OFFCURVE",
"35 501.833 OFFCURVE",
"33 391.5 CURVE SMOOTH",
"31 281.167 OFFCURVE",
"30 198 OFFCURVE",
"30 142 CURVE SMOOTH",
"30 68 OFFCURVE",
"34.667 18 OFFCURVE",
"44 -8 CURVE",
"51.333 -12.667 OFFCURVE",
"58.667 -15 OFFCURVE",
"66 -15 CURVE SMOOTH",
"69.333 -15 OFFCURVE",
"76.667 -7.667 OFFCURVE",
"88 7 CURVE",
"117.333 -16.333 OFFCURVE",
"148.667 -28 OFFCURVE",
"182 -28 CURVE SMOOTH",
"273.333 -28 OFFCURVE",
"346.667 26 OFFCURVE",
"402 134 CURVE SMOOTH",
"446.667 222.667 OFFCURVE",
"469 317.667 OFFCURVE",
"469 419 CURVE SMOOTH"
);
},
{
closed = 1;
nodes = (
"410 368 OFFCURVE",
"404.667 313.667 OFFCURVE",
"394 261 CURVE SMOOTH",
"381.333 201.667 OFFCURVE",
"357.333 149 OFFCURVE",
"322 103 CURVE SMOOTH",
"280 47 OFFCURVE",
"232.333 19 OFFCURVE",
"179 19 CURVE SMOOTH",
"148.333 19 OFFCURVE",
"123.667 31.667 OFFCURVE",
"105 57 CURVE SMOOTH",
"88.333 79.667 OFFCURVE",
"80 106.667 OFFCURVE",
"80 138 CURVE SMOOTH",
"80 345 LINE SMOOTH",
"80 389 OFFCURVE",
"85.333 430.333 OFFCURVE",
"96 469 CURVE SMOOTH",
"108 511.667 OFFCURVE",
"129 552 OFFCURVE",
"159 590 CURVE SMOOTH",
"195.667 636 OFFCURVE",
"232.667 659 OFFCURVE",
"270 659 CURVE SMOOTH",
"322.667 659 OFFCURVE",
"360.667 631 OFFCURVE",
"384 575 CURVE SMOOTH",
"401.333 535 OFFCURVE",
"410 484.667 OFFCURVE",
"410 424 CURVE SMOOTH"
);
}
);
userData = {
assembly = "NPUSHB[ ]\011/* 40 values pushed */
1 58 58 64 59 0 28 6 23 5 18 37 5 0 48 47 4 12 28 26 4 18 15 41 7 33 52 6 4 33 3 20 3 8 1 4 1 1 12 70 
SROUND[ ]\011/* SuperRound */
MDAP[1]\011/* MoveDirectAbsPt */
SHZ[1]\011/* ShiftZoneByLastPoint */
RTG[ ]\011/* RoundToGrid */
SVTCA[0]\011/* SetFreedomAndProjectionVectorToAxis */
MIAP[1]\011/* MoveIndirectAbsPt */
MIAP[1]\011/* MoveIndirectAbsPt */
MIAP[1]\011/* MoveIndirectAbsPt */
MIAP[1]\011/* MoveIndirectAbsPt */
SRP0[ ]\011/* SetRefPoint0 */
MIRP[11101]\011/* MoveIndirectRelPt */
SRP0[ ]\011/* SetRefPoint0 */
MIRP[11101]\011/* MoveIndirectRelPt */
SVTCA[1]\011/* SetFreedomAndProjectionVectorToAxis */
MDAP[1]\011/* MoveDirectAbsPt */
ALIGNRP[ ]\011/* AlignRelativePt */
MIRP[11101]\011/* MoveIndirectRelPt */
ALIGNRP[ ]\011/* AlignRelativePt */
MDAP[1]\011/* MoveDirectAbsPt */
MIRP[11101]\011/* MoveIndirectRelPt */
ALIGNRP[ ]\011/* AlignRelativePt */
MDAP[1]\011/* MoveDirectAbsPt */
MIRP[11101]\011/* MoveIndirectRelPt */
SRP0[ ]\011/* SetRefPoint0 */
MIRP[11101]\011/* MoveIndirectRelPt */
SVTCA[0]\011/* SetFreedomAndProjectionVectorToAxis */
MDAP[0]\011/* MoveDirectAbsPt */
MDAP[0]\011/* MoveDirectAbsPt */
IUP[1]\011/* InterpolateUntPts */
IUP[0]\011/* InterpolateUntPts */
SVTCA[1]\011/* SetFreedomAndProjectionVectorToAxis */
MD[0]\011/* MeasureDistance */
ROUND[00]\011/* Round */
PUSHW[ ]\011/* 2 values pushed */
12 58 
MD[0]\011/* MeasureDistance */
ROUND[00]\011/* Round */
SUB[ ]\011/* Subtract */
PUSHB[ ]\011/* 1 value pushed */
64 
GT[ ]\011/* GreaterThan */
IF[ ]\011/* If */
SHPIX[ ]\011/* ShiftZoneByPixel */
SRP1[ ]\011/* SetRefPoint1 */
SHZ[1]\011/* ShiftZoneByLastPoint */
PUSHW[ ]\011/* 2 values pushed */
58 -64 
SHPIX[ ]\011/* ShiftZoneByPixel */
EIF[ ]\011/* EndIf */";
};
width = 499;
}
);
note = D;
unicode = 0044;
},
{
glyphname = E;
lastChange = "2019-03-01 18:48:01 +0000";
layers = (
{
layerId = "93C069E7-FFAA-4B97-8A94-34C303BF132C";
paths = (
{
closed = 1;
nodes = (
"442.333 66 OFFCURVE",
"414.667 78 OFFCURVE",
"372 78 CURVE SMOOTH",
"347.333 78 OFFCURVE",
"311.833 69.667 OFFCURVE",
"265.5 53 CURVE SMOOTH",
"219.167 36.333 OFFCURVE",
"183.667 28 OFFCURVE",
"159 28 CURVE SMOOTH",
"107.667 28 OFFCURVE",
"82 78.333 OFFCURVE",
"82 179 CURVE SMOOTH",
"82 232.333 OFFCURVE",
"83.333 266.333 OFFCURVE",
"86 281 CURVE",
"119.333 297 OFFCURVE",
"241.667 329 OFFCURVE",
"275 329 CURVE SMOOTH",
"289.667 329 OFFCURVE",
"301.667 326 OFFCURVE",
"311 320 CURVE",
"329.667 326.667 OFFCURVE",
"338.333 331.333 OFFCURVE",
"337 334 CURVE",
"329 364 LINE",
"312.333 372.667 OFFCURVE",
"295.667 377 OFFCURVE",
"279 377 CURVE SMOOTH",
"258.333 377 OFFCURVE",
"228.333 370.667 OFFCURVE",
"189 358 CURVE SMOOTH",
"149.667 345.333 OFFCURVE",
"120 339 OFFCURVE",
"100 339 CURVE SMOOTH",
"95.333 339 OFFCURVE",
"91.667 340.667 OFFCURVE",
"89 344 CURVE",
"96.333 452 OFFCURVE",
"102.667 531.333 OFFCURVE",
"108 582 CURVE",
"124 595.333 OFFCURVE",
"165.333 608.333 OFFCURVE",
"232 621 CURVE SMOOTH",
"291.333 631.667 OFFCURVE",
"336.333 637 OFFCURVE",
"367 637 CURVE SMOOTH",
"401 637 OFFCURVE",
"418 643.667 OFFCURVE",
"418 657 CURVE SMOOTH",
"418 671.667 OFFCURVE",
"393.333 688.333 OFFCURVE",
"372 687 CURVE",
"366 688.333 OFFCURVE",
"361.333 689 OFFCURVE",
"358 689 CURVE SMOOTH",
"329.333 689 OFFCURVE",
"282 681 OFFCURVE",
"216 665 CURVE SMOOTH",
"143.333 647 OFFCURVE",
"94.667 636.667 OFFCURVE",
"70 634 CURVE SMOOTH",
"48 632 OFFCURVE",
"37 623 OFFCURVE",
"37 607 CURVE SMOOTH",
"37 603.667 OFFCURVE",
"37.833 597.833 OFFCURVE",
"39.5 589.5 CURVE SMOOTH",
"41.167 581.167 OFFCURVE",
"42 574.333 OFFCURVE",
"42 569 CURVE",
"42 569 OFFCURVE",
"41.333 558.333 OFFCURVE",
"40 537 CURVE SMOOTH",
"33.333 448.333 OFFCURVE",
"30 341.333 OFFCURVE",
"30 216 CURVE SMOOTH",
"30 58 OFFCURVE",
"77 -21 OFFCURVE",
"171 -21 CURVE SMOOTH",
"199.667 -21 OFFCURVE",
"241.167 -11.833 OFFCURVE",
"295.5 6.5 CURVE SMOOTH",
"349.833 24.833 OFFCURVE",
"391.333 34 OFFCURVE",
"420 34 CURVE SMOOTH",
"422.667 34 OFFCURVE",
"426.5 33.5 OFFCURVE",
"431.5 32.5 CURVE SMOOTH",
"436.5 31.5 OFFCURVE",
"440.333 31 OFFCURVE",
"443 31 CURVE SMOOTH",
"447.667 31 OFFCURVE",
"451.667 34.667 OFFCURVE",
"455 42 CURVE"
);
}
);
userData = {
assembly = "NPUSHB[ ]\011/* 37 values pushed */
1 60 60 64 61 0 46 38 2 53 44 28 17 14 0 36 5 10 58 6 5 55 6 8 30 6 25 48 6 41 23 3 8 1 1 10 70 
SROUND[ ]\011/* SuperRound */
MDAP[1]\011/* MoveDirectAbsPt */
SHZ[1]\011/* ShiftZoneByLastPoint */
RTG[ ]\011/* RoundToGrid */
SVTCA[0]\011/* SetFreedomAndProjectionVectorToAxis */
MIAP[1]\011/* MoveIndirectAbsPt */
MIAP[1]\011/* MoveIndirectAbsPt */
MDAP[1]\011/* MoveDirectAbsPt */
MIRP[11101]\011/* MoveIndirectRelPt */
MDAP[1]\011/* MoveDirectAbsPt */
MIRP[11101]\011/* MoveIndirectRelPt */
SRP0[ ]\011/* SetRefPoint0 */
MIRP[11101]\011/* MoveIndirectRelPt */
MDAP[1]\011/* MoveDirectAbsPt */
MIRP[11101]\011/* MoveIndirectRelPt */
SVTCA[1]\011/* SetFreedomAndProjectionVectorToAxis */
MDAP[1]\011/* MoveDirectAbsPt */
MIRP[11101]\011/* MoveIndirectRelPt */
MDAP[0]\011/* MoveDirectAbsPt */
MDAP[0]\011/* MoveDirectAbsPt */
MDAP[0]\011/* MoveDirectAbsPt */
MDAP[0]\011/* MoveDirectAbsPt */
MDAP[0]\011/* MoveDirectAbsPt */
MDAP[0]\011/* MoveDirectAbsPt */
SVTCA[0]\011/* SetFreedomAndProjectionVectorToAxis */
MDAP[0]\011/* MoveDirectAbsPt */
MDAP[0]\011/* MoveDirectAbsPt */
MDAP[0]\011/* MoveDirectAbsPt */
IUP[1]\011/* InterpolateUntPts */
IUP[0]\011/* InterpolateUntPts */
SVTCA[1]\011/* SetFreedomAndProjectionVectorToAxis */
MD[0]\011/* MeasureDistance */
ROUND[00]\011/* Round */
PUSHW[ ]\011/* 2 values pushed */
10 60 
MD[0]\011/* MeasureDistance */
ROUND[00]\011/* Round */
SUB[ ]\011/* Subtract */
PUSHB[ ]\011/* 1 value pushed */
64 
GT[ ]\011/* GreaterThan */
IF[ ]\011/* If */
SHPIX[ ]\011/* ShiftZoneByPixel */
SRP1[ ]\011/* SetRefPoint1 */
SHZ[1]\011/* ShiftZoneByLastPoint */
PUSHW[ ]\011/* 2 values pushed */
60 -64 
SHPIX[ ]\011/* ShiftZoneByPixel */
EIF[ ]\011/* EndIf */";
};
width = 465;
}
);
note = E;
unicode = 0045;
},
{
glyphname = F;
lastChange = "2019-03-01 18:48:01 +0000";
layers = (
{
layerId = "93C069E7-FFAA-4B97-8A94-34C303BF132C";
paths = (
{
closed = 1;
nodes = (
"395 661.667 OFFCURVE",
"365 675 OFFCURVE",
"327 675 CURVE SMOOTH",
"301 675 OFFCURVE",
"269 671.333 OFFCURVE",
"231 664 CURVE SMOOTH",
"199 657.333 OFFCURVE",
"167.333 650.667 OFFCURVE",
"136 644 CURVE",
"132.667 646 OFFCURVE",
"130.333 649.333 OFFCURVE",
"129 654 CURVE",
"129 661.333 OFFCURVE",
"129 668.333 OFFCURVE",
"129 675 CURVE",
"128.333 683.667 OFFCURVE",
"124.667 688 OFFCURVE",
"118 688 CURVE SMOOTH",
"110.667 688 OFFCURVE",
"101.667 685 OFFCURVE",
"91 679 CURVE SMOOTH",
"77.667 671 OFFCURVE",
"71 662 OFFCURVE",
"71 652 CURVE SMOOTH",
"71 647.333 OFFCURVE",
"70.333 642.333 OFFCURVE",
"69 637 CURVE",
"65 632.333 OFFCURVE",
"57.333 629.667 OFFCURVE",
"46 629 CURVE SMOOTH",
"32 628.333 OFFCURVE",
"23.667 627.333 OFFCURVE",
"21 626 CURVE",
"15 619.333 OFFCURVE",
"12 612.667 OFFCURVE",
"12 606 CURVE SMOOTH",
"12 600.667 OFFCURVE",
"17 594.667 OFFCURVE",
"27 588 CURVE",
"29.667 586 OFFCURVE",
"38.333 583.667 OFFCURVE",
"53 581 CURVE",
"62.333 579.667 OFFCURVE",
"67 574 OFFCURVE",
"67 564 CURVE SMOOTH",
"67 516.667 OFFCURVE",
"63.167 446.5 OFFCURVE",
"55.5 353.5 CURVE SMOOTH",
"47.833 260.5 OFFCURVE",
"44 190.333 OFFCURVE",
"44 143 CURVE SMOOTH",
"44 83 OFFCURVE",
"51 34.667 OFFCURVE",
"65 -2 CURVE",
"84.333 -12.667 OFFCURVE",
"94.333 -18 OFFCURVE",
"95 -18 CURVE SMOOTH",
"103 -18 OFFCURVE",
"123 -3.333 OFFCURVE",
"123 6 CURVE SMOOTH",
"123 8.667 OFFCURVE",
"121.167 12 OFFCURVE",
"117.5 16 CURVE SMOOTH",
"113.833 20 OFFCURVE",
"110.667 24 OFFCURVE",
"108 28 CURVE SMOOTH",
"103.333 35.333 OFFCURVE",
"101 70.333 OFFCURVE",
"101 133 CURVE SMOOTH",
"101 209 OFFCURVE",
"103.333 258 OFFCURVE",
"108 280 CURVE",
"180 302 OFFCURVE",
"244.667 313 OFFCURVE",
"302 313 CURVE SMOOTH",
"311.639 313 OFFCURVE",
"344.249 315.248 OFFCURVE",
"348 324 CURVE",
"345 349 LINE",
"337 361 OFFCURVE",
"326.333 367.667 OFFCURVE",
"313 369 CURVE",
"326.333 367.667 OFFCURVE",
"312.333 367 OFFCURVE",
"271 367 CURVE SMOOTH",
"242.333 367 OFFCURVE",
"196 359 OFFCURVE",
"132 343 CURVE",
"128.667 342.333 OFFCURVE",
"125.667 342 OFFCURVE",
"123 342 CURVE SMOOTH",
"113 342 OFFCURVE",
"108 349.333 OFFCURVE",
"108 364 CURVE SMOOTH",
"108 373.333 OFFCURVE",
"108.667 384.667 OFFCURVE",
"110 398 CURVE SMOOTH",
"131 586 LINE",
"150.333 588 OFFCURVE",
"187.667 596 OFFCURVE",
"243 610 CURVE SMOOTH",
"289.667 621.333 OFFCURVE",
"327 627 OFFCURVE",
"355 627 CURVE SMOOTH",
"359.667 627 OFFCURVE",
"366 626.5 OFFCURVE",
"374 625.5 CURVE SMOOTH",
"382 624.5 OFFCURVE",
"388 624 OFFCURVE",
"392 624 CURVE SMOOTH",
"401.333 624 OFFCURVE",
"409.667 627.667 OFFCURVE",
"417 635 CURVE"
);
}
);
userData = {
assembly = "NPUSHB[ ]\011/* 36 values pushed */
1 76 76 64 77 0 70 20 14 2 68 66 52 46 36 23 12 0 31 5 43 27 6 18 5 6 74 74 3 64 3 39 1 1 52 70 
SROUND[ ]\011/* SuperRound */
MDAP[1]\011/* MoveDirectAbsPt */
SHZ[1]\011/* ShiftZoneByLastPoint */
RTG[ ]\011/* RoundToGrid */
SVTCA[0]\011/* SetFreedomAndProjectionVectorToAxis */
MIAP[1]\011/* MoveIndirectAbsPt */
MIAP[1]\011/* MoveIndirectAbsPt */
MIAP[1]\011/* MoveIndirectAbsPt */
SRP0[ ]\011/* SetRefPoint0 */
MIRP[11101]\011/* MoveIndirectRelPt */
MDAP[1]\011/* MoveDirectAbsPt */
MIRP[11101]\011/* MoveIndirectRelPt */
SVTCA[1]\011/* SetFreedomAndProjectionVectorToAxis */
MDAP[1]\011/* MoveDirectAbsPt */
MIRP[11101]\011/* MoveIndirectRelPt */
MDAP[0]\011/* MoveDirectAbsPt */
MDAP[0]\011/* MoveDirectAbsPt */
MDAP[0]\011/* MoveDirectAbsPt */
MDAP[0]\011/* MoveDirectAbsPt */
MDAP[0]\011/* MoveDirectAbsPt */
MDAP[0]\011/* MoveDirectAbsPt */
MDAP[0]\011/* MoveDirectAbsPt */
MDAP[0]\011/* MoveDirectAbsPt */
SVTCA[0]\011/* SetFreedomAndProjectionVectorToAxis */
MDAP[0]\011/* MoveDirectAbsPt */
MDAP[0]\011/* MoveDirectAbsPt */
MDAP[0]\011/* MoveDirectAbsPt */
MDAP[0]\011/* MoveDirectAbsPt */
IUP[1]\011/* InterpolateUntPts */
IUP[0]\011/* InterpolateUntPts */
SVTCA[1]\011/* SetFreedomAndProjectionVectorToAxis */
MD[0]\011/* MeasureDistance */
ROUND[00]\011/* Round */
PUSHW[ ]\011/* 2 values pushed */
52 76 
MD[0]\011/* MeasureDistance */
ROUND[00]\011/* Round */
SUB[ ]\011/* Subtract */
PUSHB[ ]\011/* 1 value pushed */
64 
GT[ ]\011/* GreaterThan */
IF[ ]\011/* If */
SHPIX[ ]\011/* ShiftZoneByPixel */
SRP1[ ]\011/* SetRefPoint1 */
SHZ[1]\011/* ShiftZoneByLastPoint */
PUSHW[ ]\011/* 2 values pushed */
76 -64 
SHPIX[ ]\011/* ShiftZoneByPixel */
EIF[ ]\011/* EndIf */";
};
width = 410;
}
);
note = F;
unicode = 0046;
},
{
glyphname = G;
lastChange = "2019-03-01 18:48:01 +0000";
layers = (
{
layerId = "93C069E7-FFAA-4B97-8A94-34C303BF132C";
paths = (
{
closed = 1;
nodes = (
"463 217 OFFCURVE",
"420.333 252 OFFCURVE",
"367 252 CURVE SMOOTH",
"353 252 OFFCURVE",
"327 248.667 OFFCURVE",
"289 242 CURVE SMOOTH",
"249 235.333 OFFCURVE",
"224.667 229.333 OFFCURVE",
"216 224 CURVE SMOOTH",
"207.333 218.667 OFFCURVE",
"203 212 OFFCURVE",
"203 204 CURVE SMOOTH",
"203 168.667 OFFCURVE",
"214 151 OFFCURVE",
"236 151 CURVE",
"234.667 151 OFFCURVE",
"247.667 157.5 OFFCURVE",
"275 170.5 CURVE SMOOTH",
"302.333 183.5 OFFCURVE",
"339 190 OFFCURVE",
"385 190 CURVE SMOOTH",
"407.667 190 OFFCURVE",
"419 182.667 OFFCURVE",
"419 168 CURVE SMOOTH",
"419 158.667 OFFCURVE",
"412.333 142 OFFCURVE",
"399 118 CURVE SMOOTH",
"371 66 OFFCURVE",
"311.333 33 OFFCURVE",
"250 33 CURVE SMOOTH",
"239.333 33 OFFCURVE",
"225.333 35.667 OFFCURVE",
"208 41 CURVE SMOOTH",
"154 57 OFFCURVE",
"118 91 OFFCURVE",
"100 143 CURVE SMOOTH",
"88 176.333 OFFCURVE",
"82 228 OFFCURVE",
"82 298 CURVE SMOOTH",
"82 371.333 OFFCURVE",
"95 482.333 OFFCURVE",
"143 561 CURVE SMOOTH",
"173.667 611 OFFCURVE",
"209.667 636 OFFCURVE",
"251 636 CURVE SMOOTH",
"291.667 636 OFFCURVE",
"323.667 606 OFFCURVE",
"347 546 CURVE SMOOTH",
"365 500 OFFCURVE",
"374 453.333 OFFCURVE",
"374 406 CURVE SMOOTH",
"374 396 OFFCURVE",
"369.667 382.667 OFFCURVE",
"361 366 CURVE SMOOTH",
"352.333 349.333 OFFCURVE",
"348 339.667 OFFCURVE",
"348 337 CURVE SMOOTH",
"348 321.667 OFFCURVE",
"357.333 314 OFFCURVE",
"376 314 CURVE SMOOTH",
"408.667 314 OFFCURVE",
"425 354.667 OFFCURVE",
"425 436 CURVE SMOOTH",
"425 481.333 OFFCURVE",
"411.667 529.333 OFFCURVE",
"385 580 CURVE SMOOTH",
"357 634 OFFCURVE",
"323.667 668.667 OFFCURVE",
"285 684 CURVE SMOOTH",
"271 689.333 OFFCURVE",
"261 692 OFFCURVE",
"255 692 CURVE SMOOTH",
"177.667 692 OFFCURVE",
"116.667 644.333 OFFCURVE",
"72 549 CURVE SMOOTH",
"37.333 473.667 OFFCURVE",
"20 391.667 OFFCURVE",
"20 303 CURVE SMOOTH",
"20 215 OFFCURVE",
"34 144.667 OFFCURVE",
"62 92 CURVE SMOOTH",
"98.667 23.333 OFFCURVE",
"157 -11 OFFCURVE",
"237 -11 CURVE SMOOTH",
"298.333 -11 OFFCURVE",
"350.333 4 OFFCURVE",
"393 34 CURVE SMOOTH",
"439.667 66.667 OFFCURVE",
"463 110.333 OFFCURVE",
"463 165 CURVE SMOOTH"
);
}
);
userData = {
assembly = "NPUSHB[ ]\011/* 37 values pushed */
1 60 60 64 61 0 50 20 22 52 5 0 45 4 0 34 5 8 25 4 18 29 6 12 57 6 47 40 6 4 12 3 4 1 1 8 70 
SROUND[ ]\011/* SuperRound */
MDAP[1]\011/* MoveDirectAbsPt */
SHZ[1]\011/* ShiftZoneByLastPoint */
RTG[ ]\011/* RoundToGrid */
SVTCA[0]\011/* SetFreedomAndProjectionVectorToAxis */
MIAP[1]\011/* MoveIndirectAbsPt */
MIAP[1]\011/* MoveIndirectAbsPt */
SRP0[ ]\011/* SetRefPoint0 */
MIRP[11101]\011/* MoveIndirectRelPt */
MDAP[1]\011/* MoveDirectAbsPt */
MIRP[11101]\011/* MoveIndirectRelPt */
SRP0[ ]\011/* SetRefPoint0 */
MIRP[11101]\011/* MoveIndirectRelPt */
SVTCA[1]\011/* SetFreedomAndProjectionVectorToAxis */
MDAP[1]\011/* MoveDirectAbsPt */
MIRP[11101]\011/* MoveIndirectRelPt */
MDAP[1]\011/* MoveDirectAbsPt */
MIRP[11101]\011/* MoveIndirectRelPt */
MDAP[1]\011/* MoveDirectAbsPt */
MIRP[11101]\011/* MoveIndirectRelPt */
SRP0[ ]\011/* SetRefPoint0 */
MIRP[11101]\011/* MoveIndirectRelPt */
MDAP[0]\011/* MoveDirectAbsPt */
SVTCA[0]\011/* SetFreedomAndProjectionVectorToAxis */
MDAP[0]\011/* MoveDirectAbsPt */
MDAP[0]\011/* MoveDirectAbsPt */
IUP[1]\011/* InterpolateUntPts */
IUP[0]\011/* InterpolateUntPts */
SVTCA[1]\011/* SetFreedomAndProjectionVectorToAxis */
MD[0]\011/* MeasureDistance */
ROUND[00]\011/* Round */
PUSHW[ ]\011/* 2 values pushed */
8 60 
MD[0]\011/* MeasureDistance */
ROUND[00]\011/* Round */
SUB[ ]\011/* Subtract */
PUSHB[ ]\011/* 1 value pushed */
64 
GT[ ]\011/* GreaterThan */
IF[ ]\011/* If */
SHPIX[ ]\011/* ShiftZoneByPixel */
SRP1[ ]\011/* SetRefPoint1 */
SHZ[1]\011/* ShiftZoneByLastPoint */
PUSHW[ ]\011/* 2 values pushed */
60 -64 
SHPIX[ ]\011/* ShiftZoneByPixel */
EIF[ ]\011/* EndIf */";
};
width = 483;
}
);
note = G;
unicode = 0047;
},
{
glyphname = H;
lastChange = "2019-03-01 18:48:01 +0000";
layers = (
{
layerId = "93C069E7-FFAA-4B97-8A94-34C303BF132C";
paths = (
{
closed = 1;
nodes = (
"533.333 646.667 OFFCURVE",
"528.667 660.333 OFFCURVE",
"520 673 CURVE",
"509.333 687 OFFCURVE",
"497.333 694 OFFCURVE",
"484 694 CURVE SMOOTH",
"458 694 OFFCURVE",
"440 649.333 OFFCURVE",
"430 560 CURVE SMOOTH",
"423.333 503.333 OFFCURVE",
"420.667 446.667 OFFCURVE",
"422 390 CURVE SMOOTH",
"424 302 LINE SMOOTH",
"425.202 268.352 OFFCURVE",
"358.037 263 OFFCURVE",
"332 263 CURVE SMOOTH",
"308 263 OFFCURVE",
"260 256.333 OFFCURVE",
"188 243 CURVE SMOOTH",
"156 236.333 OFFCURVE",
"138.333 233 OFFCURVE",
"135 233 CURVE SMOOTH",
"123.667 233 OFFCURVE",
"118 248 OFFCURVE",
"118 278 CURVE SMOOTH",
"118 407.333 OFFCURVE",
"127 504 OFFCURVE",
"145 568 CURVE SMOOTH",
"145.667 570.667 OFFCURVE",
"149.333 580.333 OFFCURVE",
"156 597 CURVE SMOOTH",
"162 611 OFFCURVE",
"165 620 OFFCURVE",
"165 624 CURVE SMOOTH",
"165 645.333 OFFCURVE",
"140.333 661 OFFCURVE",
"119 661 CURVE SMOOTH",
"102.333 661 OFFCURVE",
"90.333 652 OFFCURVE",
"83 634 CURVE SMOOTH",
"67 592 OFFCURVE",
"59 512.667 OFFCURVE",
"59 396 CURVE SMOOTH",
"59 308 OFFCURVE",
"58.667 249.333 OFFCURVE",
"58 220 CURVE",
"54.667 219.333 OFFCURVE",
"53 219 OFFCURVE",
"53 219 CURVE SMOOTH",
"51.667 219 OFFCURVE",
"49.833 219.333 OFFCURVE",
"47.5 220 CURVE SMOOTH",
"45.167 220.667 OFFCURVE",
"43.333 221 OFFCURVE",
"42 221 CURVE SMOOTH",
"30 221 OFFCURVE",
"15 194.667 OFFCURVE",
"15 184 CURVE SMOOTH",
"15 168 OFFCURVE",
"32.667 157 OFFCURVE",
"50 157 CURVE",
"50 157 OFFCURVE",
"51.333 157.333 OFFCURVE",
"54 158 CURVE",
"61 148 LINE",
"61.667 116.667 OFFCURVE",
"62.667 85.333 OFFCURVE",
"64 54 CURVE SMOOTH",
"67.333 4 OFFCURVE",
"75.333 -21 OFFCURVE",
"88 -21 CURVE SMOOTH",
"98.164 -21 OFFCURVE",
"133.727 -12.886 OFFCURVE",
"138 1 CURVE",
"128 12.333 OFFCURVE",
"121.667 37.667 OFFCURVE",
"119 77 CURVE",
"119 103 OFFCURVE",
"118.667 128.667 OFFCURVE",
"118 154 CURVE",
"136 172 LINE",
"184 182 OFFCURVE",
"232 191.667 OFFCURVE",
"280 201 CURVE SMOOTH",
"336 211.667 OFFCURVE",
"384.667 217.333 OFFCURVE",
"426 218 CURVE",
"424 207.333 OFFCURVE",
"423 196 OFFCURVE",
"423 184 CURVE SMOOTH",
"423 161.333 OFFCURVE",
"436.667 51.667 OFFCURVE",
"438 45 CURVE",
"444.667 18.333 OFFCURVE",
"457 5 OFFCURVE",
"475 5 CURVE SMOOTH",
"491 5 OFFCURVE",
"505 25 OFFCURVE",
"505 41 CURVE SMOOTH",
"505 46.333 OFFCURVE",
"502.667 55.667 OFFCURVE",
"498 69 CURVE SMOOTH",
"492 85.667 OFFCURVE",
"488.667 95.667 OFFCURVE",
"488 99 CURVE",
"481.333 155.667 OFFCURVE",
"478 198.667 OFFCURVE",
"478 228 CURVE",
"490.667 233.333 OFFCURVE",
"500.333 237.333 OFFCURVE",
"507 240 CURVE",
"513 248.667 OFFCURVE",
"516 256.333 OFFCURVE",
"516 263 CURVE SMOOTH",
"516 273.667 OFFCURVE",
"504 281.667 OFFCURVE",
"480 287 CURVE",
"482.667 458.333 OFFCURVE",
"491.333 563 OFFCURVE",
"506 601 CURVE SMOOTH",
"508.667 608.333 OFFCURVE",
"512.333 614.333 OFFCURVE",
"517 619 CURVE SMOOTH",
"517.667 619.667 OFFCURVE",
"523.333 624 OFFCURVE",
"534 632 CURVE"
);
}
);
userData = {
assembly = "NPUSHB[ ]\011/* 38 values pushed */
1 93 93 64 94 0 76 65 28 21 85 84 68 51 37 28 26 18 12 8 6 0 74 33 5 59 57 54 6 46 48 89 3 41 1 1 51 70 
SROUND[ ]\011/* SuperRound */
MDAP[1]\011/* MoveDirectAbsPt */
SHZ[1]\011/* ShiftZoneByLastPoint */
RTG[ ]\011/* RoundToGrid */
SVTCA[0]\011/* SetFreedomAndProjectionVectorToAxis */
MIAP[1]\011/* MoveIndirectAbsPt */
MIAP[1]\011/* MoveIndirectAbsPt */
MDAP[1]\011/* MoveDirectAbsPt */
ALIGNRP[ ]\011/* AlignRelativePt */
MIRP[11101]\011/* MoveIndirectRelPt */
ALIGNRP[ ]\011/* AlignRelativePt */
SVTCA[1]\011/* SetFreedomAndProjectionVectorToAxis */
MDAP[1]\011/* MoveDirectAbsPt */
MIRP[11101]\011/* MoveIndirectRelPt */
ALIGNRP[ ]\011/* AlignRelativePt */
MDAP[0]\011/* MoveDirectAbsPt */
MDAP[0]\011/* MoveDirectAbsPt */
MDAP[0]\011/* MoveDirectAbsPt */
MDAP[0]\011/* MoveDirectAbsPt */
MDAP[0]\011/* MoveDirectAbsPt */
MDAP[0]\011/* MoveDirectAbsPt */
MDAP[0]\011/* MoveDirectAbsPt */
MDAP[0]\011/* MoveDirectAbsPt */
MDAP[0]\011/* MoveDirectAbsPt */
MDAP[0]\011/* MoveDirectAbsPt */
MDAP[0]\011/* MoveDirectAbsPt */
MDAP[0]\011/* MoveDirectAbsPt */
SVTCA[0]\011/* SetFreedomAndProjectionVectorToAxis */
MDAP[0]\011/* MoveDirectAbsPt */
MDAP[0]\011/* MoveDirectAbsPt */
MDAP[0]\011/* MoveDirectAbsPt */
MDAP[0]\011/* MoveDirectAbsPt */
IUP[1]\011/* InterpolateUntPts */
IUP[0]\011/* InterpolateUntPts */
SVTCA[1]\011/* SetFreedomAndProjectionVectorToAxis */
MD[0]\011/* MeasureDistance */
ROUND[00]\011/* Round */
PUSHW[ ]\011/* 2 values pushed */
51 93 
MD[0]\011/* MeasureDistance */
ROUND[00]\011/* Round */
SUB[ ]\011/* Subtract */
PUSHB[ ]\011/* 1 value pushed */
64 
GT[ ]\011/* GreaterThan */
IF[ ]\011/* If */
SHPIX[ ]\011/* ShiftZoneByPixel */
SRP1[ ]\011/* SetRefPoint1 */
SHZ[1]\011/* ShiftZoneByLastPoint */
PUSHW[ ]\011/* 2 values pushed */
93 -64 
SHPIX[ ]\011/* ShiftZoneByPixel */
EIF[ ]\011/* EndIf */";
};
width = 554;
}
);
note = H;
unicode = 0048;
},
{
glyphname = I;
lastChange = "2019-03-01 18:48:01 +0000";
layers = (
{
layerId = "93C069E7-FFAA-4B97-8A94-34C303BF132C";
paths = (
{
closed = 1;
nodes = (
"132 651.667 OFFCURVE",
"104 670 OFFCURVE",
"92 670 CURVE SMOOTH",
"73.333 670 OFFCURVE",
"40 642.667 OFFCURVE",
"40 624 CURVE SMOOTH",
"33 150 LINE SMOOTH",
"33 132.667 OFFCURVE",
"35.667 103.333 OFFCURVE",
"41 62 CURVE SMOOTH",
"47 15.333 OFFCURVE",
"64.333 -8 OFFCURVE",
"93 -8 CURVE SMOOTH",
"100.333 -8 OFFCURVE",
"110.333 -3.667 OFFCURVE",
"123 5 CURVE",
"103 34.333 OFFCURVE",
"93 96.667 OFFCURVE",
"93 192 CURVE SMOOTH",
"93 308 OFFCURVE",
"100.333 434.333 OFFCURVE",
"115 571 CURVE SMOOTH",
"117.667 601 OFFCURVE",
"120.333 618.667 OFFCURVE",
"123 624 CURVE",
"129 634.667 OFFCURVE",
"132 640.333 OFFCURVE",
"132 641 CURVE SMOOTH"
);
}
);
userData = {
assembly = "NPUSHB[ ]\011/* 23 values pushed */
1 21 21 64 22 0 8 15 5 0 4 5 14 6 5 14 18 3 10 1 1 14 70 
SROUND[ ]\011/* SuperRound */
MDAP[1]\011/* MoveDirectAbsPt */
SHZ[1]\011/* ShiftZoneByLastPoint */
RTG[ ]\011/* RoundToGrid */
SVTCA[0]\011/* SetFreedomAndProjectionVectorToAxis */
MIAP[1]\011/* MoveIndirectAbsPt */
MIAP[1]\011/* MoveIndirectAbsPt */
SVTCA[1]\011/* SetFreedomAndProjectionVectorToAxis */
MDAP[1]\011/* MoveDirectAbsPt */
MIRP[11101]\011/* MoveIndirectRelPt */
SRP0[ ]\011/* SetRefPoint0 */
MIRP[11101]\011/* MoveIndirectRelPt */
MDAP[1]\011/* MoveDirectAbsPt */
MIRP[11101]\011/* MoveIndirectRelPt */
MDAP[0]\011/* MoveDirectAbsPt */
SVTCA[0]\011/* SetFreedomAndProjectionVectorToAxis */
IUP[1]\011/* InterpolateUntPts */
IUP[0]\011/* InterpolateUntPts */
SVTCA[1]\011/* SetFreedomAndProjectionVectorToAxis */
MD[0]\011/* MeasureDistance */
ROUND[00]\011/* Round */
PUSHW[ ]\011/* 2 values pushed */
14 21 
MD[0]\011/* MeasureDistance */
ROUND[00]\011/* Round */
SUB[ ]\011/* Subtract */
PUSHB[ ]\011/* 1 value pushed */
64 
GT[ ]\011/* GreaterThan */
IF[ ]\011/* If */
SHPIX[ ]\011/* ShiftZoneByPixel */
SRP1[ ]\011/* SetRefPoint1 */
SHZ[1]\011/* ShiftZoneByLastPoint */
PUSHW[ ]\011/* 2 values pushed */
21 -64 
SHPIX[ ]\011/* ShiftZoneByPixel */
EIF[ ]\011/* EndIf */";
};
width = 172;
}
);
note = I;
unicode = 0049;
},
{
glyphname = J;
lastChange = "2019-03-01 18:48:01 +0000";
layers = (
{
layerId = "93C069E7-FFAA-4B97-8A94-34C303BF132C";
paths = (
{
closed = 1;
nodes = (
"469 653.333 OFFCURVE",
"442 668 OFFCURVE",
"422 668 CURVE SMOOTH",
"416 668 OFFCURVE",
"407.5 666.5 OFFCURVE",
"396.5 663.5 CURVE SMOOTH",
"385.5 660.5 OFFCURVE",
"377 659 OFFCURVE",
"371 659 CURVE SMOOTH",
"367 659 OFFCURVE",
"360.833 662 OFFCURVE",
"352.5 668 CURVE SMOOTH",
"344.167 674 OFFCURVE",
"338 677 OFFCURVE",
"334 677 CURVE SMOOTH",
"318.667 677 OFFCURVE",
"309.667 666.667 OFFCURVE",
"307 646 CURVE",
"305 643 LINE",
"288.333 633 OFFCURVE",
"265 623.667 OFFCURVE",
"235 615 CURVE SMOOTH",
"199 605 OFFCURVE",
"175 597.667 OFFCURVE",
"163 593 CURVE",
"148.333 586.333 OFFCURVE",
"141 577.333 OFFCURVE",
"141 566 CURVE SMOOTH",
"141 550 OFFCURVE",
"151 529 OFFCURVE",
"167 529 CURVE SMOOTH",
"169.667 529 OFFCURVE",
"188.333 538.667 OFFCURVE",
"223 558 CURVE SMOOTH",
"257.667 577.333 OFFCURVE",
"284.333 587.333 OFFCURVE",
"303 588 CURVE",
"305 586 LINE",
"304.333 597.333 OFFCURVE",
"304 526 OFFCURVE",
"304 372 CURVE SMOOTH",
"304 150.667 OFFCURVE",
"266.667 40 OFFCURVE",
"192 40 CURVE SMOOTH",
"142.667 40 OFFCURVE",
"91 103.667 OFFCURVE",
"91 153 CURVE SMOOTH",
"91 160.333 OFFCURVE",
"91.333 171.5 OFFCURVE",
"92 186.5 CURVE SMOOTH",
"92.667 201.5 OFFCURVE",
"93 213 OFFCURVE",
"93 221 CURVE SMOOTH",
"93 271.667 OFFCURVE",
"78 297 OFFCURVE",
"48 297 CURVE SMOOTH",
"29.333 297 OFFCURVE",
"20 269.667 OFFCURVE",
"20 215 CURVE SMOOTH",
"20 167 OFFCURVE",
"37.333 118.333 OFFCURVE",
"72 69 CURVE SMOOTH",
"110 15 OFFCURVE",
"152 -12 OFFCURVE",
"198 -12 CURVE SMOOTH",
"252 -12 OFFCURVE",
"292.333 20.333 OFFCURVE",
"319 85 CURVE SMOOTH",
"333.667 122.333 OFFCURVE",
"345.333 178 OFFCURVE",
"354 252 CURVE SMOOTH",
"363.333 334 OFFCURVE",
"368 432 OFFCURVE",
"368 546 CURVE SMOOTH",
"368 551.333 OFFCURVE",
"367.5 559 OFFCURVE",
"366.5 569 CURVE SMOOTH",
"365.5 579 OFFCURVE",
"365 586.667 OFFCURVE",
"365 592 CURVE SMOOTH",
"365 612 OFFCURVE",
"381 622 OFFCURVE",
"413 622 CURVE SMOOTH",
"417 622 OFFCURVE",
"423 621.5 OFFCURVE",
"431 620.5 CURVE SMOOTH",
"439 619.5 OFFCURVE",
"445 619 OFFCURVE",
"449 619 CURVE SMOOTH",
"462.333 619 OFFCURVE",
"469 624.667 OFFCURVE",
"469 636 CURVE SMOOTH"
);
}
);
userData = {
assembly = "NPUSHB[ ]\011/* 37 values pushed */
1 59 59 64 60 0 53 38 35 22 2 34 10 0 41 5 7 24 27 5 20 32 4 12 30 6 16 5 6 56 50 3 16 1 1 20 70 
SROUND[ ]\011/* SuperRound */
MDAP[1]\011/* MoveDirectAbsPt */
SHZ[1]\011/* ShiftZoneByLastPoint */
RTG[ ]\011/* RoundToGrid */
SVTCA[0]\011/* SetFreedomAndProjectionVectorToAxis */
MIAP[1]\011/* MoveIndirectAbsPt */
MIAP[1]\011/* MoveIndirectAbsPt */
MDAP[1]\011/* MoveDirectAbsPt */
MIRP[11101]\011/* MoveIndirectRelPt */
SRP0[ ]\011/* SetRefPoint0 */
MIRP[11101]\011/* MoveIndirectRelPt */
SVTCA[1]\011/* SetFreedomAndProjectionVectorToAxis */
MDAP[1]\011/* MoveDirectAbsPt */
MIRP[11101]\011/* MoveIndirectRelPt */
MDAP[1]\011/* MoveDirectAbsPt */
MIRP[11101]\011/* MoveIndirectRelPt */
ALIGNRP[ ]\011/* AlignRelativePt */
MDAP[1]\011/* MoveDirectAbsPt */
MIRP[11101]\011/* MoveIndirectRelPt */
MDAP[0]\011/* MoveDirectAbsPt */
MDAP[0]\011/* MoveDirectAbsPt */
MDAP[0]\011/* MoveDirectAbsPt */
SVTCA[0]\011/* SetFreedomAndProjectionVectorToAxis */
MDAP[0]\011/* MoveDirectAbsPt */
MDAP[0]\011/* MoveDirectAbsPt */
MDAP[0]\011/* MoveDirectAbsPt */
MDAP[0]\011/* MoveDirectAbsPt */
MDAP[0]\011/* MoveDirectAbsPt */
IUP[1]\011/* InterpolateUntPts */
IUP[0]\011/* InterpolateUntPts */
SVTCA[1]\011/* SetFreedomAndProjectionVectorToAxis */
MD[0]\011/* MeasureDistance */
ROUND[00]\011/* Round */
PUSHW[ ]\011/* 2 values pushed */
20 59 
MD[0]\011/* MeasureDistance */
ROUND[00]\011/* Round */
SUB[ ]\011/* Subtract */
PUSHB[ ]\011/* 1 value pushed */
64 
GT[ ]\011/* GreaterThan */
IF[ ]\011/* If */
SHPIX[ ]\011/* ShiftZoneByPixel */
SRP1[ ]\011/* SetRefPoint1 */
SHZ[1]\011/* ShiftZoneByLastPoint */
PUSHW[ ]\011/* 2 values pushed */
59 -64 
SHPIX[ ]\011/* ShiftZoneByPixel */
EIF[ ]\011/* EndIf */";
};
width = 419;
}
);
note = J;
unicode = 004A;
},
{
glyphname = K;
lastChange = "2019-03-01 18:48:01 +0000";
layers = (
{
layerId = "93C069E7-FFAA-4B97-8A94-34C303BF132C";
paths = (
{
closed = 1;
nodes = (
"531 75.333 OFFCURVE",
"525.333 80 OFFCURVE",
"514 80 CURVE SMOOTH",
"507.333 80 OFFCURVE",
"497.667 77 OFFCURVE",
"485 71 CURVE SMOOTH",
"472.333 65 OFFCURVE",
"462.333 62 OFFCURVE",
"455 62 CURVE SMOOTH",
"413.667 62 OFFCURVE",
"367.667 104.667 OFFCURVE",
"317 190 CURVE SMOOTH",
"269.667 269.333 OFFCURVE",
"246 332.333 OFFCURVE",
"246 379 CURVE SMOOTH",
"246 389.667 OFFCURVE",
"249.333 402.333 OFFCURVE",
"256 417 CURVE SMOOTH",
"264 435 OFFCURVE",
"292.333 471.333 OFFCURVE",
"341 526 CURVE SMOOTH",
"392.333 582.667 OFFCURVE",
"424 611 OFFCURVE",
"436 611 CURVE SMOOTH",
"437.333 611 OFFCURVE",
"441.333 610.167 OFFCURVE",
"448 608.5 CURVE SMOOTH",
"454.667 606.833 OFFCURVE",
"458.667 606 OFFCURVE",
"460 606 CURVE SMOOTH",
"468 606 OFFCURVE",
"472 610.667 OFFCURVE",
"472 620 CURVE SMOOTH",
"472 627.333 OFFCURVE",
"468.333 636 OFFCURVE",
"461 646 CURVE SMOOTH",
"450.333 660 OFFCURVE",
"444.667 668 OFFCURVE",
"444 670 CURVE",
"441.333 670.667 OFFCURVE",
"438 671 OFFCURVE",
"434 671 CURVE SMOOTH",
"404 671 OFFCURVE",
"342.667 612 OFFCURVE",
"250 494 CURVE SMOOTH",
"243.333 485.333 OFFCURVE",
"186.667 408.667 OFFCURVE",
"80 264 CURVE",
"75 269 LINE",
"75 339.667 OFFCURVE",
"81.333 444.333 OFFCURVE",
"94 583 CURVE SMOOTH",
"96.667 608.333 OFFCURVE",
"100.667 623.333 OFFCURVE",
"106 628 CURVE",
"106.667 628.667 OFFCURVE",
"110.333 630.667 OFFCURVE",
"117 634 CURVE",
"121.667 636 OFFCURVE",
"124 639 OFFCURVE",
"124 643 CURVE SMOOTH",
"124 661.667 OFFCURVE",
"81 687 OFFCURVE",
"61 687 CURVE SMOOTH",
"42.333 687 OFFCURVE",
"33 674.667 OFFCURVE",
"33 650 CURVE SMOOTH",
"33 648 OFFCURVE",
"33.5 645.167 OFFCURVE",
"34.5 641.5 CURVE SMOOTH",
"35.5 637.833 OFFCURVE",
"36 634.667 OFFCURVE",
"36 632 CURVE",
"18 143 LINE SMOOTH",
"16.667 119 OFFCURVE",
"34.667 21.333 OFFCURVE",
"44 0 CURVE SMOOTH",
"52.667 -20.667 OFFCURVE",
"64.333 -31 OFFCURVE",
"79 -31 CURVE SMOOTH",
"87.667 -31 OFFCURVE",
"95.667 -26.667 OFFCURVE",
"103 -18 CURVE",
"101 -1 LINE",
"85.667 25 OFFCURVE",
"78 73 OFFCURVE",
"78 143 CURVE SMOOTH",
"78 160.333 OFFCURVE",
"92.667 190.667 OFFCURVE",
"122 234 CURVE SMOOTH",
"144.667 268 OFFCURVE",
"166 296.333 OFFCURVE",
"186 319 CURVE",
"232.667 227 OFFCURVE",
"268 164 OFFCURVE",
"292 130 CURVE SMOOTH",
"346.667 54 OFFCURVE",
"401.667 16 OFFCURVE",
"457 16 CURVE SMOOTH",
"471.667 16 OFFCURVE",
"487 20.667 OFFCURVE",
"503 30 CURVE",
"521.667 40 OFFCURVE",
"531 52 OFFCURVE",
"531 66 CURVE SMOOTH"
);
}
);
userData = {
assembly = "NPUSHB[ ]\011/* 42 values pushed */
1 70 70 64 71 0 68 52 40 8 50 39 23 15 0 61 5 22 31 5 26 37 5 22 12 5 22 55 6 44 65 6 4 44 3 28 3 17 1 1 22 70 
SROUND[ ]\011/* SuperRound */
MDAP[1]\011/* MoveDirectAbsPt */
SHZ[1]\011/* ShiftZoneByLastPoint */
RTG[ ]\011/* RoundToGrid */
SVTCA[0]\011/* SetFreedomAndProjectionVectorToAxis */
MIAP[1]\011/* MoveIndirectAbsPt */
MIAP[1]\011/* MoveIndirectAbsPt */
MIAP[1]\011/* MoveIndirectAbsPt */
MDAP[1]\011/* MoveDirectAbsPt */
MIRP[11101]\011/* MoveIndirectRelPt */
SRP0[ ]\011/* SetRefPoint0 */
MIRP[11101]\011/* MoveIndirectRelPt */
SVTCA[1]\011/* SetFreedomAndProjectionVectorToAxis */
MDAP[1]\011/* MoveDirectAbsPt */
MIRP[11101]\011/* MoveIndirectRelPt */
SRP0[ ]\011/* SetRefPoint0 */
MIRP[11101]\011/* MoveIndirectRelPt */
MDAP[1]\011/* MoveDirectAbsPt */
MIRP[11101]\011/* MoveIndirectRelPt */
SRP0[ ]\011/* SetRefPoint0 */
MIRP[11101]\011/* MoveIndirectRelPt */
MDAP[0]\011/* MoveDirectAbsPt */
MDAP[0]\011/* MoveDirectAbsPt */
MDAP[0]\011/* MoveDirectAbsPt */
MDAP[0]\011/* MoveDirectAbsPt */
MDAP[0]\011/* MoveDirectAbsPt */
SVTCA[0]\011/* SetFreedomAndProjectionVectorToAxis */
MDAP[0]\011/* MoveDirectAbsPt */
MDAP[0]\011/* MoveDirectAbsPt */
MDAP[0]\011/* MoveDirectAbsPt */
MDAP[0]\011/* MoveDirectAbsPt */
IUP[1]\011/* InterpolateUntPts */
IUP[0]\011/* InterpolateUntPts */
SVTCA[1]\011/* SetFreedomAndProjectionVectorToAxis */
MD[0]\011/* MeasureDistance */
ROUND[00]\011/* Round */
PUSHW[ ]\011/* 2 values pushed */
22 70 
MD[0]\011/* MeasureDistance */
ROUND[00]\011/* Round */
SUB[ ]\011/* Subtract */
PUSHB[ ]\011/* 1 value pushed */
64 
GT[ ]\011/* GreaterThan */
IF[ ]\011/* If */
SHPIX[ ]\011/* ShiftZoneByPixel */
SRP1[ ]\011/* SetRefPoint1 */
SHZ[1]\011/* ShiftZoneByLastPoint */
PUSHW[ ]\011/* 2 values pushed */
70 -64 
SHPIX[ ]\011/* ShiftZoneByPixel */
EIF[ ]\011/* EndIf */";
};
width = 491;
}
);
note = K;
unicode = 004B;
},
{
glyphname = L;
lastChange = "2019-03-01 18:48:01 +0000";
layers = (
{
layerId = "93C069E7-FFAA-4B97-8A94-34C303BF132C";
paths = (
{
closed = 1;
nodes = (
"369 44.667 OFFCURVE",
"355.333 68 OFFCURVE",
"334 68 CURVE SMOOTH",
"314 68 OFFCURVE",
"285.833 62.333 OFFCURVE",
"249.5 51 CURVE SMOOTH",
"213.167 39.667 OFFCURVE",
"185 34 OFFCURVE",
"165 34 CURVE SMOOTH",
"105 34 OFFCURVE",
"75 79 OFFCURVE",
"75 169 CURVE SMOOTH",
"75 216.333 OFFCURVE",
"79.333 287.333 OFFCURVE",
"88 382 CURVE SMOOTH",
"96.667 476.667 OFFCURVE",
"101 547.667 OFFCURVE",
"101 595 CURVE SMOOTH",
"101 649.667 OFFCURVE",
"89.333 677 OFFCURVE",
"66 677 CURVE SMOOTH",
"53.333 677 OFFCURVE",
"43.333 672.667 OFFCURVE",
"36 664 CURVE",
"35.333 656.667 OFFCURVE",
"35 649.667 OFFCURVE",
"35 643 CURVE SMOOTH",
"35 634.333 OFFCURVE",
"35.667 621.667 OFFCURVE",
"37 605 CURVE SMOOTH",
"38.333 588.333 OFFCURVE",
"39 575.667 OFFCURVE",
"39 567 CURVE SMOOTH",
"39 526.333 OFFCURVE",
"35.833 465 OFFCURVE",
"29.5 383 CURVE SMOOTH",
"23.167 301 OFFCURVE",
"20 239.333 OFFCURVE",
"20 198 CURVE SMOOTH",
"20 133.333 OFFCURVE",
"27.667 85.333 OFFCURVE",
"43 54 CURVE SMOOTH",
"64.333 9.333 OFFCURVE",
"103.667 -13 OFFCURVE",
"161 -13 CURVE SMOOTH",
"238.333 -13 OFFCURVE",
"307.667 -1.333 OFFCURVE",
"369 22 CURVE"
);
}
);
userData = {
assembly = "NPUSHB[ ]\011/* 25 values pushed */
1 29 29 64 30 0 26 12 0 21 5 6 18 5 9 23 6 2 16 3 2 1 1 6 70 
SROUND[ ]\011/* SuperRound */
MDAP[1]\011/* MoveDirectAbsPt */
SHZ[1]\011/* ShiftZoneByLastPoint */
RTG[ ]\011/* RoundToGrid */
SVTCA[0]\011/* SetFreedomAndProjectionVectorToAxis */
MIAP[1]\011/* MoveIndirectAbsPt */
MIAP[1]\011/* MoveIndirectAbsPt */
SRP0[ ]\011/* SetRefPoint0 */
MIRP[11101]\011/* MoveIndirectRelPt */
SVTCA[1]\011/* SetFreedomAndProjectionVectorToAxis */
MDAP[1]\011/* MoveDirectAbsPt */
MIRP[11101]\011/* MoveIndirectRelPt */
MDAP[1]\011/* MoveDirectAbsPt */
MIRP[11101]\011/* MoveIndirectRelPt */
MDAP[0]\011/* MoveDirectAbsPt */
MDAP[0]\011/* MoveDirectAbsPt */
SVTCA[0]\011/* SetFreedomAndProjectionVectorToAxis */
MDAP[0]\011/* MoveDirectAbsPt */
IUP[1]\011/* InterpolateUntPts */
IUP[0]\011/* InterpolateUntPts */
SVTCA[1]\011/* SetFreedomAndProjectionVectorToAxis */
MD[0]\011/* MeasureDistance */
ROUND[00]\011/* Round */
PUSHW[ ]\011/* 2 values pushed */
6 29 
MD[0]\011/* MeasureDistance */
ROUND[00]\011/* Round */
SUB[ ]\011/* Subtract */
PUSHB[ ]\011/* 1 value pushed */
64 
GT[ ]\011/* GreaterThan */
IF[ ]\011/* If */
SHPIX[ ]\011/* ShiftZoneByPixel */
SRP1[ ]\011/* SetRefPoint1 */
SHZ[1]\011/* ShiftZoneByLastPoint */
PUSHW[ ]\011/* 2 values pushed */
29 -64 
SHPIX[ ]\011/* ShiftZoneByPixel */
EIF[ ]\011/* EndIf */";
};
width = 379;
}
);
note = L;
unicode = 004C;
},
{
glyphname = M;
lastChange = "2019-03-01 18:48:01 +0000";
layers = (
{
layerId = "93C069E7-FFAA-4B97-8A94-34C303BF132C";
paths = (
{
closed = 1;
nodes = (
"624 681 OFFCURVE",
"602.333 691 OFFCURVE",
"585 691 CURVE SMOOTH",
"547 691 OFFCURVE",
"524 676 OFFCURVE",
"516 646 CURVE SMOOTH",
"502.667 599.333 OFFCURVE",
"491.667 563.333 OFFCURVE",
"483 538 CURVE",
"469 458.667 OFFCURVE",
"450.333 378.667 OFFCURVE",
"427 298 CURVE SMOOTH",
"389.667 172.667 OFFCURVE",
"355.333 110 OFFCURVE",
"324 110 CURVE SMOOTH",
"299.333 110 OFFCURVE",
"267.667 178.667 OFFCURVE",
"229 316 CURVE SMOOTH",
"197 428 OFFCURVE",
"177.333 513.333 OFFCURVE",
"170 572 CURVE SMOOTH",
"166 612.667 OFFCURVE",
"163 643.333 OFFCURVE",
"161 664 CURVE",
"147 678 OFFCURVE",
"135 685 OFFCURVE",
"125 685 CURVE SMOOTH",
"71.667 685 OFFCURVE",
"45 672 OFFCURVE",
"45 646 CURVE SMOOTH",
"45 644.667 OFFCURVE",
"46 641 OFFCURVE",
"48 635 CURVE SMOOTH",
"50 629 OFFCURVE",
"51 620.667 OFFCURVE",
"51 610 CURVE SMOOTH",
"51 560 OFFCURVE",
"48.333 485.5 OFFCURVE",
"43 386.5 CURVE SMOOTH",
"37.667 287.5 OFFCURVE",
"35 213 OFFCURVE",
"35 163 CURVE SMOOTH",
"35 53 OFFCURVE",
"50 -2 OFFCURVE",
"80 -2 CURVE SMOOTH",
"112.667 -2 OFFCURVE",
"128.667 7 OFFCURVE",
"128 25 CURVE",
"113.333 27 OFFCURVE",
"105.333 40 OFFCURVE",
"104 64 CURVE SMOOTH",
"94 293 LINE SMOOTH",
"92 346.333 OFFCURVE",
"97 434.667 OFFCURVE",
"109 558 CURVE",
"115 573 LINE",
"132.333 499 OFFCURVE",
"149.333 424.667 OFFCURVE",
"166 350 CURVE SMOOTH",
"188 256.667 OFFCURVE",
"209.333 183.667 OFFCURVE",
"230 131 CURVE SMOOTH",
"238.667 108.333 OFFCURVE",
"251.333 87.667 OFFCURVE",
"268 69 CURVE SMOOTH",
"288.667 44.333 OFFCURVE",
"308.667 32 OFFCURVE",
"328 32 CURVE SMOOTH",
"371.333 32 OFFCURVE",
"415.667 102.667 OFFCURVE",
"461 244 CURVE",
"485.667 334 OFFCURVE",
"510.333 424 OFFCURVE",
"535 514 CURVE",
"509 191 LINE SMOOTH",
"506.333 159 OFFCURVE",
"506.667 127.333 OFFCURVE",
"510 96 CURVE SMOOTH",
"518 14 OFFCURVE",
"543 -27 OFFCURVE",
"585 -27 CURVE SMOOTH",
"593 -27 OFFCURVE",
"598.667 -23.333 OFFCURVE",
"602 -16 CURVE",
"602 -6 LINE",
"584.667 0 OFFCURVE",
"574.667 26.667 OFFCURVE",
"572 74 CURVE",
"572 72 OFFCURVE",
"572 103.667 OFFCURVE",
"572 169 CURVE SMOOTH",
"572 293 OFFCURVE",
"580.333 426.333 OFFCURVE",
"597 569 CURVE",
"597.667 569.667 OFFCURVE",
"597.667 580.667 OFFCURVE",
"597 602 CURVE",
"597 633.731 OFFCURVE",
"624 644.048 OFFCURVE",
"624 665 CURVE SMOOTH"
);
}
);
userData = {
assembly = "NPUSHB[ ]\011/* 43 values pushed */
1 69 69 64 70 0 32 20 48 38 20 13 12 6 4 0 36 5 42 19 5 10 8 35 5 42 33 5 45 58 6 24 66 3 50 3 40 1 15 1 1 42 70 
SROUND[ ]\011/* SuperRound */
MDAP[1]\011/* MoveDirectAbsPt */
SHZ[1]\011/* ShiftZoneByLastPoint */
RTG[ ]\011/* RoundToGrid */
SVTCA[0]\011/* SetFreedomAndProjectionVectorToAxis */
MIAP[1]\011/* MoveIndirectAbsPt */
MIAP[1]\011/* MoveIndirectAbsPt */
MIAP[1]\011/* MoveIndirectAbsPt */
MIAP[1]\011/* MoveIndirectAbsPt */
MDAP[1]\011/* MoveDirectAbsPt */
MIRP[11101]\011/* MoveIndirectRelPt */
SVTCA[1]\011/* SetFreedomAndProjectionVectorToAxis */
MDAP[1]\011/* MoveDirectAbsPt */
MIRP[11101]\011/* MoveIndirectRelPt */
MDAP[1]\011/* MoveDirectAbsPt */
MIRP[11101]\011/* MoveIndirectRelPt */
MDAP[1]\011/* MoveDirectAbsPt */
ALIGNRP[ ]\011/* AlignRelativePt */
MIRP[11101]\011/* MoveIndirectRelPt */
SRP0[ ]\011/* SetRefPoint0 */
MIRP[11101]\011/* MoveIndirectRelPt */
MDAP[0]\011/* MoveDirectAbsPt */
MDAP[0]\011/* MoveDirectAbsPt */
MDAP[0]\011/* MoveDirectAbsPt */
MDAP[0]\011/* MoveDirectAbsPt */
MDAP[0]\011/* MoveDirectAbsPt */
MDAP[0]\011/* MoveDirectAbsPt */
MDAP[0]\011/* MoveDirectAbsPt */
MDAP[0]\011/* MoveDirectAbsPt */
SVTCA[0]\011/* SetFreedomAndProjectionVectorToAxis */
MDAP[0]\011/* MoveDirectAbsPt */
MDAP[0]\011/* MoveDirectAbsPt */
IUP[1]\011/* InterpolateUntPts */
IUP[0]\011/* InterpolateUntPts */
SVTCA[1]\011/* SetFreedomAndProjectionVectorToAxis */
MD[0]\011/* MeasureDistance */
ROUND[00]\011/* Round */
PUSHW[ ]\011/* 2 values pushed */
42 69 
MD[0]\011/* MeasureDistance */
ROUND[00]\011/* Round */
SUB[ ]\011/* Subtract */
PUSHB[ ]\011/* 1 value pushed */
64 
GT[ ]\011/* GreaterThan */
IF[ ]\011/* If */
SHPIX[ ]\011/* ShiftZoneByPixel */
SRP1[ ]\011/* SetRefPoint1 */
SHZ[1]\011/* ShiftZoneByLastPoint */
PUSHW[ ]\011/* 2 values pushed */
69 -64 
SHPIX[ ]\011/* ShiftZoneByPixel */
EIF[ ]\011/* EndIf */";
};
width = 649;
}
);
note = M;
unicode = 004D;
},
{
glyphname = N;
lastChange = "2019-03-01 18:48:01 +0000";
layers = (
{
layerId = "93C069E7-FFAA-4B97-8A94-34C303BF132C";
paths = (
{
closed = 1;
nodes = (
"465.333 678.667 OFFCURVE",
"455 682 OFFCURVE",
"445 682 CURVE SMOOTH",
"418.333 682 OFFCURVE",
"396.667 653.667 OFFCURVE",
"380 597 CURVE SMOOTH",
"367.333 553.667 OFFCURVE",
"361 514.333 OFFCURVE",
"361 479 CURVE SMOOTH",
"364 179 LINE SMOOTH",
"364.667 107.667 OFFCURVE",
"356 72 OFFCURVE",
"338 72 CURVE SMOOTH",
"317.333 72 OFFCURVE",
"284 142.667 OFFCURVE",
"238 284 CURVE SMOOTH",
"198.667 406 OFFCURVE",
"174.667 493.667 OFFCURVE",
"166 547 CURVE",
"164 563.667 OFFCURVE",
"162 580 OFFCURVE",
"160 596 CURVE SMOOTH",
"157.333 620.667 OFFCURVE",
"154.667 635.333 OFFCURVE",
"152 640 CURVE SMOOTH",
"141.333 657.333 OFFCURVE",
"122 666 OFFCURVE",
"94 666 CURVE SMOOTH",
"60 666 OFFCURVE",
"43 657.333 OFFCURVE",
"43 640 CURVE SMOOTH",
"43 638.667 OFFCURVE",
"43.5 636.5 OFFCURVE",
"44.5 633.5 CURVE SMOOTH",
"45.5 630.5 OFFCURVE",
"46 628.333 OFFCURVE",
"46 627 CURVE SMOOTH",
"46 498 LINE SMOOTH",
"46 468.667 OFFCURVE",
"41.667 424.5 OFFCURVE",
"33 365.5 CURVE SMOOTH",
"24.333 306.5 OFFCURVE",
"20 262.667 OFFCURVE",
"20 234 CURVE SMOOTH",
"20 222 OFFCURVE",
"20.667 205 OFFCURVE",
"22 183 CURVE SMOOTH",
"23.333 161 OFFCURVE",
"24 144 OFFCURVE",
"24 132 CURVE SMOOTH",
"24 44.667 OFFCURVE",
"37.333 1 OFFCURVE",
"64 1 CURVE SMOOTH",
"78.667 1 OFFCURVE",
"104 17.333 OFFCURVE",
"104 32 CURVE SMOOTH",
"104 33.333 OFFCURVE",
"100.333 39.333 OFFCURVE",
"93 50 CURVE",
"79.667 66.667 OFFCURVE",
"73 128.667 OFFCURVE",
"73 236 CURVE SMOOTH",
"73 272 OFFCURVE",
"76.667 318.667 OFFCURVE",
"84 376 CURVE SMOOTH",
"93.333 451.333 OFFCURVE",
"98.667 498 OFFCURVE",
"100 516 CURVE SMOOTH",
"100.667 528 OFFCURVE",
"104.667 534.667 OFFCURVE",
"112 536 CURVE",
"152 402 OFFCURVE",
"182.167 301.5 OFFCURVE",
"202.5 234.5 CURVE SMOOTH",
"222.833 167.5 OFFCURVE",
"238.667 122 OFFCURVE",
"250 98 CURVE SMOOTH",
"278 37.333 OFFCURVE",
"308.333 7 OFFCURVE",
"341 7 CURVE SMOOTH",
"362.333 7 OFFCURVE",
"380 27 OFFCURVE",
"394 67 CURVE SMOOTH",
"404.667 98.333 OFFCURVE",
"410.333 127.333 OFFCURVE",
"411 154 CURVE SMOOTH",
"414 457 LINE SMOOTH",
"414 483 OFFCURVE",
"417 517.667 OFFCURVE",
"423 561 CURVE SMOOTH",
"430.333 615.667 OFFCURVE",
"438.667 645.667 OFFCURVE",
"448 651 CURVE",
"454 653.667 OFFCURVE",
"460.333 656.333 OFFCURVE",
"467 659 CURVE SMOOTH",
"473.667 661.667 OFFCURVE",
"476.667 666 OFFCURVE",
"476 672 CURVE"
);
}
);
userData = {
assembly = "NPUSHB[ ]\011/* 35 values pushed */
1 63 63 64 64 0 44 17 57 42 27 0 32 4 23 23 4 35 19 4 39 38 56 4 8 54 6 12 61 3 30 1 1 35 70 
SROUND[ ]\011/* SuperRound */
MDAP[1]\011/* MoveDirectAbsPt */
SHZ[1]\011/* ShiftZoneByLastPoint */
RTG[ ]\011/* RoundToGrid */
SVTCA[0]\011/* SetFreedomAndProjectionVectorToAxis */
MIAP[1]\011/* MoveIndirectAbsPt */
MIAP[1]\011/* MoveIndirectAbsPt */
MDAP[1]\011/* MoveDirectAbsPt */
MIRP[11101]\011/* MoveIndirectRelPt */
SVTCA[1]\011/* SetFreedomAndProjectionVectorToAxis */
MDAP[1]\011/* MoveDirectAbsPt */
MIRP[11101]\011/* MoveIndirectRelPt */
MDAP[1]\011/* MoveDirectAbsPt */
ALIGNRP[ ]\011/* AlignRelativePt */
MIRP[11101]\011/* MoveIndirectRelPt */
MDAP[1]\011/* MoveDirectAbsPt */
MIRP[11101]\011/* MoveIndirectRelPt */
SRP0[ ]\011/* SetRefPoint0 */
MIRP[11101]\011/* MoveIndirectRelPt */
MDAP[0]\011/* MoveDirectAbsPt */
MDAP[0]\011/* MoveDirectAbsPt */
MDAP[0]\011/* MoveDirectAbsPt */
MDAP[0]\011/* MoveDirectAbsPt */
SVTCA[0]\011/* SetFreedomAndProjectionVectorToAxis */
MDAP[0]\011/* MoveDirectAbsPt */
MDAP[0]\011/* MoveDirectAbsPt */
IUP[1]\011/* InterpolateUntPts */
IUP[0]\011/* InterpolateUntPts */
SVTCA[1]\011/* SetFreedomAndProjectionVectorToAxis */
MD[0]\011/* MeasureDistance */
ROUND[00]\011/* Round */
PUSHW[ ]\011/* 2 values pushed */
35 63 
MD[0]\011/* MeasureDistance */
ROUND[00]\011/* Round */
SUB[ ]\011/* Subtract */
PUSHB[ ]\011/* 1 value pushed */
64 
GT[ ]\011/* GreaterThan */
IF[ ]\011/* If */
SHPIX[ ]\011/* ShiftZoneByPixel */
SRP1[ ]\011/* SetRefPoint1 */
SHZ[1]\011/* ShiftZoneByLastPoint */
PUSHW[ ]\011/* 2 values pushed */
63 -64 
SHPIX[ ]\011/* ShiftZoneByPixel */
EIF[ ]\011/* EndIf */";
};
width = 456;
}
);
note = N;
unicode = 004E;
},
{
glyphname = O;
lastChange = "2019-03-01 18:48:01 +0000";
layers = (
{
layerId = "93C069E7-FFAA-4B97-8A94-34C303BF132C";
paths = (
{
closed = 1;
nodes = (
"536 423.667 OFFCURVE",
"517.333 499 OFFCURVE",
"480 565 CURVE SMOOTH",
"435.333 644.333 OFFCURVE",
"374.333 684 OFFCURVE",
"297 684 CURVE SMOOTH",
"208.333 684 OFFCURVE",
"138.667 638 OFFCURVE",
"88 546 CURVE SMOOTH",
"45.333 469.333 OFFCURVE",
"24 383 OFFCURVE",
"24 287 CURVE SMOOTH",
"24 122.333 OFFCURVE",
"79.667 22.333 OFFCURVE",
"191 -13 CURVE SMOOTH",
"220.333 -23 OFFCURVE",
"246 -28 OFFCURVE",
"268 -28 CURVE SMOOTH",
"355.333 -28 OFFCURVE",
"423.667 12.667 OFFCURVE",
"473 94 CURVE SMOOTH",
"515 163.333 OFFCURVE",
"536 245 OFFCURVE",
"536 339 CURVE SMOOTH"
);
},
{
closed = 1;
nodes = (
"480 264 OFFCURVE",
"465.333 193 OFFCURVE",
"436 135 CURVE SMOOTH",
"398.667 59.667 OFFCURVE",
"342 22 OFFCURVE",
"266 22 CURVE SMOOTH",
"210.667 22 OFFCURVE",
"167.667 38 OFFCURVE",
"137 70 CURVE SMOOTH",
"111 98 OFFCURVE",
"92.333 140.667 OFFCURVE",
"81 198 CURVE SMOOTH",
"75.667 225.333 OFFCURVE",
"73 245.333 OFFCURVE",
"73 258 CURVE SMOOTH",
"73 397.333 OFFCURVE",
"108 500.333 OFFCURVE",
"178 567 CURVE SMOOTH",
"219.333 606.333 OFFCURVE",
"261.333 626 OFFCURVE",
"304 626 CURVE SMOOTH",
"312 626 OFFCURVE",
"321.333 624 OFFCURVE",
"332 620 CURVE SMOOTH",
"430.667 586.667 OFFCURVE",
"480 496 OFFCURVE",
"480 348 CURVE SMOOTH"
);
}
);
userData = {
assembly = "NPUSHB[ ]\011/* 25 values pushed */
1 34 34 64 35 0 16 5 0 24 4 8 20 6 12 30 6 4 12 3 4 1 1 8 70 
SROUND[ ]\011/* SuperRound */
MDAP[1]\011/* MoveDirectAbsPt */
SHZ[1]\011/* ShiftZoneByLastPoint */
RTG[ ]\011/* RoundToGrid */
SVTCA[0]\011/* SetFreedomAndProjectionVectorToAxis */
MIAP[1]\011/* MoveIndirectAbsPt */
MIAP[1]\011/* MoveIndirectAbsPt */
SRP0[ ]\011/* SetRefPoint0 */
MIRP[11101]\011/* MoveIndirectRelPt */
SRP0[ ]\011/* SetRefPoint0 */
MIRP[11101]\011/* MoveIndirectRelPt */
SVTCA[1]\011/* SetFreedomAndProjectionVectorToAxis */
MDAP[1]\011/* MoveDirectAbsPt */
MIRP[11101]\011/* MoveIndirectRelPt */
MDAP[1]\011/* MoveDirectAbsPt */
MIRP[11101]\011/* MoveIndirectRelPt */
SVTCA[0]\011/* SetFreedomAndProjectionVectorToAxis */
IUP[1]\011/* InterpolateUntPts */
IUP[0]\011/* InterpolateUntPts */
SVTCA[1]\011/* SetFreedomAndProjectionVectorToAxis */
MD[0]\011/* MeasureDistance */
ROUND[00]\011/* Round */
PUSHW[ ]\011/* 2 values pushed */
8 34 
MD[0]\011/* MeasureDistance */
ROUND[00]\011/* Round */
SUB[ ]\011/* Subtract */
PUSHB[ ]\011/* 1 value pushed */
64 
GT[ ]\011/* GreaterThan */
IF[ ]\011/* If */
SHPIX[ ]\011/* ShiftZoneByPixel */
SRP1[ ]\011/* SetRefPoint1 */
SHZ[1]\011/* ShiftZoneByLastPoint */
PUSHW[ ]\011/* 2 values pushed */
34 -64 
SHPIX[ ]\011/* ShiftZoneByPixel */
EIF[ ]\011/* EndIf */";
};
width = 572;
}
);
note = O;
unicode = 004F;
},
{
glyphname = P;
lastChange = "2019-03-01 18:48:01 +0000";
layers = (
{
layerId = "93C069E7-FFAA-4B97-8A94-34C303BF132C";
paths = (
{
closed = 1;
nodes = (
"469.333 400.667 OFFCURVE",
"471 423.667 OFFCURVE",
"471 447 CURVE SMOOTH",
"471 513.667 OFFCURVE",
"457.667 568.667 OFFCURVE",
"431 612 CURVE SMOOTH",
"398.333 664.667 OFFCURVE",
"350 691 OFFCURVE",
"286 691 CURVE SMOOTH",
"226.667 691 OFFCURVE",
"179 666 OFFCURVE",
"143 616 CURVE",
"127.667 589.333 OFFCURVE",
"112.333 562.667 OFFCURVE",
"97 536 CURVE",
"96 562 LINE",
"96 570.667 OFFCURVE",
"97.833 583 OFFCURVE",
"101.5 599 CURVE SMOOTH",
"105.167 615 OFFCURVE",
"107 627.333 OFFCURVE",
"107 636 CURVE SMOOTH",
"107 658.667 OFFCURVE",
"89.667 683 OFFCURVE",
"67 683 CURVE SMOOTH",
"49.667 683 OFFCURVE",
"41 676.667 OFFCURVE",
"41 664 CURVE SMOOTH",
"41 659.333 OFFCURVE",
"42.167 652 OFFCURVE",
"44.5 642 CURVE SMOOTH",
"46.833 632 OFFCURVE",
"48 624.667 OFFCURVE",
"48 620 CURVE SMOOTH",
"48 525 LINE SMOOTH",
"48 471.036 OFFCURVE",
"37.643 394.469 OFFCURVE",
"38.5 340.5 CURVE SMOOTH",
"39.34 287.583 OFFCURVE",
"30 211.911 OFFCURVE",
"30 159 CURVE SMOOTH",
"30 124.333 OFFCURVE",
"31 90 OFFCURVE",
"33 56 CURVE SMOOTH",
"34.333 34 OFFCURVE",
"37.667 18 OFFCURVE",
"43 8 CURVE",
"51 -5.333 OFFCURVE",
"65 -12 OFFCURVE",
"85 -12 CURVE SMOOTH",
"102.333 -12 OFFCURVE",
"116 5 OFFCURVE",
"116 21 CURVE SMOOTH",
"116 23.667 OFFCURVE",
"112.667 30.833 OFFCURVE",
"106 42.5 CURVE SMOOTH",
"99.333 54.167 OFFCURVE",
"95.667 61 OFFCURVE",
"95 63 CURVE",
"87.667 81.667 OFFCURVE",
"84.333 110.667 OFFCURVE",
"85 150 CURVE SMOOTH",
"85 191 LINE",
"92 196 LINE",
"135.333 158.667 OFFCURVE",
"188.333 138 OFFCURVE",
"251 134 CURVE SMOOTH",
"367 127.333 OFFCURVE",
"438.667 208.667 OFFCURVE",
"466 378 CURVE SMOOTH"
);
},
{
closed = 1;
nodes = (
"422 416.333 OFFCURVE",
"418.333 388 OFFCURVE",
"411 350 CURVE SMOOTH",
"399.667 296 OFFCURVE",
"384.333 256.667 OFFCURVE",
"365 232 CURVE SMOOTH",
"339.667 198.667 OFFCURVE",
"301.667 182 OFFCURVE",
"251 182 CURVE SMOOTH",
"197 182 OFFCURVE",
"157 202 OFFCURVE",
"131 242 CURVE SMOOTH",
"125.667 250.667 OFFCURVE",
"123 256.667 OFFCURVE",
"123 260 CURVE SMOOTH",
"123 262 OFFCURVE",
"123.667 262.667 OFFCURVE",
"125 262 CURVE SMOOTH",
"126.333 261.333 OFFCURVE",
"127.333 262 OFFCURVE",
"128 264 CURVE",
"125.333 266 OFFCURVE",
"122.167 270.333 OFFCURVE",
"118.5 277 CURVE SMOOTH",
"114.833 283.667 OFFCURVE",
"110.667 287 OFFCURVE",
"106 287 CURVE SMOOTH",
"102.667 287 OFFCURVE",
"97.667 285.333 OFFCURVE",
"91 282 CURVE",
"91 335 LINE SMOOTH",
"91 399.667 OFFCURVE",
"108.333 465.333 OFFCURVE",
"143 532 CURVE SMOOTH",
"183.667 610 OFFCURVE",
"233.333 649 OFFCURVE",
"292 649 CURVE SMOOTH",
"337.333 649 OFFCURVE",
"371.667 623.333 OFFCURVE",
"395 572 CURVE SMOOTH",
"413 532.667 OFFCURVE",
"422 487 OFFCURVE",
"422 435 CURVE SMOOTH"
);
}
);
userData = {
assembly = "NPUSHB[ ]\011/* 54 values pushed */
1 75 75 64 76 46 59 57 38 4 65 62 57 56 11 29 5 34 20 5 5 34 5 25 6 5 4 18 37 38 4 26 25 48 4 46 16 7 14 52 7 42 69 6 2 42 3 31 3 14 1 1 20 70 
SROUND[ ]\011/* SuperRound */
MDAP[1]\011/* MoveDirectAbsPt */
SHZ[1]\011/* ShiftZoneByLastPoint */
RTG[ ]\011/* RoundToGrid */
SVTCA[0]\011/* SetFreedomAndProjectionVectorToAxis */
MIAP[1]\011/* MoveIndirectAbsPt */
MIAP[1]\011/* MoveIndirectAbsPt */
MIAP[1]\011/* MoveIndirectAbsPt */
MDAP[1]\011/* MoveDirectAbsPt */
MIRP[11101]\011/* MoveIndirectRelPt */
SRP0[ ]\011/* SetRefPoint0 */
MIRP[11101]\011/* MoveIndirectRelPt */
SRP0[ ]\011/* SetRefPoint0 */
MIRP[11101]\011/* MoveIndirectRelPt */
SVTCA[1]\011/* SetFreedomAndProjectionVectorToAxis */
MDAP[1]\011/* MoveDirectAbsPt */
MIRP[11101]\011/* MoveIndirectRelPt */
MDAP[1]\011/* MoveDirectAbsPt */
ALIGNRP[ ]\011/* AlignRelativePt */
MIRP[11101]\011/* MoveIndirectRelPt */
ALIGNRP[ ]\011/* AlignRelativePt */
MDAP[1]\011/* MoveDirectAbsPt */
MIRP[11101]\011/* MoveIndirectRelPt */
ALIGNRP[ ]\011/* AlignRelativePt */
SRP0[ ]\011/* SetRefPoint0 */
MIRP[11101]\011/* MoveIndirectRelPt */
SRP0[ ]\011/* SetRefPoint0 */
MIRP[11101]\011/* MoveIndirectRelPt */
SRP0[ ]\011/* SetRefPoint0 */
MIRP[11101]\011/* MoveIndirectRelPt */
MDAP[0]\011/* MoveDirectAbsPt */
MDAP[0]\011/* MoveDirectAbsPt */
MDAP[0]\011/* MoveDirectAbsPt */
MDAP[0]\011/* MoveDirectAbsPt */
MDAP[0]\011/* MoveDirectAbsPt */
SVTCA[0]\011/* SetFreedomAndProjectionVectorToAxis */
MDAP[0]\011/* MoveDirectAbsPt */
MDAP[0]\011/* MoveDirectAbsPt */
MDAP[0]\011/* MoveDirectAbsPt */
MDAP[0]\011/* MoveDirectAbsPt */
IUP[1]\011/* InterpolateUntPts */
IUP[0]\011/* InterpolateUntPts */
SVTCA[1]\011/* SetFreedomAndProjectionVectorToAxis */
MD[0]\011/* MeasureDistance */
ROUND[00]\011/* Round */
PUSHW[ ]\011/* 2 values pushed */
20 75 
MD[0]\011/* MeasureDistance */
ROUND[00]\011/* Round */
SUB[ ]\011/* Subtract */
PUSHB[ ]\011/* 1 value pushed */
64 
GT[ ]\011/* GreaterThan */
IF[ ]\011/* If */
SHPIX[ ]\011/* ShiftZoneByPixel */
SRP1[ ]\011/* SetRefPoint1 */
SHZ[1]\011/* ShiftZoneByLastPoint */
PUSHW[ ]\011/* 2 values pushed */
75 -64 
SHPIX[ ]\011/* ShiftZoneByPixel */
EIF[ ]\011/* EndIf */";
};
width = 501;
}
);
note = P;
unicode = 0050;
},
{
glyphname = Q;
lastChange = "2019-03-01 18:48:01 +0000";
layers = (
{
layerId = "93C069E7-FFAA-4B97-8A94-34C303BF132C";
paths = (
{
closed = 1;
nodes = (
"551 429.333 OFFCURVE",
"531.667 504 OFFCURVE",
"493 570 CURVE SMOOTH",
"447 648 OFFCURVE",
"385.333 687 OFFCURVE",
"308 687 CURVE SMOOTH",
"219.333 687 OFFCURVE",
"150.333 642.667 OFFCURVE",
"101 554 CURVE SMOOTH",
"60.333 481.333 OFFCURVE",
"40 397 OFFCURVE",
"40 301 CURVE SMOOTH",
"40 91.667 OFFCURVE",
"122.667 -10 OFFCURVE",
"288 -4 CURVE SMOOTH",
"312 -2.667 OFFCURVE",
"327.333 -1.333 OFFCURVE",
"334 0 CURVE",
"336 0.667 OFFCURVE",
"345.667 4 OFFCURVE",
"363 10 CURVE SMOOTH",
"377.667 15.333 OFFCURVE",
"386.667 18 OFFCURVE",
"390 18 CURVE SMOOTH",
"401.333 18 OFFCURVE",
"420.833 -7.167 OFFCURVE",
"448.5 -57.5 CURVE SMOOTH",
"476.167 -107.833 OFFCURVE",
"493.667 -133 OFFCURVE",
"501 -133 CURVE SMOOTH",
"513 -133 OFFCURVE",
"520.667 -125.333 OFFCURVE",
"524 -110 CURVE",
"516.667 -86.667 OFFCURVE",
"503.667 -60.333 OFFCURVE",
"485 -31 CURVE",
"477.667 -18.333 OFFCURVE",
"461 6.333 OFFCURVE",
"435 43 CURVE",
"512.333 107.667 OFFCURVE",
"551 208.667 OFFCURVE",
"551 346 CURVE SMOOTH"
);
},
{
closed = 1;
nodes = (
"499 224.667 OFFCURVE",
"469.333 134.667 OFFCURVE",
"410 78 CURVE",
"346.667 141.333 OFFCURVE",
"304.333 173 OFFCURVE",
"283 173 CURVE SMOOTH",
"259 173 OFFCURVE",
"247 164.333 OFFCURVE",
"247 147 CURVE SMOOTH",
"247 139.667 OFFCURVE",
"250.667 133.333 OFFCURVE",
"258 128 CURVE",
"267.333 120.667 OFFCURVE",
"284.333 110.667 OFFCURVE",
"309 98 CURVE SMOOTH",
"329.667 86.667 OFFCURVE",
"345.667 75.667 OFFCURVE",
"357 65 CURVE",
"357 54 LINE",
"327 42.667 OFFCURVE",
"302.667 37.333 OFFCURVE",
"284 38 CURVE SMOOTH",
"220.667 40 OFFCURVE",
"171.333 66 OFFCURVE",
"136 116 CURVE SMOOTH",
"104.667 161.333 OFFCURVE",
"89 219.333 OFFCURVE",
"89 290 CURVE SMOOTH",
"89 333.333 OFFCURVE",
"92.333 372 OFFCURVE",
"99 406 CURVE SMOOTH",
"110.333 466 OFFCURVE",
"131.667 517.667 OFFCURVE",
"163 561 CURVE SMOOTH",
"203 615.667 OFFCURVE",
"251 641.333 OFFCURVE",
"307 638 CURVE SMOOTH",
"371.667 634 OFFCURVE",
"421.333 598.667 OFFCURVE",
"456 532 CURVE SMOOTH",
"484.667 478 OFFCURVE",
"499 416.667 OFFCURVE",
"499 348 CURVE SMOOTH"
);
}
);
userData = {
assembly = "NPUSHB[ ]\011/* 36 values pushed */
1 56 56 64 57 0 54 11 50 44 43 6 2 37 4 19 27 4 0 52 6 17 41 7 17 31 6 23 8 23 3 17 1 1 19 70 
SROUND[ ]\011/* SuperRound */
MDAP[1]\011/* MoveDirectAbsPt */
SHZ[1]\011/* ShiftZoneByLastPoint */
RTG[ ]\011/* RoundToGrid */
SVTCA[0]\011/* SetFreedomAndProjectionVectorToAxis */
MIAP[1]\011/* MoveIndirectAbsPt */
MIAP[1]\011/* MoveIndirectAbsPt */
MDAP[1]\011/* MoveDirectAbsPt */
SRP0[ ]\011/* SetRefPoint0 */
MIRP[11101]\011/* MoveIndirectRelPt */
SRP0[ ]\011/* SetRefPoint0 */
MIRP[11101]\011/* MoveIndirectRelPt */
SRP0[ ]\011/* SetRefPoint0 */
MIRP[11101]\011/* MoveIndirectRelPt */
SVTCA[1]\011/* SetFreedomAndProjectionVectorToAxis */
MDAP[1]\011/* MoveDirectAbsPt */
MIRP[11101]\011/* MoveIndirectRelPt */
MDAP[1]\011/* MoveDirectAbsPt */
MIRP[11101]\011/* MoveIndirectRelPt */
MDAP[0]\011/* MoveDirectAbsPt */
MDAP[0]\011/* MoveDirectAbsPt */
MDAP[0]\011/* MoveDirectAbsPt */
MDAP[0]\011/* MoveDirectAbsPt */
MDAP[0]\011/* MoveDirectAbsPt */
SVTCA[0]\011/* SetFreedomAndProjectionVectorToAxis */
MDAP[0]\011/* MoveDirectAbsPt */
MDAP[0]\011/* MoveDirectAbsPt */
IUP[1]\011/* InterpolateUntPts */
IUP[0]\011/* InterpolateUntPts */
SVTCA[1]\011/* SetFreedomAndProjectionVectorToAxis */
MD[0]\011/* MeasureDistance */
ROUND[00]\011/* Round */
PUSHW[ ]\011/* 2 values pushed */
19 56 
MD[0]\011/* MeasureDistance */
ROUND[00]\011/* Round */
SUB[ ]\011/* Subtract */
PUSHB[ ]\011/* 1 value pushed */
64 
GT[ ]\011/* GreaterThan */
IF[ ]\011/* If */
SHPIX[ ]\011/* ShiftZoneByPixel */
SRP1[ ]\011/* SetRefPoint1 */
SHZ[1]\011/* ShiftZoneByLastPoint */
PUSHW[ ]\011/* 2 values pushed */
56 -64 
SHPIX[ ]\011/* ShiftZoneByPixel */
EIF[ ]\011/* EndIf */";
};
width = 571;
}
);
note = Q;
unicode = 0051;
},
{
glyphname = R;
lastChange = "2019-03-01 18:48:01 +0000";
layers = (
{
layerId = "93C069E7-FFAA-4B97-8A94-34C303BF132C";
paths = (
{
closed = 1;
nodes = (
"531.333 36.333 OFFCURVE",
"516.667 67.333 OFFCURVE",
"486 98 CURVE SMOOTH",
"466 117.333 OFFCURVE",
"432.667 142.333 OFFCURVE",
"386 173 CURVE SMOOTH",
"339.333 203.667 OFFCURVE",
"309.333 225.333 OFFCURVE",
"296 238 CURVE",
"301.333 240.667 OFFCURVE",
"306 242.333 OFFCURVE",
"310 243 CURVE",
"371.333 276.333 OFFCURVE",
"412.667 304.667 OFFCURVE",
"434 328 CURVE SMOOTH",
"468 364 OFFCURVE",
"485 410.667 OFFCURVE",
"485 468 CURVE SMOOTH",
"485 537.333 OFFCURVE",
"454 590 OFFCURVE",
"392 626 CURVE SMOOTH",
"341.333 656.667 OFFCURVE",
"279 672 OFFCURVE",
"205 672 CURVE SMOOTH",
"201.667 672 OFFCURVE",
"197 671.5 OFFCURVE",
"191 670.5 CURVE SMOOTH",
"185 669.5 OFFCURVE",
"180.333 669 OFFCURVE",
"177 669 CURVE SMOOTH",
"171 669 OFFCURVE",
"164.167 672.667 OFFCURVE",
"156.5 680 CURVE SMOOTH",
"148.833 687.333 OFFCURVE",
"141.333 691 OFFCURVE",
"134 691 CURVE SMOOTH",
"129.333 691 OFFCURVE",
"124 690 OFFCURVE",
"118 688 CURVE",
"111.333 680 OFFCURVE",
"107 672.667 OFFCURVE",
"105 666 CURVE",
"95 663.333 OFFCURVE",
"85.333 660.667 OFFCURVE",
"76 658 CURVE SMOOTH",
"62.667 654.667 OFFCURVE",
"56 646 OFFCURVE",
"56 632 CURVE SMOOTH",
"56 620.667 OFFCURVE",
"63.167 615 OFFCURVE",
"77.5 615 CURVE SMOOTH",
"91.833 615 OFFCURVE",
"100.667 614 OFFCURVE",
"104 612 CURVE",
"104.667 596 OFFCURVE",
"102.667 575.667 OFFCURVE",
"98 551 CURVE SMOOTH",
"92.667 518.333 OFFCURVE",
"89.667 498.333 OFFCURVE",
"89 491 CURVE SMOOTH",
"87.667 476.333 OFFCURVE",
"85.667 444 OFFCURVE",
"83 394 CURVE SMOOTH",
"81.667 354 OFFCURVE",
"78.667 322 OFFCURVE",
"74 298 CURVE",
"31.333 286 OFFCURVE",
"10 272.667 OFFCURVE",
"10 258 CURVE SMOOTH",
"10 248 OFFCURVE",
"21.667 239.333 OFFCURVE",
"45 232 CURVE SMOOTH",
"68.333 224.667 OFFCURVE",
"80 216.333 OFFCURVE",
"80 207 CURVE SMOOTH",
"80 90.333 OFFCURVE",
"85 25 OFFCURVE",
"95 11 CURVE SMOOTH",
"105 -3 OFFCURVE",
"119.667 -10 OFFCURVE",
"139 -10 CURVE SMOOTH",
"156.333 -10 OFFCURVE",
"165 -2.333 OFFCURVE",
"165 13 CURVE",
"165 11.667 OFFCURVE",
"159.333 20 OFFCURVE",
"148 38 CURVE",
"145.333 41.333 OFFCURVE",
"142 59.667 OFFCURVE",
"138 93 CURVE SMOOTH",
"133.333 124.333 OFFCURVE",
"131 144.333 OFFCURVE",
"131 153 CURVE SMOOTH",
"131 215 LINE",
"131 215 OFFCURVE",
"150 215 OFFCURVE",
"188 215 CURVE SMOOTH",
"248 215 OFFCURVE",
"484.333 49.667 OFFCURVE",
"495 -5 CURVE",
"497.667 -8.333 OFFCURVE",
"503.667 -10 OFFCURVE",
"513 -10 CURVE SMOOTH",
"520.333 -10 OFFCURVE",
"526 -6.667 OFFCURVE",
"530 0 CURVE",
"530 5 LINE"
);
},
{
closed = 1;
nodes = (
"433 424 OFFCURVE",
"415.667 381.667 OFFCURVE",
"381 345 CURVE SMOOTH",
"350.333 311 OFFCURVE",
"310.333 286.667 OFFCURVE",
"261 272 CURVE SMOOTH",
"243.667 266.667 OFFCURVE",
"230.333 264 OFFCURVE",
"221 264 CURVE SMOOTH",
"209 264 OFFCURVE",
"178.333 273.333 OFFCURVE",
"129 292 CURVE",
"131.667 374.667 OFFCURVE",
"137 435 OFFCURVE",
"145 473 CURVE SMOOTH",
"146.333 479.667 OFFCURVE",
"147.667 501.333 OFFCURVE",
"149 538 CURVE SMOOTH",
"150.333 563.333 OFFCURVE",
"155.667 583.667 OFFCURVE",
"165 599 CURVE SMOOTH",
"178 619 LINE",
"190.667 621.667 OFFCURVE",
"206.667 623 OFFCURVE",
"226 623 CURVE SMOOTH",
"280 623 OFFCURVE",
"326 611.667 OFFCURVE",
"364 589 CURVE SMOOTH",
"410 561.667 OFFCURVE",
"433 522.667 OFFCURVE",
"433 472 CURVE SMOOTH"
);
}
);
userData = {
assembly = "NPUSHB[ ]\011/* 39 values pushed */
1 88 88 64 89 0 49 62 38 35 25 17 1 0 80 11 10 4 22 67 4 56 82 6 10 8 71 6 52 52 3 46 3 19 3 1 1 25 70 
SROUND[ ]\011/* SuperRound */
MDAP[1]\011/* MoveDirectAbsPt */
SHZ[1]\011/* ShiftZoneByLastPoint */
RTG[ ]\011/* RoundToGrid */
SVTCA[0]\011/* SetFreedomAndProjectionVectorToAxis */
MIAP[1]\011/* MoveIndirectAbsPt */
ALIGNRP[ ]\011/* AlignRelativePt */
MIAP[1]\011/* MoveIndirectAbsPt */
MIAP[1]\011/* MoveIndirectAbsPt */
SRP0[ ]\011/* SetRefPoint0 */
MIRP[11101]\011/* MoveIndirectRelPt */
MDAP[1]\011/* MoveDirectAbsPt */
ALIGNRP[ ]\011/* AlignRelativePt */
MIRP[11101]\011/* MoveIndirectRelPt */
SVTCA[1]\011/* SetFreedomAndProjectionVectorToAxis */
MDAP[1]\011/* MoveDirectAbsPt */
MIRP[11101]\011/* MoveIndirectRelPt */
MDAP[1]\011/* MoveDirectAbsPt */
MIRP[11101]\011/* MoveIndirectRelPt */
ALIGNRP[ ]\011/* AlignRelativePt */
ALIGNRP[ ]\011/* AlignRelativePt */
MDAP[0]\011/* MoveDirectAbsPt */
MDAP[0]\011/* MoveDirectAbsPt */
MDAP[0]\011/* MoveDirectAbsPt */
MDAP[0]\011/* MoveDirectAbsPt */
MDAP[0]\011/* MoveDirectAbsPt */
MDAP[0]\011/* MoveDirectAbsPt */
MDAP[0]\011/* MoveDirectAbsPt */
SVTCA[0]\011/* SetFreedomAndProjectionVectorToAxis */
MDAP[0]\011/* MoveDirectAbsPt */
IUP[1]\011/* InterpolateUntPts */
IUP[0]\011/* InterpolateUntPts */
SVTCA[1]\011/* SetFreedomAndProjectionVectorToAxis */
MD[0]\011/* MeasureDistance */
ROUND[00]\011/* Round */
PUSHW[ ]\011/* 2 values pushed */
25 88 
MD[0]\011/* MeasureDistance */
ROUND[00]\011/* Round */
SUB[ ]\011/* Subtract */
PUSHB[ ]\011/* 1 value pushed */
64 
GT[ ]\011/* GreaterThan */
IF[ ]\011/* If */
SHPIX[ ]\011/* ShiftZoneByPixel */
SRP1[ ]\011/* SetRefPoint1 */
SHZ[1]\011/* ShiftZoneByLastPoint */
PUSHW[ ]\011/* 2 values pushed */
88 -64 
SHPIX[ ]\011/* ShiftZoneByPixel */
EIF[ ]\011/* EndIf */";
};
width = 550;
}
);
note = R;
unicode = 0052;
},
{
glyphname = S;
lastChange = "2019-03-01 18:48:01 +0000";
layers = (
{
layerId = "93C069E7-FFAA-4B97-8A94-34C303BF132C";
paths = (
{
closed = 1;
nodes = (
"429 118.333 OFFCURVE",
"400.667 155.667 OFFCURVE",
"344 197 CURVE SMOOTH",
"290.667 235.667 OFFCURVE",
"237.667 274 OFFCURVE",
"185 312 CURVE",
"127.667 361.333 OFFCURVE",
"99 413.333 OFFCURVE",
"99 468 CURVE SMOOTH",
"99 549.333 OFFCURVE",
"158.333 632 OFFCURVE",
"237 632 CURVE SMOOTH",
"276.333 632 OFFCURVE",
"305.667 608 OFFCURVE",
"325 560 CURVE SMOOTH",
"339.667 524.667 OFFCURVE",
"347 484 OFFCURVE",
"347 438 CURVE SMOOTH",
"347 428.667 OFFCURVE",
"345 415 OFFCURVE",
"341 397 CURVE SMOOTH",
"337 379 OFFCURVE",
"335 365.333 OFFCURVE",
"335 356 CURVE SMOOTH",
"335 342.667 OFFCURVE",
"352.667 323 OFFCURVE",
"366 323 CURVE SMOOTH",
"392 323 OFFCURVE",
"405 349.667 OFFCURVE",
"405 403 CURVE",
"405 403 OFFCURVE",
"402.333 415 OFFCURVE",
"397 439 CURVE",
"392.333 471.667 OFFCURVE",
"389.667 496 OFFCURVE",
"389 512 CURVE",
"380.333 559.333 OFFCURVE",
"362 599.667 OFFCURVE",
"334 633 CURVE SMOOTH",
"302 671 OFFCURVE",
"263.667 690 OFFCURVE",
"219 690 CURVE SMOOTH",
"166.333 690 OFFCURVE",
"122.667 664.667 OFFCURVE",
"88 614 CURVE SMOOTH",
"56.667 568.667 OFFCURVE",
"41 518.667 OFFCURVE",
"41 464 CURVE SMOOTH",
"41 404.667 OFFCURVE",
"62 352.667 OFFCURVE",
"104 308 CURVE SMOOTH",
"122.667 288 OFFCURVE",
"167.667 252.667 OFFCURVE",
"239 202 CURVE SMOOTH",
"283.667 170 OFFCURVE",
"308.667 152 OFFCURVE",
"314 148 CURVE",
"346.667 120.667 OFFCURVE",
"363 97.667 OFFCURVE",
"363 79 CURVE SMOOTH",
"363 39 OFFCURVE",
"325 19 OFFCURVE",
"249 19 CURVE SMOOTH",
"192.333 19 OFFCURVE",
"151.333 27.333 OFFCURVE",
"126 44 CURVE SMOOTH",
"124 45.333 OFFCURVE",
"111.333 57 OFFCURVE",
"88 79 CURVE SMOOTH",
"71.333 93.667 OFFCURVE",
"56.667 101 OFFCURVE",
"44 101 CURVE SMOOTH",
"28 101 OFFCURVE",
"20 92.667 OFFCURVE",
"20 76 CURVE SMOOTH",
"20 45.333 OFFCURVE",
"50 19.667 OFFCURVE",
"110 -1 CURVE SMOOTH",
"156.667 -17 OFFCURVE",
"199.667 -25 OFFCURVE",
"239 -25 CURVE SMOOTH",
"281.667 -25 OFFCURVE",
"321.667 -17 OFFCURVE",
"359 -1 CURVE SMOOTH",
"405.667 19 OFFCURVE",
"429 47.667 OFFCURVE",
"429 85 CURVE SMOOTH"
);
}
);
userData = {
assembly = "NPUSHB[ ]\011/* 34 values pushed */
1 59 59 64 60 0 40 10 8 18 5 0 43 5 38 53 5 26 46 5 38 50 6 30 16 6 4 30 3 4 1 1 8 70 
SROUND[ ]\011/* SuperRound */
MDAP[1]\011/* MoveDirectAbsPt */
SHZ[1]\011/* ShiftZoneByLastPoint */
RTG[ ]\011/* RoundToGrid */
SVTCA[0]\011/* SetFreedomAndProjectionVectorToAxis */
MIAP[1]\011/* MoveIndirectAbsPt */
MIAP[1]\011/* MoveIndirectAbsPt */
SRP0[ ]\011/* SetRefPoint0 */
MIRP[11101]\011/* MoveIndirectRelPt */
SRP0[ ]\011/* SetRefPoint0 */
MIRP[11101]\011/* MoveIndirectRelPt */
SVTCA[1]\011/* SetFreedomAndProjectionVectorToAxis */
MDAP[1]\011/* MoveDirectAbsPt */
MIRP[11101]\011/* MoveIndirectRelPt */
MDAP[1]\011/* MoveDirectAbsPt */
MIRP[11101]\011/* MoveIndirectRelPt */
SRP0[ ]\011/* SetRefPoint0 */
MIRP[11101]\011/* MoveIndirectRelPt */
MDAP[1]\011/* MoveDirectAbsPt */
MIRP[11101]\011/* MoveIndirectRelPt */
MDAP[0]\011/* MoveDirectAbsPt */
SVTCA[0]\011/* SetFreedomAndProjectionVectorToAxis */
MDAP[0]\011/* MoveDirectAbsPt */
MDAP[0]\011/* MoveDirectAbsPt */
IUP[1]\011/* InterpolateUntPts */
IUP[0]\011/* InterpolateUntPts */
SVTCA[1]\011/* SetFreedomAndProjectionVectorToAxis */
MD[0]\011/* MeasureDistance */
ROUND[00]\011/* Round */
PUSHW[ ]\011/* 2 values pushed */
8 59 
MD[0]\011/* MeasureDistance */
ROUND[00]\011/* Round */
SUB[ ]\011/* Subtract */
PUSHB[ ]\011/* 1 value pushed */
64 
GT[ ]\011/* GreaterThan */
IF[ ]\011/* If */
SHPIX[ ]\011/* ShiftZoneByPixel */
SRP1[ ]\011/* SetRefPoint1 */
SHZ[1]\011/* ShiftZoneByLastPoint */
PUSHW[ ]\011/* 2 values pushed */
59 -64 
SHPIX[ ]\011/* ShiftZoneByPixel */
EIF[ ]\011/* EndIf */";
};
width = 449;
}
);
note = S;
unicode = 0053;
},
{
glyphname = T;
lastChange = "2019-03-01 18:48:01 +0000";
layers = (
{
layerId = "93C069E7-FFAA-4B97-8A94-34C303BF132C";
paths = (
{
closed = 1;
nodes = (
"448 656 OFFCURVE",
"409.333 672 OFFCURVE",
"332 672 CURVE SMOOTH",
"296.667 672 OFFCURVE",
"240.333 667.667 OFFCURVE",
"163 659 CURVE SMOOTH",
"70.333 647.667 OFFCURVE",
"20.667 636.333 OFFCURVE",
"14 625 CURVE",
"22 603.667 OFFCURVE",
"39.333 593 OFFCURVE",
"66 593 CURVE SMOOTH",
"78 593 OFFCURVE",
"95.833 595.333 OFFCURVE",
"119.5 600 CURVE SMOOTH",
"143.167 604.667 OFFCURVE",
"161 607 OFFCURVE",
"173 607 CURVE SMOOTH",
"181 607 OFFCURVE",
"185.333 602 OFFCURVE",
"186 592 CURVE",
"185.333 611.333 OFFCURVE",
"185 602 OFFCURVE",
"185 564 CURVE SMOOTH",
"185 532.667 OFFCURVE",
"182.333 490.667 OFFCURVE",
"177 438 CURVE SMOOTH",
"170.333 372 OFFCURVE",
"166.667 330 OFFCURVE",
"166 312 CURVE SMOOTH",
"163.333 274 OFFCURVE",
"162 217.667 OFFCURVE",
"162 143 CURVE SMOOTH",
"162 91.667 OFFCURVE",
"164 58.333 OFFCURVE",
"168 43 CURVE SMOOTH",
"177.333 3 OFFCURVE",
"199.333 -17 OFFCURVE",
"234 -17 CURVE SMOOTH",
"240.667 -17 OFFCURVE",
"244 -12.333 OFFCURVE",
"244 -3 CURVE",
"226 27 OFFCURVE",
"217 85 OFFCURVE",
"217 171 CURVE SMOOTH",
"217 287 OFFCURVE",
"223.333 396 OFFCURVE",
"236 498 CURVE SMOOTH",
"247.693 574.005 OFFCURVE",
"253.357 618 OFFCURVE",
"287 618 CURVE SMOOTH",
"332 618 LINE SMOOTH",
"373.333 618 OFFCURVE",
"399 615.333 OFFCURVE",
"409 610 CURVE",
"425 602.667 OFFCURVE",
"432.333 599 OFFCURVE",
"431 599 CURVE",
"442.333 599 OFFCURVE",
"448 607.333 OFFCURVE",
"448 624 CURVE SMOOTH"
);
}
);
userData = {
assembly = "NPUSHB[ ]\011/* 30 values pushed */
1 42 42 64 43 0 34 31 2 36 29 15 0 21 5 13 13 4 23 7 6 6 40 40 3 17 1 1 36 70 
SROUND[ ]\011/* SuperRound */
MDAP[1]\011/* MoveDirectAbsPt */
SHZ[1]\011/* ShiftZoneByLastPoint */
RTG[ ]\011/* RoundToGrid */
SVTCA[0]\011/* SetFreedomAndProjectionVectorToAxis */
MIAP[1]\011/* MoveIndirectAbsPt */
MIAP[1]\011/* MoveIndirectAbsPt */
SRP0[ ]\011/* SetRefPoint0 */
MIRP[11101]\011/* MoveIndirectRelPt */
ALIGNRP[ ]\011/* AlignRelativePt */
SVTCA[1]\011/* SetFreedomAndProjectionVectorToAxis */
MDAP[1]\011/* MoveDirectAbsPt */
MIRP[11101]\011/* MoveIndirectRelPt */
SRP0[ ]\011/* SetRefPoint0 */
MIRP[11101]\011/* MoveIndirectRelPt */
MDAP[0]\011/* MoveDirectAbsPt */
MDAP[0]\011/* MoveDirectAbsPt */
MDAP[0]\011/* MoveDirectAbsPt */
MDAP[0]\011/* MoveDirectAbsPt */
SVTCA[0]\011/* SetFreedomAndProjectionVectorToAxis */
MDAP[0]\011/* MoveDirectAbsPt */
MDAP[0]\011/* MoveDirectAbsPt */
MDAP[0]\011/* MoveDirectAbsPt */
IUP[1]\011/* InterpolateUntPts */
IUP[0]\011/* InterpolateUntPts */
SVTCA[1]\011/* SetFreedomAndProjectionVectorToAxis */
MD[0]\011/* MeasureDistance */
ROUND[00]\011/* Round */
PUSHW[ ]\011/* 2 values pushed */
36 42 
MD[0]\011/* MeasureDistance */
ROUND[00]\011/* Round */
SUB[ ]\011/* Subtract */
PUSHB[ ]\011/* 1 value pushed */
64 
GT[ ]\011/* GreaterThan */
IF[ ]\011/* If */
SHPIX[ ]\011/* ShiftZoneByPixel */
SRP1[ ]\011/* SetRefPoint1 */
SHZ[1]\011/* ShiftZoneByLastPoint */
PUSHW[ ]\011/* 2 values pushed */
42 -64 
SHPIX[ ]\011/* ShiftZoneByPixel */
EIF[ ]\011/* EndIf */";
};
width = 474;
}
);
note = T;
unicode = 0054;
},
